<?xml version="1.0" encoding="utf-8"?>
<svg width="100px" height="100px" viewBox="0 0 100 100" version="1.1" xmlns:xlink="http://www.w3.org/1999/xlink" xmlns="http://www.w3.org/2000/svg">
  <defs>
    <linearGradient gradientUnits="objectBoundingBox" x1="-0.0004497863" y1="0.49979573" x2="0.99994653" y2="0.49979573" id="gradient_1">
      <stop offset="0%" stop-color="#92A6F1" />
      <stop offset="100%" stop-color="#FFFFFF" />
    </linearGradient>
    <linearGradient gradientUnits="objectBoundingBox" x1="-0.006278481" y1="0.49528795" x2="0.9876582" y2="0.49528795" id="gradient_2">
      <stop offset="33.75%" stop-color="#97B5E1" />
      <stop offset="59.320004%" stop-color="#E8F1FF" />
    </linearGradient>
    <linearGradient gradientUnits="objectBoundingBox" x1="-3.5527137E-15" y1="0.5127125" x2="0.99214995" y2="0.5127125" id="gradient_3">
      <stop offset="0%" stop-color="#103DB5" />
      <stop offset="64.26%" stop-color="#6BABFD" />
    </linearGradient>
    <linearGradient gradientUnits="objectBoundingBox" x1="0.49606666" y1="0.9705078" x2="0.49606666" y2="0.009015458" id="gradient_4">
      <stop offset="0%" stop-color="#0CFFFC" stop-opacity="0.6" />
      <stop offset="100%" stop-color="#FFFFFF" stop-opacity="0" />
    </linearGradient>
    <linearGradient gradientUnits="objectBoundingBox" x1="0.0036835442" y1="0.49761254" x2="0.9976202" y2="0.49761254" id="gradient_5">
      <stop offset="33.75%" stop-color="#97B5E1" />
      <stop offset="59.320004%" stop-color="#E8F1FF" />
    </linearGradient>
    <linearGradient gradientUnits="objectBoundingBox" x1="-0.0035499998" y1="0.51049274" x2="0.98859996" y2="0.51049274" id="gradient_6">
      <stop offset="0%" stop-color="#103DB5" />
      <stop offset="64.26%" stop-color="#6BABFD" />
    </linearGradient>
    <linearGradient gradientUnits="objectBoundingBox" x1="0.50918335" y1="0.9714967" x2="0.50918335" y2="0.010004389" id="gradient_7">
      <stop offset="0%" stop-color="#0CFFFC" stop-opacity="0.6" />
      <stop offset="100%" stop-color="#FFFFFF" stop-opacity="0" />
    </linearGradient>
    <linearGradient gradientUnits="objectBoundingBox" x1="-0.0035822783" y1="0.49761254" x2="0.9903544" y2="0.49761254" id="gradient_8">
      <stop offset="33.75%" stop-color="#97B5E1" />
      <stop offset="59.320004%" stop-color="#E8F1FF" />
    </linearGradient>
    <linearGradient gradientUnits="objectBoundingBox" x1="0.0035499998" y1="0.51049274" x2="0.99569994" y2="0.51049274" id="gradient_9">
      <stop offset="0%" stop-color="#103DB5" />
      <stop offset="64.26%" stop-color="#6BABFD" />
    </linearGradient>
    <linearGradient gradientUnits="objectBoundingBox" x1="0.49961665" y1="0.9714967" x2="0.49961665" y2="0.010004389" id="gradient_10">
      <stop offset="0%" stop-color="#0CFFFC" stop-opacity="0.6" />
      <stop offset="100%" stop-color="#FFFFFF" stop-opacity="0" />
    </linearGradient>
    <linearGradient gradientUnits="objectBoundingBox" x1="-0.00049818185" y1="0.49875394" x2="0.99964" y2="0.49875394" id="gradient_11">
      <stop offset="33.75%" stop-color="#97B5E1" />
      <stop offset="59.320004%" stop-color="#E8F1FF" />
    </linearGradient>
    <linearGradient gradientUnits="objectBoundingBox" x1="0.00022194232" y1="0.5003417" x2="1.0012488" y2="0.5003417" id="gradient_12">
      <stop offset="0%" stop-color="#103DB5" />
      <stop offset="64.26%" stop-color="#6BABFD" />
    </linearGradient>
    <linearGradient gradientUnits="objectBoundingBox" x1="0.9994118" y1="0.50022256" x2="-0.00094972603" y2="0.50022256" id="gradient_13">
      <stop offset="0%" stop-color="#FFFFFF" />
      <stop offset="100%" stop-color="#C9D9F4" />
    </linearGradient>
    <linearGradient gradientUnits="objectBoundingBox" x1="0.46486685" y1="0.10252489" x2="0.46486685" y2="0.91018087" id="gradient_14">
      <stop offset="25.78%" stop-color="#FFFFFF" />
      <stop offset="100%" stop-color="#FFFFFF" stop-opacity="0" />
    </linearGradient>
    <linearGradient gradientUnits="objectBoundingBox" x1="0.4668977" y1="0.10577013" x2="0.4668977" y2="0.9134261" id="gradient_15">
      <stop offset="25.78%" stop-color="#FFFFFF" />
      <stop offset="100%" stop-color="#FFFFFF" stop-opacity="0" />
    </linearGradient>
    <linearGradient gradientUnits="objectBoundingBox" x1="0.47182485" y1="0.10848381" x2="0.47182485" y2="0.9161398" id="gradient_16">
      <stop offset="25.78%" stop-color="#FFFFFF" />
      <stop offset="100%" stop-color="#FFFFFF" stop-opacity="0" />
    </linearGradient>
    <linearGradient gradientUnits="objectBoundingBox" x1="0.47182485" y1="0.10798529" x2="0.47182485" y2="0.91564125" id="gradient_17">
      <stop offset="25.78%" stop-color="#FFFFFF" />
      <stop offset="100%" stop-color="#FFFFFF" stop-opacity="0" />
    </linearGradient>
    <linearGradient gradientUnits="objectBoundingBox" x1="0.49860975" y1="0.99981946" x2="0.49860975" y2="0.00013073189" id="gradient_18">
      <stop offset="0%" stop-color="#0CFFFC" stop-opacity="0.6" />
      <stop offset="100%" stop-color="#FFFFFF" stop-opacity="0" />
    </linearGradient>
    <linearGradient gradientUnits="objectBoundingBox" x1="0.88695496" y1="0.8317486" x2="0.3584311" y2="0.030770794" id="gradient_19">
      <stop offset="0%" stop-color="#103DB5" />
      <stop offset="64.26%" stop-color="#6BABFD" />
    </linearGradient>
    <linearGradient gradientUnits="objectBoundingBox" x1="0.8774353" y1="0.8640581" x2="0.34891152" y2="0.06308024" id="gradient_20">
      <stop offset="0%" stop-color="#103DB5" />
      <stop offset="64.26%" stop-color="#6BABFD" />
    </linearGradient>
    <linearGradient gradientUnits="objectBoundingBox" x1="-0.006278481" y1="0.4999581" x2="0.9876582" y2="0.4999581" id="gradient_21">
      <stop offset="33.75%" stop-color="#97B5E1" />
      <stop offset="59.320004%" stop-color="#E8F1FF" />
    </linearGradient>
    <linearGradient gradientUnits="objectBoundingBox" x1="-3.5527137E-15" y1="0.5084448" x2="0.99214995" y2="0.5084448" id="gradient_22">
      <stop offset="0%" stop-color="#103DB5" />
      <stop offset="64.26%" stop-color="#6BABFD" />
    </linearGradient>
    <linearGradient gradientUnits="objectBoundingBox" x1="0.49606666" y1="0.9636468" x2="0.49606666" y2="0.00215449" id="gradient_23">
      <stop offset="0%" stop-color="#0CFFFC" stop-opacity="0.6" />
      <stop offset="100%" stop-color="#FFFFFF" stop-opacity="0" />
    </linearGradient>
    <linearGradient gradientUnits="objectBoundingBox" x1="-0.1208584" y1="0.03000272" x2="1.4533185" y2="1.4379183" id="gradient_24">
      <stop offset="0%" stop-color="#FF8000" />
      <stop offset="100%" stop-color="#FFD000" />
    </linearGradient>
    <linearGradient gradientUnits="objectBoundingBox" x1="-1.6681557" y1="-0.47847095" x2="2.2847779" y2="1.1883193" id="gradient_25">
      <stop offset="0%" stop-color="#FF8000" />
      <stop offset="100%" stop-color="#FFD000" />
    </linearGradient>
    <linearGradient gradientUnits="objectBoundingBox" x1="-0.988971" y1="1.2806287" x2="0.2060456" y2="0.72748244" id="gradient_26">
      <stop offset="0%" stop-color="#FF8000" />
      <stop offset="100%" stop-color="#FFD000" />
    </linearGradient>
    <linearGradient gradientUnits="objectBoundingBox" x1="-9.046687" y1="1.5530525" x2="-3.046708" y2="0.8915979" id="gradient_27">
      <stop offset="0%" stop-color="#FF8000" />
      <stop offset="100%" stop-color="#FFD000" />
    </linearGradient>
    <linearGradient gradientUnits="objectBoundingBox" x1="0.080103725" y1="0.38622808" x2="1.1558341" y2="0.58934796" id="gradient_28">
      <stop offset="0%" stop-color="#FFFFFF" stop-opacity="0.2" />
      <stop offset="100%" stop-color="#FFFFFF" />
    </linearGradient>
    <linearGradient gradientUnits="objectBoundingBox" x1="-0.6850408" y1="0.44643706" x2="1.6675102" y2="0.55443704" id="gradient_29">
      <stop offset="0%" stop-color="#FFFFFF" stop-opacity="0.2" />
      <stop offset="100%" stop-color="#FFFFFF" />
    </linearGradient>
    <linearGradient gradientUnits="objectBoundingBox" x1="-0.004587629" y1="0.50114036" x2="0.9967629" y2="0.50114036" id="gradient_30">
      <stop offset="0%" stop-color="#FF8000" />
      <stop offset="100%" stop-color="#FFD000" />
    </linearGradient>
    <linearGradient gradientUnits="objectBoundingBox" x1="-0.16211362" y1="0.70230556" x2="-1.7129318" y2="1.2774723" id="gradient_31">
      <stop offset="0%" stop-color="#FF8000" />
      <stop offset="100%" stop-color="#FFD000" />
    </linearGradient>
    <linearGradient gradientUnits="objectBoundingBox" x1="1.0702032" y1="0.4067097" x2="-0.003328119" y2="0.8241613" id="gradient_32">
      <stop offset="0%" stop-color="#FF8000" />
      <stop offset="100%" stop-color="#FFD000" />
    </linearGradient>
    <linearGradient gradientUnits="objectBoundingBox" x1="0.104155555" y1="0.18288462" x2="0.7472889" y2="0.69873077" id="gradient_33">
      <stop offset="0%" stop-color="#FF8000" />
      <stop offset="100%" stop-color="#FFD000" />
    </linearGradient>
    <linearGradient gradientUnits="objectBoundingBox" x1="1.4107908" y1="0.497" x2="-0.28579065" y2="0.497" id="gradient_34">
      <stop offset="0%" stop-color="#FFFFFF" stop-opacity="0.2" />
      <stop offset="100%" stop-color="#FFFFFF" />
    </linearGradient>
    <linearGradient gradientUnits="objectBoundingBox" x1="1.573" y1="0.45407698" x2="-0.68239534" y2="0.5459616" id="gradient_35">
      <stop offset="0%" stop-color="#FFFFFF" stop-opacity="0.2" />
      <stop offset="100%" stop-color="#FFFFFF" />
    </linearGradient>
    <linearGradient gradientUnits="objectBoundingBox" x1="1.544" y1="0.4585556" x2="-0.6513954" y2="0.5446667" id="gradient_36">
      <stop offset="0%" stop-color="#FFFFFF" stop-opacity="0.2" />
      <stop offset="100%" stop-color="#FFFFFF" />
    </linearGradient>
    <linearGradient gradientUnits="objectBoundingBox" x1="-0.16906813" y1="0.8590754" x2="0.6687197" y2="0.18890846" id="gradient_37">
      <stop offset="0%" stop-color="#97B5E1" />
      <stop offset="100%" stop-color="#ECF1FA" />
    </linearGradient>
    <linearGradient gradientUnits="objectBoundingBox" x1="1.0839268" y1="0.78753084" x2="-0.18580486" y2="0.040593937" id="gradient_38">
      <stop offset="0%" stop-color="#FFFFFF" />
      <stop offset="100%" stop-color="#C9D9F4" />
    </linearGradient>
    <linearGradient gradientUnits="objectBoundingBox" x1="1.1733507" y1="0.862752" x2="0.32420778" y2="0.20942491" id="gradient_39">
      <stop offset="0%" stop-color="#97B5E1" />
      <stop offset="100%" stop-color="#ECF1FA" />
    </linearGradient>
    <linearGradient gradientUnits="objectBoundingBox" x1="-0.08539586" y1="0.79965854" x2="1.1970834" y2="0.051030967" id="gradient_40">
      <stop offset="0%" stop-color="#FFFFFF" />
      <stop offset="100%" stop-color="#C9D9F4" />
    </linearGradient>
  </defs>
  <g id="iso_build_2x">
    <path d="M100 0L100 0L100 100L0 100L0 0L100 0Z" id="iso_build_2x" fill="none" stroke="none" />
    <g id="Group" transform="translate(3.1624146 5.4749994)">
      <g id="Group" transform="translate(0 30.475002)">
        <g id="Group" transform="translate(0 9.400002)" opacity="0.4">
          <path d="M89.2376 20.95C95.1376 24.35 95.1376 29.85 89.3376 33.25L57.5376 51.65C51.7376 55.05 42.2376 55.05 36.3376 51.65L4.43758 33.25C-1.46242 29.85 -1.46242 24.35 4.33758 20.95L36.0376 2.55C41.8376 -0.85 51.3376 -0.85 57.2376 2.55L89.2376 20.95L89.2376 20.95Z" id="Vector" fill="#00357C" fill-opacity="0.4" fill-rule="evenodd" stroke="none" />
        </g>
        <g id="Group" transform="translate(0.037582397 0)">
          <path d="M93.6 27.15L0 27.15L0 30.45C0 32.65 1.49999 34.85 4.39999 36.55L36.3 54.95C42.2 58.35 51.7 58.35 57.5 54.95L89.2 36.55C92.1 34.85 93.6 32.65 93.6 30.45L93.6 27.15L93.6 27.15Z" id="Vector" fill="url(#gradient_1)" fill-rule="evenodd" stroke="none" />
          <g id="Group" transform="translate(0.062416077 0)">
            <path d="M89.1376 20.95C95.0376 24.35 95.0376 29.85 89.2376 33.25L57.5376 51.65C51.7376 55.05 42.2376 55.05 36.3376 51.65L4.43758 33.25C-1.46242 29.85 -1.46242 24.35 4.33758 20.95L35.9376 2.55C41.7376 -0.85 51.2376 -0.85 57.1376 2.55L89.1376 20.95L89.1376 20.95Z" id="Vector" fill="#F3F8FE" fill-rule="evenodd" stroke="none" />
          </g>
        </g>
      </g>
      <g id="Group" transform="translate(10.1375885 36.325)">
        <path d="M44.923 1.98236C42.5768 0.656226 39.5319 0 36.5125 0C33.4934 0 30.4724 0.656128 28.1749 1.98353L28.1744 1.98386L3.57436 16.2839L3.57345 16.2844C1.22892 17.6605 0 19.4797 0 21.3375C0 23.1962 1.22986 24.9905 3.57515 26.3166L3.57512 26.3166L28.3751 40.6166L28.377 40.6176C30.7232 41.9438 33.7681 42.6 36.7875 42.6C39.8066 42.6 42.8276 41.9439 45.1251 40.6165L45.1253 40.6164L69.8253 26.3164L69.8286 26.3144C72.1239 24.9372 73.3258 23.1173 73.3125 21.2607C73.2991 19.4035 72.0706 17.6098 69.7249 16.2834L69.723 16.2823L44.9249 1.98342L44.923 1.98236L44.923 1.98236ZM28.4251 2.41647L28.4256 2.41617C30.6281 1.14377 33.5568 0.5 36.5125 0.5C39.4673 0.5 42.4215 1.14341 44.6751 2.41658L44.677 2.41767L69.4751 16.7166L69.477 16.7176C71.7301 17.9912 72.8009 19.647 72.8125 21.2643C72.8241 22.8819 71.7771 24.5611 69.5747 25.8836L69.5714 25.8855L44.8749 40.1835L44.8747 40.1836C42.6722 41.4561 39.7433 42.1 36.7875 42.1C33.8327 42.1 30.8784 41.4566 28.6249 40.1835L28.6249 40.1834L3.82488 25.8834L3.82301 25.8824C1.56949 24.6086 0.5 22.9533 0.5 21.3375C0.5 19.7205 1.5708 18.0399 3.82564 16.7161L3.82654 16.7156L28.4251 2.41644L28.4251 2.41647L28.4251 2.41647Z" id="Vector" fill="#D3E7FE" fill-rule="evenodd" stroke="none" />
      </g>
      <g id="Group" transform="translate(42.093155 24.225002)">
        <g id="Group" transform="translate(0 9.47575)">
          <path d="M9.4075 2.72623C9.41167 1.23506 7.31079 0.0203729 4.71506 0.0131245C2.11933 0.00587606 0.0117036 1.20882 0.00753956 2.69998C0.00337557 4.19114 2.10425 5.40585 4.69998 5.41309C7.29571 5.42034 9.40334 4.21739 9.4075 2.72623L9.4075 2.72623Z" id="Vector" fill="#A6CEFC" fill-rule="evenodd" stroke="none" />
        </g>
        <g id="Group" transform="translate(0.71942234 7.2249985)">
          <path d="M0.125 2.275L0.125 4.775C0.125 5.375 0.525012 5.975 1.32501 6.375C2.82501 7.275 5.325 7.275 6.925 6.375C7.725 5.975 8.02501 5.375 8.02501 4.775L8.02501 2.275L0.125 2.275L0.125 2.275Z" id="Vector" fill="url(#gradient_2)" fill-rule="evenodd" stroke="none" />
          <g id="Group">
            <g id="Group" transform="translate(1.0250092 0.5499992)">
              <path d="M5.1 0.525C6.3 1.225 6.3 2.325 5.1 2.925C3.9 3.525 2.1 3.625 0.9 2.925C-0.3 2.225 -0.3 1.125 0.9 0.525C2 -0.175 3.9 -0.175 5.1 0.525L5.1 0.525Z" id="Vector" fill="url(#gradient_3)" fill-rule="evenodd" stroke="none" />
            </g>
            <g id="Group" transform="translate(0.9470675 0.7919156)">
              <path d="M6.00472 1.71674C6.00735 0.777862 4.66633 0.0130041 3.00948 0.00837755C1.35264 0.0037508 0.00736889 0.761107 0.00474713 1.69998C0.00212535 2.63887 1.34314 3.40373 2.99999 3.40835C4.65683 3.41298 6.0021 2.65562 6.00472 1.71674L6.00472 1.71674Z" id="Vector" fill="#0CFFFC" fill-rule="evenodd" stroke="none" />
            </g>
            <path d="M6.72501 0.675C5.22501 -0.225 2.725 -0.225 1.125 0.675C-0.375 1.575 -0.375 2.975 1.125 3.875C2.625 4.775 5.12501 4.775 6.72501 3.875C8.32501 2.975 8.32501 1.575 6.72501 0.675L6.72501 0.675ZM6.125 3.475C4.925 4.175 3.125 4.175 1.925 3.475C0.725003 2.775 0.725003 1.675 1.925 1.075C3.125 0.375001 4.925 0.375001 6.125 1.075C7.225 1.775 7.225 2.875 6.125 3.475L6.125 3.475Z" id="Vector" fill="#BCD0F1" fill-rule="evenodd" stroke="none" />
          </g>
        </g>
        <path d="M7.74443 0L1.74443 0L1.74443 9.5C1.74443 10 2.04443 10.4 2.64443 10.8C3.84442 11.5 5.74442 11.5 6.84442 10.8C7.44442 10.5 7.74443 10 7.74443 9.6L7.74443 0L7.74443 0Z" id="Vector" fill="url(#gradient_4)" fill-rule="evenodd" stroke="none" />
      </g>
      <g id="Group" transform="translate(77.86084 45.025)">
        <g id="Group" transform="translate(0 9.465504)">
          <path d="M9.4075 2.72624C9.41167 1.23507 7.31079 0.0203729 4.71506 0.0131245C2.11933 0.00587606 0.0117036 1.20883 0.00753959 2.69999C0.0033756 4.19115 2.10425 5.40587 4.69998 5.41311C7.29571 5.42036 9.40334 4.2174 9.4075 2.72624L9.4075 2.72624Z" id="Vector" fill="#A6CEFC" fill-rule="evenodd" stroke="none" />
        </g>
        <g id="Group" transform="translate(0.75174046 7.2250023)">
          <path d="M0.0250092 2.275L0.0250092 4.775C0.0250092 5.375 0.425006 5.975 1.22501 6.375C2.72501 7.275 5.225 7.275 6.825 6.375C7.625 5.975 7.925 5.375 7.925 4.775L7.925 2.275L0.0250092 2.275L0.0250092 2.275Z" id="Vector" fill="url(#gradient_5)" fill-rule="evenodd" stroke="none" />
          <g id="Group">
            <g id="Group" transform="translate(1.0250092 0.54999536)">
              <path d="M5.1 0.525C6.3 1.225 6.3 2.325 5.1 2.925C3.9 3.625 2.1 3.625 0.9 2.925C-0.3 2.225 -0.3 1.125 0.9 0.525C2 -0.175 3.9 -0.175 5.1 0.525L5.1 0.525Z" id="Vector" fill="url(#gradient_6)" fill-rule="evenodd" stroke="none" />
            </g>
            <g id="Group" transform="translate(1.0147401 0.7818553)">
              <path d="M6.00472 1.71675C6.00735 0.777862 4.66633 0.0130038 3.00948 0.00837731C1.35264 0.00375056 0.00736895 0.761107 0.00474716 1.69999C0.0021254 2.63887 1.34314 3.40375 2.99999 3.40837C4.65683 3.413 6.0021 2.65563 6.00472 1.71675L6.00472 1.71675Z" id="Vector" fill="#0CFFFC" fill-rule="evenodd" stroke="none" />
            </g>
            <path d="M6.72501 0.675C5.22501 -0.225 2.725 -0.225 1.125 0.675C-0.375 1.575 -0.375 2.975 1.125 3.875C2.625 4.775 5.12501 4.775 6.72501 3.875C8.32501 3.075 8.32501 1.575 6.72501 0.675L6.72501 0.675ZM6.125 3.575C4.925 4.275 3.125 4.275 1.925 3.575C0.725003 2.875 0.725003 1.775 1.925 1.175C3.125 0.475 4.925 0.475 6.125 1.175C7.225 1.775 7.225 2.875 6.125 3.575L6.125 3.575Z" id="Vector" fill="#BCD0F1" fill-rule="evenodd" stroke="none" />
          </g>
        </g>
        <path d="M7.67674 0L1.67674 0L1.67674 9.5C1.67674 10 1.97674 10.4 2.57674 10.8C3.77673 11.5 5.67675 11.5 6.77675 10.8C7.37675 10.5 7.67674 10 7.67674 9.6L7.67674 0L7.67674 0Z" id="Vector" fill="url(#gradient_7)" fill-rule="evenodd" stroke="none" />
      </g>
      <g id="Group" transform="translate(6.303252 45.025)">
        <g id="Group" transform="translate(0 9.50832)">
          <path d="M9.4075 2.72623C9.41167 1.23506 7.31079 0.0203729 4.71506 0.0131245C2.11933 0.00587606 0.0117036 1.20882 0.00753956 2.69998C0.00337557 4.19114 2.10425 5.40585 4.69998 5.41309C7.29571 5.42034 9.40334 4.21739 9.4075 2.72623L9.4075 2.72623Z" id="Vector" fill="#A6CEFC" fill-rule="evenodd" stroke="none" />
        </g>
        <g id="Group" transform="translate(0.8093271 7.2250023)">
          <path d="M0.0250092 2.275L0.0250092 4.775C0.0250092 5.375 0.425006 5.975 1.22501 6.375C2.72501 7.275 5.225 7.275 6.825 6.375C7.625 5.975 7.925 5.375 7.925 4.775L7.925 2.275L0.0250092 2.275L0.0250092 2.275Z" id="Vector" fill="url(#gradient_8)" fill-rule="evenodd" stroke="none" />
          <g id="Group">
            <g id="Group" transform="translate(0.925003 0.54999536)">
              <path d="M5.10001 0.525C6.30001 1.225 6.30001 2.325 5.10001 2.925C3.90001 3.625 2.1 3.625 0.9 2.925C-0.3 2.225 -0.3 1.125 0.9 0.525C2 -0.175 3.90001 -0.175 5.10001 0.525L5.10001 0.525Z" id="Vector" fill="url(#gradient_9)" fill-rule="evenodd" stroke="none" />
            </g>
            <g id="Group" transform="translate(0.9571688 0.82476395)">
              <path d="M6.00472 1.71674C6.00735 0.777862 4.66633 0.0130041 3.00948 0.00837755C1.35264 0.0037508 0.00736889 0.761107 0.00474713 1.69998C0.00212535 2.63887 1.34314 3.40373 2.99999 3.40835C4.65683 3.41298 6.0021 2.65562 6.00472 1.71674L6.00472 1.71674Z" id="Vector" fill="#0CFFFC" fill-rule="evenodd" stroke="none" />
            </g>
            <path d="M6.72501 0.675C5.22501 -0.225 2.725 -0.225 1.125 0.675C-0.375 1.575 -0.375 2.975 1.125 3.875C2.625 4.775 5.12501 4.775 6.72501 3.875C8.22501 3.075 8.22501 1.575 6.72501 0.675L6.72501 0.675ZM6.02501 3.575C4.82501 4.275 3.025 4.275 1.825 3.575C0.624997 2.875 0.624997 1.775 1.825 1.175C3.025 0.475 4.82501 0.475 6.02501 1.175C7.22501 1.775 7.22501 2.875 6.02501 3.575L6.02501 3.575Z" id="Vector" fill="#BCD0F1" fill-rule="evenodd" stroke="none" />
          </g>
        </g>
        <path d="M7.73433 0L1.73433 0L1.73433 9.5C1.73433 10 2.03432 10.4 2.63432 10.8C3.83432 11.5 5.73434 11.5 6.83434 10.8C7.43434 10.5 7.73433 10 7.73433 9.6L7.73433 0L7.73433 0Z" id="Vector" fill="url(#gradient_10)" fill-rule="evenodd" stroke="none" />
      </g>
      <g id="Group" transform="translate(13.953859 0)">
        <path d="M5.38373 43.825L5.38373 56.125C5.38373 60.225 8.08372 64.325 13.4837 67.425C24.2837 73.625 41.6837 73.625 52.3837 67.425C57.7837 64.325 60.3837 60.225 60.3837 56.125L60.3837 43.825L5.38373 43.825L5.38373 43.825Z" id="Vector" fill="url(#gradient_11)" fill-rule="evenodd" stroke="none" />
        <path d="M45.4838 36.525C52.4838 40.625 52.5837 47.225 45.5838 51.225C38.5838 55.225 27.1838 55.325 20.1837 51.225C13.1837 47.125 13.0837 40.525 20.0837 36.525C27.0838 32.525 38.4838 32.425 45.4838 36.525L45.4838 36.525Z" id="Vector" fill="url(#gradient_12)" fill-rule="evenodd" stroke="none" />
        <path d="M0.053475 43.2646C0.0385475 48.6103 3.76059 53.4133 9.68844 56.8721C15.6227 60.3347 23.8116 62.481 32.8499 62.5062C41.8881 62.5315 50.0889 60.431 56.0424 57.0016C61.9895 53.5759 65.7383 48.7937 65.7532 43.4481C65.7682 38.1024 62.0461 33.2994 56.1183 29.8405C50.184 26.3779 41.9951 24.2316 32.9568 24.2064C23.9186 24.1812 15.7178 26.2817 9.76429 29.7111C3.81721 33.1368 0.0684025 37.9189 0.053475 43.2646L0.053475 43.2646ZM32.8513 62.0062C23.8851 61.9812 15.7859 59.8511 9.94043 56.4403C4.08855 53.0258 0.539253 48.3585 0.553473 43.266C0.567694 38.1735 4.143 33.5261 10.0139 30.1444C15.8783 26.7662 23.9893 24.6814 32.9554 24.7064C41.9216 24.7314 50.0208 26.8616 55.8663 30.2724C61.7182 33.6869 65.2674 38.3542 65.2532 43.4467C65.239 48.5391 61.6637 53.1865 55.7928 56.5683C49.9284 59.9464 41.8174 62.0313 32.8513 62.0062L32.8513 62.0062Z" id="Vector" fill="#0CFFFC" fill-rule="evenodd" stroke="none" />
        <path d="M50.9027 45.9071C50.9187 40.1633 42.8729 35.4846 32.9318 35.4569C22.9907 35.4291 14.9189 40.0628 14.9028 45.8066C14.8868 51.5503 22.9326 56.229 32.8737 56.2568C42.8148 56.2846 50.8867 51.6508 50.9027 45.9071L50.9027 45.9071Z" id="Vector" fill="#0CFFFC" fill-rule="evenodd" stroke="none" />
        <path d="M52.2838 32.625C41.4837 26.425 24.0838 26.425 13.3837 32.625C2.68373 38.825 2.78372 48.925 13.4837 55.125C24.2838 61.325 41.6838 61.325 52.3838 55.125C63.0838 48.925 62.9837 38.825 52.2838 32.625L52.2838 32.625ZM45.5838 51.225C38.5838 55.325 27.1838 55.325 20.1838 51.225C13.1837 47.125 13.0837 40.525 20.0838 36.525C27.0838 32.525 38.4837 32.425 45.4837 36.525C52.5838 40.625 52.5838 47.225 45.5838 51.225L45.5838 51.225Z" id="Vector" fill="#BCD0F1" fill-rule="evenodd" stroke="none" />
        <g id="Group" transform="translate(5.408554 27.925003)">
          <path d="M27.3752 0C20.3752 0 13.2752 1.6 7.97518 4.7C-2.72482 10.9 -2.62483 21 8.07517 27.2C13.4752 30.3 20.4752 31.9 27.5752 31.9C34.6752 31.9 41.6752 30.3 46.9752 27.2C57.6752 21 57.6752 10.9 46.8752 4.7C41.4752 1.6 34.3752 0 27.3752 0L27.3752 0ZM27.3752 0.5C34.6752 0.5 41.4752 2.1 46.5752 5.1C51.6752 8 54.4752 11.9 54.4752 16C54.4752 20.1 51.7752 23.9 46.7752 26.8C41.6752 29.8 34.8752 31.4 27.5752 31.4C20.2752 31.4 13.4752 29.8 8.37517 26.8C3.27517 23.9 0.475178 20 0.475178 15.9C0.475178 11.8 3.17518 8 8.17518 5.1C13.2752 2.1 20.0752 0.5 27.3752 0.5L27.3752 0.5Z" id="Vector" fill="url(#gradient_13)" fill-rule="evenodd" stroke="none" />
        </g>
        <g id="Group" transform="translate(15.683729 18.225002)">
          <g id="Group" transform="translate(1.0999908 0)">
            <path d="M0.5 16.3C0.776139 16.3 1 16.0761 1 15.8C1 15.5239 0.776139 15.3 0.5 15.3C0.223861 15.3 0 15.5239 0 15.8C0 16.0761 0.223861 16.3 0.5 16.3L0.5 16.3Z" id="Vector" fill="#FFFFFF" fill-rule="evenodd" stroke="none" />
            <path d="M24.9 18.1C25.1761 18.1 25.4 17.8761 25.4 17.6C25.4 17.3239 25.1761 17.1 24.9 17.1C24.6238 17.1 24.4 17.3239 24.4 17.6C24.4 17.8761 24.6238 18.1 24.9 18.1L24.9 18.1Z" id="Vector" fill="#FFFFFF" fill-rule="evenodd" stroke="none" />
            <path d="M30.3 15.2C30.5761 15.2 30.8 14.9761 30.8 14.7C30.8 14.4239 30.5761 14.2 30.3 14.2C30.0239 14.2 29.8 14.4239 29.8 14.7C29.8 14.9761 30.0239 15.2 30.3 15.2L30.3 15.2Z" id="Vector" fill="#FFFFFF" fill-rule="evenodd" stroke="none" />
            <path d="M8.4 26C8.67614 26 8.90001 25.7761 8.90001 25.5C8.90001 25.2239 8.67614 25 8.4 25C8.12385 25 7.90001 25.2239 7.90001 25.5C7.90001 25.7761 8.12385 26 8.4 26L8.4 26Z" id="Vector" fill="#FFFFFF" fill-rule="evenodd" stroke="none" />
            <path d="M25.7 6.5C25.9761 6.5 26.2 6.27614 26.2 6C26.2 5.72386 25.9761 5.5 25.7 5.5C25.4239 5.5 25.2 5.72386 25.2 6C25.2 6.27614 25.4239 6.5 25.7 6.5L25.7 6.5Z" id="Vector" fill="#FFFFFF" fill-rule="evenodd" stroke="none" />
            <path d="M3.3 6.8C3.57614 6.8 3.8 6.57614 3.8 6.3C3.8 6.02386 3.57614 5.8 3.3 5.8C3.02386 5.8 2.8 6.02386 2.8 6.3C2.8 6.57614 3.02386 6.8 3.3 6.8L3.3 6.8Z" id="Vector" fill="#FFFFFF" fill-rule="evenodd" stroke="none" />
            <path d="M11.5 1C11.7761 1 12 0.776144 12 0.5C12 0.223857 11.7761 0 11.5 0C11.2239 0 11 0.223857 11 0.5C11 0.776144 11.2239 1 11.5 1L11.5 1Z" id="Vector" fill="#FFFFFF" fill-rule="evenodd" stroke="none" />
          </g>
          <g id="Group" transform="translate(0 2.8999996)">
            <path d="M0.714289 10.7L0.285711 10.7C0.142853 10.7 0 10.7 0 10.8L0 21.2C0 21.3 0.142853 21.4 0.285711 21.4L0.714289 21.4C0.857147 21.4 1 21.3 1 21.2L1 10.9C1 10.8 0.857147 10.7 0.714289 10.7L0.714289 10.7Z" id="矩形_32_12_" fill="url(#gradient_14)" fill-opacity="0.4" fill-rule="evenodd" stroke="none" />
            <path d="M33.9857 7.1L34.4143 7.1C34.5571 7.1 34.7 7.2 34.7 7.3L34.7 17.6C34.7 17.7 34.5571 17.8 34.4143 17.8L33.9857 17.8C33.8428 17.8 33.7 17.7 33.7 17.6L33.7 7.3C33.7 7.2 33.8428 7.1 33.9857 7.1L33.9857 7.1Z" id="矩形_32_11_" fill="url(#gradient_15)" fill-opacity="0.4" fill-rule="evenodd" stroke="none" />
            <path d="M10.8143 14L10.3857 14C10.2428 14 10.1 14.1 10.1 14.2L10.1 24.5C10.1 24.6 10.2428 24.7 10.3857 24.7L10.8143 24.7C10.9571 24.7 11.1 24.6 11.1 24.5L11.1 14.2C11.1 14.1 10.9571 14 10.8143 14L10.8143 14Z" id="矩形_32_10_" fill="url(#gradient_16)" fill-opacity="0.4" fill-rule="evenodd" stroke="none" />
            <path d="M10.8143 0L10.3857 0C10.2428 0 10.1 0.0999989 10.1 0.199999L10.1 10.5C10.1 10.6 10.2428 10.7 10.3857 10.7L10.8143 10.7C10.9571 10.7 11.1 10.6 11.1 10.5L11.1 0.199999C11.1 0.0999989 10.9571 0 10.8143 0L10.8143 0Z" id="矩形_32_9_" fill="url(#gradient_17)" fill-opacity="0.4" fill-rule="evenodd" stroke="none" />
          </g>
        </g>
        <path d="M58.8837 15.025C58.8837 11.125 56.2837 7.325 51.1837 4.425C40.9837 -1.475 24.5837 -1.475 14.4837 4.425C9.38371 7.325 6.88372 11.225 6.98372 15.025L14.9837 43.825C14.9837 46.525 16.7837 49.125 20.2837 51.225C27.2837 55.325 38.6837 55.325 45.6837 51.225C49.1837 49.225 50.8837 46.525 50.8837 43.825L58.8837 15.025L58.8837 15.025Z" id="Vector" fill="url(#gradient_18)" fill-rule="evenodd" stroke="none" />
        <g id="Group" transform="translate(11.505166 61.725)">
          <g id="Group">
            <path d="M1.57856 2.4L2.27855 2C2.37855 1.9 2.47855 1.7 2.47855 1.5C2.47855 1 2.07856 0.400006 1.67856 0.100006C1.47856 6.10203e-06 1.27856 0 1.07856 0L0.37856 0.400002L1.57856 2.4L1.57856 2.4Z" id="Vector" fill="url(#gradient_19)" fill-rule="evenodd" stroke="none" />
            <g id="Group" transform="translate(0 0.13344002)">
              <path d="M1.61513 2.20687C1.90257 2.04199 1.89053 1.48113 1.58825 0.95416C1.28596 0.42719 0.807894 0.133666 0.520456 0.29855C0.233019 0.463433 0.245051 1.02429 0.547338 1.55126C0.849622 2.07823 1.32769 2.37175 1.61513 2.20687L1.61513 2.20687Z" id="Vector" fill="#2185F8" fill-rule="evenodd" stroke="none" />
            </g>
            <g id="Group" transform="translate(0.37251043 0.48039794)">
              <path d="M1.13032 1.46318C1.36986 1.32577 1.40809 0.942537 1.21572 0.60719C1.02336 0.271847 0.673244 0.111385 0.433709 0.24879C0.194174 0.386195 0.15594 0.769427 0.348304 1.10477C0.54067 1.44012 0.890786 1.60058 1.13032 1.46318L1.13032 1.46318Z" id="Vector" fill="#0CFFFC" fill-rule="evenodd" stroke="none" />
            </g>
          </g>
          <g id="Group" transform="translate(3.2214353 1.800003)">
            <path d="M1.65713 2.4L2.35712 2C2.45712 1.9 2.55712 1.7 2.55712 1.5C2.55712 1 2.15712 0.399998 1.75712 0.0999985C1.55712 -1.52737e-06 1.35712 0 1.15712 0L0.457127 0.400002L1.65713 2.4L1.65713 2.4Z" id="Vector" fill="url(#gradient_20)" fill-rule="evenodd" stroke="none" />
            <g id="Group" transform="translate(0 0.2704003)">
              <path d="M1.61512 2.20687C1.90256 2.04199 1.89052 1.48113 1.58824 0.95416C1.28595 0.42719 0.80788 0.133669 0.520443 0.298552C0.233006 0.463436 0.245051 1.02429 0.547338 1.55126C0.849622 2.07822 1.32768 2.37176 1.61512 2.20687L1.61512 2.20687Z" id="Vector" fill="#2185F8" fill-rule="evenodd" stroke="none" />
            </g>
            <g id="Group" transform="translate(0.37251052 0.61735326)">
              <path d="M1.13031 1.46317C1.36984 1.32577 1.40809 0.942537 1.21572 0.60719C1.02336 0.271847 0.673231 0.111392 0.433701 0.248794C0.194171 0.386197 0.15594 0.769427 0.348304 1.10477C0.54067 1.44012 0.890777 1.60057 1.13031 1.46317L1.13031 1.46317Z" id="Vector" fill="#FFE200" fill-rule="evenodd" stroke="none" />
            </g>
          </g>
        </g>
      </g>
      <g id="Group" transform="translate(42.070953 65.925)">
        <g id="Group" transform="translate(0 9.398083)">
          <path d="M9.40749 2.72623C9.41166 1.23506 7.31079 0.0203729 4.71506 0.0131245C2.11933 0.00587606 0.0117036 1.20882 0.00753956 2.69998C0.00337557 4.19114 2.10425 5.40585 4.69998 5.41309C7.29571 5.42034 9.40333 4.21739 9.40749 2.72623L9.40749 2.72623Z" id="Vector" fill="#A6CEFC" fill-rule="evenodd" stroke="none" />
        </g>
        <g id="Group" transform="translate(0.7416239 7.1249924)">
          <path d="M0.125 2.27501L0.125 4.77501C0.125 5.37501 0.525012 5.97501 1.32501 6.37501C2.82501 7.27501 5.325 7.27501 6.925 6.37501C7.725 5.97501 8.02501 5.37501 8.02501 4.77501L8.02501 2.27501L0.125 2.27501L0.125 2.27501Z" id="Vector" fill="url(#gradient_21)" fill-rule="evenodd" stroke="none" />
          <g id="Group">
            <g id="Group" transform="translate(1.0250092 0.62500757)">
              <path d="M5.1 0.45C6.3 1.15 6.3 2.25 5.1 2.85C3.9 3.45 2.1 3.55 0.9 2.85C-0.3 2.15 -0.3 1.05 0.9 0.45C2 -0.15 3.9 -0.15 5.1 0.45L5.1 0.45Z" id="Vector" fill="url(#gradient_22)" fill-rule="evenodd" stroke="none" />
            </g>
            <g id="Group" transform="translate(1.0248568 0.81443375)">
              <path d="M6.00472 1.71674C6.00735 0.777862 4.66633 0.0130041 3.00948 0.00837755C1.35264 0.0037508 0.00736889 0.761107 0.00474713 1.69998C0.00212535 2.63887 1.34314 3.40373 2.99999 3.40835C4.65683 3.41298 6.0021 2.65562 6.00472 1.71674L6.00472 1.71674Z" id="Vector" fill="#0CFFFC" fill-rule="evenodd" stroke="none" />
            </g>
            <path d="M6.72501 0.675C5.22501 -0.225 2.725 -0.225 1.125 0.675C-0.375 1.575 -0.375 2.975 1.125 3.875C2.625 4.775 5.12501 4.775 6.72501 3.875C8.32501 3.075 8.32501 1.575 6.72501 0.675L6.72501 0.675ZM6.125 3.575C4.925 4.275 3.125 4.275 1.925 3.575C0.725003 2.875 0.725003 1.775 1.925 1.175C3.125 0.475 4.925 0.475 6.125 1.175C7.225 1.775 7.225 2.875 6.125 3.575L6.125 3.575Z" id="Vector" fill="#BCD0F1" fill-rule="evenodd" stroke="none" />
          </g>
        </g>
        <path d="M7.76663 0L1.76663 0L1.76663 9.5C1.76663 10 2.06663 10.4 2.66663 10.8C3.86662 11.5 5.76662 11.5 6.86662 10.8C7.46662 10.5 7.76663 10 7.76663 9.6L7.76663 0L7.76663 0Z" id="Vector" fill="url(#gradient_23)" fill-rule="evenodd" stroke="none" />
      </g>
      <g id="Group" transform="translate(29.037582 1.5250006)">
        <path d="M13.6 0L9.4 2.5L14.9 5.7L15.7 8.3L12.2 10.3L9 17.5L11.9 19.2L7.9 21.5L5.7 26.2L9.9 23.7L12 19.2L15.4 21.1L18.9 19L24.1 36.7L28.3 34.2L19.1 3L13.6 0L13.6 0ZM13.1 15L15.8 9L18.5 18.2L13.1 15L13.1 15Z" id="Vector" fill="url(#gradient_24)" fill-rule="evenodd" stroke="none" />
        <path d="M30.8 10L26.6 12.4L31.3 15.2L31.3 41L35.5 38.5L35.6 12.7L30.8 10L30.8 10Z" id="Vector" fill="url(#gradient_25)" fill-rule="evenodd" stroke="none" />
        <g id="Group" transform="translate(0 2.5)">
          <path d="M9.39999 0L0 20.4L5.60001 23.6L7.8 18.9L16.3 23.8L18.5 31L24.1 34.2L14.9 3L9.39999 0L9.39999 0ZM8.89999 15L12.1 7.8L15.3 18.7L8.89999 15L8.89999 15Z" id="Vector" fill="url(#gradient_26)" fill-rule="evenodd" stroke="none" />
          <path d="M26.6 9.9L26.5 35.7L31.3 38.5L31.3 12.7L26.6 9.9L26.6 9.9Z" id="Vector" fill="url(#gradient_27)" fill-rule="evenodd" stroke="none" />
        </g>
        <g id="Group" transform="translate(0 2.5)">
          <g id="Group">
            <path d="M9.39999 0L0 20.4L5.60001 23.6L7.8 18.9L16.3 23.8L18.5 31L24.1 34.2L14.9 3L9.39999 0L9.39999 0ZM9.5 0.4L14.7 3.4L23.7 33.9L18.7 31L16.6 23.9L16.6 23.8L16.5 23.8L8 18.9L7.8 18.8L7.7 19L5.60001 23.4L0.399994 20.4L9.5 0.4L9.5 0.4ZM15.5 18.6L12.3 7.7L12.1 7L11.8 7.6L8.60001 14.8L8.5 15L8.7 15.1L15.1 18.8L15.7 19.2L15.5 18.6L15.5 18.6ZM15.3 18.7L8.89999 15L12.1 7.8L15.3 18.7L15.3 18.7Z" id="Vector" fill="url(#gradient_28)" fill-rule="evenodd" stroke="none" />
          </g>
          <g id="Group" transform="translate(26.5 9.9)">
            <path d="M0.100006 0L0 25.8L4.8 28.6L4.89999 2.8L0.100006 0L0.100006 0ZM0.300003 0.5L4.60001 3L4.5 28.2L0.199997 25.7L0.300003 0.5L0.300003 0.5Z" id="Vector" fill="url(#gradient_29)" fill-rule="evenodd" stroke="none" />
          </g>
        </g>
        <path d="M9.39999 2.5L14.8 5.7L19.1 3.2L13.6 0L9.39999 2.5L9.39999 2.5Z" id="Vector" fill="url(#gradient_30)" fill-rule="evenodd" stroke="none" />
        <path d="M8.89999 17.5L12.1 10.3L13.3 14.5L13.1 15L8.89999 17.5L8.89999 17.5Z" id="Vector" fill="url(#gradient_31)" fill-rule="evenodd" stroke="none" />
        <path d="M8.89999 17.5L13.1 15L13.5 15.3L15.3 21.2L8.89999 17.5L8.89999 17.5Z" id="Vector" fill="url(#gradient_32)" fill-rule="evenodd" stroke="none" />
        <path d="M26.6 12.4L31.3 15.2L35.6 12.7L30.8 10L26.6 12.4L26.6 12.4Z" id="Vector" fill="url(#gradient_33)" fill-rule="evenodd" stroke="none" />
        <path d="M14.8 5.7L19.1 3.2L19.1 3.4L14.9 5.9L14.8 5.7L14.8 5.7Z" id="Vector" fill="url(#gradient_34)" fill-rule="evenodd" stroke="none" />
        <path d="M8.89999 17.5L13.1 15L13.2 15.1L9 17.6L8.89999 17.5L8.89999 17.5Z" id="Vector" fill="url(#gradient_35)" fill-rule="evenodd" stroke="none" />
        <path d="M31.3 15.2L31.3 15.4L35.6 12.9L35.6 12.7L31.3 15.2L31.3 15.2Z" id="Vector" fill="url(#gradient_36)" fill-rule="evenodd" stroke="none" />
      </g>
      <g id="Group" transform="translate(5.037582 3.9856129)">
        <path d="M4.76837e-07 10.4394C4.76837e-07 11.2394 0.299997 11.8394 0.699997 12.0394L1.8 12.6394C1.8 12.6394 12.8 4.43939 12.8 3.03939C12.8 3.03939 12.8 2.53939 12.7 2.23939C12.9 2.13939 13.2 2.03939 13.2 2.03939C13 1.93939 12.4 1.53939 12.1 1.43939C11.7 1.33939 11 1.53939 10.8 1.63939C10.8 1.33939 10.7 1.03939 10.6 0.839388L11.1 0.739387L10.1 0.139388C9.70001 -0.0606121 9.2 -0.0606126 8.7 0.239387C8.4 0.439387 8.2 0.639388 8 0.839388C8 0.839388 7.5 0.539388 7.2 0.339388C6.9 0.139388 6.6 0.139388 6.3 0.139388L5.8 0.139388C5.5 0.239388 5.19999 0.339388 4.89999 0.539388C3.69999 1.23939 2.6 2.63939 2 4.33939C1.6 5.33939 1.29999 6.63939 1.39999 7.33939C0.199994 8.53939 4.76837e-07 9.33939 4.76837e-07 10.4394L4.76837e-07 10.4394Z" id="路径_1684_30_" fill="url(#gradient_37)" fill-rule="evenodd" stroke="none" />
        <path d="M1.2 11.1394C1.2 12.5394 2.1 13.2394 3.2 12.6394C3.2 12.6394 3.30001 12.6394 3.30001 12.5394L12 7.43939C12 7.43939 12.1 7.43939 12.1 7.33939C13.2 6.73939 14 5.03939 14 3.63939C14 2.23939 13.1 1.53939 12 2.13939L11.9 2.13939C11.8 0.639387 10.9 0.0393875 9.7 0.739388C9.4 0.939388 9.10001 1.23939 8.80001 1.53939C8.20001 0.639387 7.1 0.439388 5.9 1.13939C4 2.23939 2.4 5.23939 2.5 7.83939C1.7 8.73939 1.2 10.0394 1.2 11.1394L1.2 11.1394Z" id="路径_1685_30_" fill="#F3F8FE" fill-rule="evenodd" stroke="none" />
        <path d="M12 7.33939C13.1 6.73939 13.9 5.03939 13.9 3.63939C13.9 2.23939 13 1.53939 11.9 2.13939L11.8 2.13939C11.7 0.639387 10.8 0.0393875 9.60001 0.739388C9.30001 0.939388 9 1.23939 8.7 1.53939C8.1 0.639387 7.00001 0.439388 5.8 1.13939L5.7 1.23939L10.3 8.33939L11.8 7.43939C11.9227 7.43939 11.9701 7.43939 11.9885 7.4163C12 7.40175 12 7.37805 12 7.3394L12 7.33939L12 7.33939Z" id="Vector" fill="url(#gradient_38)" fill-rule="evenodd" stroke="none" />
      </g>
      <g id="Group" transform="translate(79.03758 11.959315)">
        <path d="M8.30001 6.36568C8.30001 6.86568 8.1 7.16569 7.9 7.26569L7.30001 7.66569C7.30001 7.66569 0.800003 2.86568 0.800003 1.96568C0.800003 1.96568 0.799994 1.66568 0.899994 1.46568C0.799994 1.46568 0.600006 1.36568 0.600006 1.36568C0.700006 1.26568 1.1 1.06568 1.2 0.965685C1.4 0.865685 1.9 0.965685 2 1.06569C2 0.865685 2.00001 0.765685 2.10001 0.565685L1.80001 0.465685L2.4 0.0656853C2.6 -0.0343147 2.90001 -0.0343143 3.30001 0.165686C3.50001 0.265686 3.6 0.365685 3.7 0.565685C3.7 0.565685 4 0.365686 4.2 0.265686C4.4 0.165686 4.60001 0.165686 4.80001 0.165686L5.10001 0.165686C5.30001 0.165686 5.50001 0.265685 5.60001 0.365685C6.30001 0.765684 7.00001 1.66569 7.30001 2.56569C7.50001 3.16569 7.70001 3.86568 7.60001 4.36568C8.20001 5.26568 8.30001 5.66568 8.30001 6.36568L8.30001 6.36568Z" id="路径_1684_29_" fill="url(#gradient_39)" fill-rule="evenodd" stroke="none" />
        <path d="M7.60001 6.76568C7.60001 7.56568 7.09999 7.96568 6.39999 7.66568L6.3 7.66568L1.2 4.66568L1.10001 4.66568C0.500006 4.26568 0 3.26568 0 2.46568C0 1.66568 0.499997 1.26569 1.2 1.56568C1.2 0.665685 1.8 0.265685 2.5 0.665685C2.7 0.765685 2.9 0.965685 3 1.06569C3.4 0.565685 4 0.365684 4.7 0.865684C5.8 1.56568 6.8 3.36568 6.7 4.86568C7.3 5.36568 7.60001 6.06568 7.60001 6.76568L7.60001 6.76568Z" id="路径_1685_29_" fill="#F3F8FE" fill-rule="evenodd" stroke="none" />
        <path d="M1.2 4.56568C0.599997 4.16568 0.100006 3.16568 0.100006 2.36568C0.100006 1.56568 0.600003 1.16569 1.30001 1.46568C1.30001 0.565685 1.90001 0.165685 2.60001 0.565685C2.80001 0.665685 3.00001 0.865685 3.10001 0.965685C3.50001 0.465685 4.10001 0.265686 4.80001 0.765686L4.9 0.865684L2.2 5.06568L1.2 4.56568L1.2 4.56568Z" id="Vector" fill="url(#gradient_40)" fill-rule="evenodd" stroke="none" />
      </g>
    </g>
  </g>
</svg>