<?xml version="1.0" encoding="utf-8"?>
<svg width="100px" height="100px" viewBox="0 0 100 100" version="1.1" xmlns:xlink="http://www.w3.org/1999/xlink" xmlns="http://www.w3.org/2000/svg">
  <defs>
    <linearGradient gradientUnits="objectBoundingBox" x1="-0.0007019231" y1="0.50000334" x2="0.9996944" y2="0.50000334" id="gradient_1">
      <stop offset="0%" stop-color="#92A6F1" />
      <stop offset="100%" stop-color="#FFFFFF" />
    </linearGradient>
    <linearGradient gradientUnits="objectBoundingBox" x1="0.00036581472" y1="0.5006417" x2="0.9981278" y2="0.5006417" id="gradient_2">
      <stop offset="33.75%" stop-color="#97B5E1" />
      <stop offset="59.320004%" stop-color="#E8F1FF" />
    </linearGradient>
    <linearGradient gradientUnits="objectBoundingBox" x1="0.9956919" y1="0.57732594" x2="0.004600455" y2="0.42190057" id="gradient_3">
      <stop offset="0%" stop-color="#FFFFFF" />
      <stop offset="100%" stop-color="#C9D9F4" />
    </linearGradient>
    <linearGradient gradientUnits="objectBoundingBox" x1="0.9946921" y1="0.5794124" x2="0.0019975817" y2="0.42389417" id="gradient_4">
      <stop offset="0%" stop-color="#FFFFFF" />
      <stop offset="100%" stop-color="#C9D9F4" />
    </linearGradient>
    <linearGradient gradientUnits="objectBoundingBox" x1="0.88232595" y1="-0.044188168" x2="0.353696" y2="0.9962917" id="gradient_5">
      <stop offset="0%" stop-color="#97B5E1" />
      <stop offset="100%" stop-color="#E8F1FF" />
    </linearGradient>
    <linearGradient gradientUnits="objectBoundingBox" x1="0.9508061" y1="0.33256304" x2="0.055538815" y2="0.6684622" id="gradient_6">
      <stop offset="0%" stop-color="#FFFFFF" />
      <stop offset="100%" stop-color="#FFFFFF" stop-opacity="0.2" />
    </linearGradient>
    <linearGradient gradientUnits="objectBoundingBox" x1="-0.17085606" y1="0.8595264" x2="0.66693187" y2="0.18935154" id="gradient_7">
      <stop offset="0%" stop-color="#97B5E1" />
      <stop offset="100%" stop-color="#ECF1FA" />
    </linearGradient>
    <linearGradient gradientUnits="objectBoundingBox" x1="1.0810488" y1="0.7882405" x2="-0.18867074" y2="0.04130356" id="gradient_8">
      <stop offset="0%" stop-color="#FFFFFF" />
      <stop offset="100%" stop-color="#C9D9F4" />
    </linearGradient>
    <linearGradient gradientUnits="objectBoundingBox" x1="1.1702857" y1="0.8634956" x2="0.32114285" y2="0.21016851" id="gradient_9">
      <stop offset="0%" stop-color="#97B5E1" />
      <stop offset="100%" stop-color="#ECF1FA" />
    </linearGradient>
    <linearGradient gradientUnits="objectBoundingBox" x1="-0.09029165" y1="0.8008615" x2="1.1921667" y2="0.052233934" id="gradient_10">
      <stop offset="0%" stop-color="#FFFFFF" />
      <stop offset="100%" stop-color="#C9D9F4" />
    </linearGradient>
    <linearGradient gradientUnits="objectBoundingBox" x1="0.012090908" y1="0.47009835" x2="1.0210909" y2="0.47009835" id="gradient_11">
      <stop offset="0%" stop-color="#103DB5" />
      <stop offset="64.26%" stop-color="#6BABFD" />
    </linearGradient>
    <linearGradient gradientUnits="objectBoundingBox" x1="-0.018" y1="0.4712131" x2="0.991" y2="0.4712131" id="gradient_12">
      <stop offset="0%" stop-color="#103DB5" />
      <stop offset="64.26%" stop-color="#6BABFD" />
    </linearGradient>
    <linearGradient gradientUnits="objectBoundingBox" x1="-0.11639188" y1="0.65445364" x2="0.9281216" y2="0.32334536" id="gradient_13">
      <stop offset="0%" stop-color="#103DB5" />
      <stop offset="64.26%" stop-color="#6BABFD" />
    </linearGradient>
    <linearGradient gradientUnits="objectBoundingBox" x1="-0.8044286" y1="1.2780782" x2="0.9098572" y2="0.48501906" id="gradient_14">
      <stop offset="0%" stop-color="#FF8000" />
      <stop offset="100%" stop-color="#FFD000" />
    </linearGradient>
    <linearGradient gradientUnits="objectBoundingBox" x1="-0.22901201" y1="1.4509652" x2="0.69515663" y2="0.15958138" id="gradient_15">
      <stop offset="0%" stop-color="#FF8000" />
      <stop offset="100%" stop-color="#FFD000" />
    </linearGradient>
  </defs>
  <g id="rpg_build_2x">
    <path d="M100 0L100 0L100 100L0 100L0 0L100 0Z" id="rpg_build_2x" fill="none" stroke="none" />
    <g id="worker" transform="translate(3.1624146 6.4999924)">
      <g id="Group" transform="translate(0 29.25)">
        <g id="Group" transform="translate(0 9.400009)" opacity="0.4">
          <path d="M89.1376 20.95C95.0376 24.35 95.0376 29.85 89.2376 33.25L57.5376 51.65C51.7376 55.05 42.2376 55.05 36.3376 51.65L4.43758 33.25C-1.46242 29.85 -1.46242 24.35 4.33758 20.95L36.0376 2.55C41.8376 -0.85 51.3376 -0.85 57.2376 2.55L89.1376 20.95L89.1376 20.95Z" id="Vector" fill="#00357C" fill-opacity="0.4" fill-rule="evenodd" stroke="none" />
        </g>
        <g id="Group">
          <path d="M93.6376 27.15L0.0375824 27.15L0.0375824 30.45C0.0375824 32.65 1.53757 34.85 4.43757 36.55L36.3376 54.95C42.2376 58.35 51.7376 58.35 57.5376 54.95L89.2376 36.55C92.1376 34.85 93.6376 32.65 93.6376 30.45L93.6376 27.15L93.6376 27.15Z" id="Vector" fill="url(#gradient_1)" fill-rule="evenodd" stroke="none" />
          <g id="Group">
            <path d="M89.1376 20.95C95.0376 24.35 95.0376 29.85 89.2376 33.25L57.5376 51.65C51.7376 55.05 42.2376 55.05 36.3376 51.65L4.43758 33.25C-1.46242 29.85 -1.46242 24.35 4.33758 20.95L36.0376 2.55C41.8376 -0.85 51.3376 -0.85 57.2376 2.55L89.1376 20.95L89.1376 20.95Z" id="Vector" fill="#F3F8FE" fill-rule="evenodd" stroke="none" />
          </g>
        </g>
      </g>
      <g id="Group" transform="translate(8.674988 34.325012)">
        <path d="M46.7852 2.05711C44.3391 0.681196 41.1694 0 38.0251 0C34.8811 0 31.7353 0.681104 29.3381 2.05822L29.3372 2.05872L3.63808 16.9582L3.63722 16.9587C1.24041 18.3358 -0.0132251 20.2062 0.000105232 22.1267C0.0134352 24.0473 1.2931 25.9165 3.74004 27.2929L29.4378 42.0917L29.44 42.0929C31.8861 43.4688 35.0558 44.15 38.2001 44.15C41.3441 44.15 44.4899 43.4689 46.8871 42.0918L46.888 42.0913L72.5871 27.1918L72.588 27.1913C74.9848 25.8141 76.2384 23.9438 76.2251 22.0233C76.2117 20.1033 74.9329 18.2346 72.4874 16.8584L72.4852 16.8571L46.7874 2.05834L46.7852 2.05711L46.7852 2.05711ZM29.588 2.49127C31.8907 1.16872 34.9445 0.5 38.0251 0.5C41.1048 0.5 44.1842 1.16839 46.5378 2.49164L46.54 2.4929L72.2378 17.2917L72.24 17.2929C74.5931 18.6165 75.7134 20.3473 75.7251 22.0267C75.7368 23.706 74.6407 25.4354 72.3381 26.7582L72.3372 26.7587L46.6381 41.6582L46.6372 41.6587C44.3345 42.9813 41.2807 43.65 38.2001 43.65C35.1204 43.65 32.041 42.9816 29.6874 41.6584L29.6852 41.6571L3.98735 26.8584L3.86401 27.0725L3.98735 26.8583L3.98515 26.8571C1.63207 25.5335 0.51175 23.8027 0.500093 22.1233C0.488437 20.444 1.58452 18.7146 3.88714 17.3918L3.888 17.3913L29.5871 2.4918L29.588 2.49127L29.588 2.49127Z" id="Vector" fill="#0CFFFC" fill-rule="evenodd" stroke="none" />
      </g>
      <g id="Group" transform="translate(15.512604 3.8750002)">
        <path d="M62.625 18.025L0.0249636 18.025L0.0249636 51.325C0.0249636 52.825 1.02496 54.325 3.02496 55.425L24.325 67.725C28.225 70.025 34.625 70.025 38.525 67.725L59.725 55.425C61.625 54.325 62.625 52.825 62.625 51.325L62.625 18.025L62.625 18.025Z" id="Vector" fill="url(#gradient_2)" fill-rule="evenodd" stroke="none" />
        <path d="M59.525 14.025C63.425 16.325 63.425 19.925 59.625 22.225L38.425 34.525C34.525 36.825 28.225 36.825 24.225 34.525L2.925 22.225C-0.975 19.925 -0.975 16.325 2.925 14.025L24.125 1.725C28.025 -0.575 34.325 -0.575 38.225 1.725L59.525 14.025L59.525 14.025Z" id="Vector" fill="#BCD0F1" fill-rule="evenodd" stroke="none" />
        <g id="Group" transform="translate(0 0.025009036)">
          <path d="M31.225 0C28.625 0 26.125 0.599997 24.125 1.7L2.925 14C-0.975 16.3 -0.975 19.9 2.925 22.2L24.225 34.5C26.225 35.6 28.725 36.2 31.325 36.2C33.925 36.2 36.425 35.6 38.425 34.5L59.625 22.2C63.525 19.9 63.525 16.3 59.525 14L38.225 1.7C36.325 0.599997 33.725 0 31.225 0L31.225 0ZM31.225 0.399994L31.225 0.5C33.825 0.5 36.225 1.10001 38.025 2.10001L59.325 14.4C61.025 15.4 62.025 16.7 62.025 18.1C62.025 19.5 61.125 20.8 59.325 21.7L38.125 34C36.325 35.1 33.925 35.6 31.325 35.6C28.725 35.6 26.325 35 24.525 34L3.22499 21.7C1.52499 20.7 0.524976 19.4 0.524976 18C0.524976 16.6 1.42499 15.3 3.22499 14.3L24.425 2C26.225 0.9 28.625 0.399994 31.225 0.399994L31.225 0.399994Z" id="Vector" fill="url(#gradient_3)" fill-rule="evenodd" stroke="none" />
        </g>
        <g id="Group" transform="translate(7.7123423 4.325012)">
          <path d="M23.5126 0C21.6126 0 19.6127 0.400003 18.2127 1.3L2.21266 10.6C-0.787341 12.3 -0.687341 15.1 2.21266 16.8L18.3126 26.1C19.8126 27 21.7127 27.4 23.7127 27.4C25.6127 27.4 27.6127 27 29.1127 26.1L45.1127 16.8C48.0127 15.1 48.0127 12.3 45.1127 10.6L29.0126 1.3C27.4126 0.500003 25.4126 0 23.5126 0L23.5126 0ZM23.5126 0.199997C25.5126 0.199997 27.3127 0.6 28.7127 1.5L44.8126 10.8C46.2126 11.6 46.9126 12.6 46.9126 13.7C46.9126 14.8 46.2126 15.8 44.8126 16.6L28.8126 25.9C27.4126 26.7 25.6127 27.2 23.6127 27.2C21.6127 27.2 19.8126 26.8 18.4126 25.9L2.31263 16.6C0.912634 15.8 0.212659 14.8 0.212659 13.7C0.212659 12.6 0.912634 11.6 2.31263 10.8L18.3126 1.5C19.7126 0.7 21.5126 0.199997 23.5126 0.199997L23.5126 0.199997Z" id="Vector" fill="url(#gradient_4)" fill-rule="evenodd" stroke="none" />
        </g>
      </g>
      <g id="Group" transform="translate(14.437592 30.300003)">
        <g id="Group" transform="translate(3.5 2.1698298)">
          <g id="Group">
            <path d="M20.5 10.5302C22 11.4302 23.2 13.5302 23.2 15.2302L23.1 33.7302C23.1 35.4302 21.9 36.1302 20.4 35.3302L2.69998 25.1302C1.19998 24.2302 0 22.1302 0 20.4302L0.0999756 1.93018C0.0999756 0.230181 1.29999 -0.469825 2.79999 0.330175L20.5 10.5302L20.5 10.5302Z" id="Vector" fill="#F3F8FE" fill-rule="evenodd" stroke="none" />
            <g id="Clip-path-group">
              <path d="M20.5 10.5302C22 11.4302 23.2 13.5302 23.2 15.2302L23.1 33.7302C23.1 35.4302 21.9 36.1302 20.4 35.3302L2.69998 25.1302C1.19998 24.2302 0 22.1302 0 20.4302L0.0999756 1.93018C0.0999756 0.230181 1.29999 -0.469825 2.79999 0.330175L20.5 10.5302L20.5 10.5302Z" id="Vector" fill="#F3F8FE" fill-rule="evenodd" stroke="none" />
            </g>
          </g>
          <path d="M23.1 33.7302L23.2 15.2302C23.2 13.6302 22.2 11.7302 20.8 10.8302L0.5 22.6302C1 23.6302 1.79998 24.6302 2.69998 25.1302L20.4 35.3302C21.9 36.1302 23.1 35.4302 23.1 33.7302L23.1 33.7302Z" id="Vector" fill="url(#gradient_5)" fill-rule="evenodd" stroke="none" />
          <g id="Group" transform="translate(3.5 3.6301732)">
            <path d="M5 0L0.699982 2.5C0.299982 2.7 0 3.3 0 3.7L0 13.5C0 13.9 0.299982 14.1 0.699982 13.9L14.9 5.7L5 0L5 0Z" id="Vector" fill="#1964BA" fill-rule="evenodd" stroke="none" />
            <path d="M5.5 0.300003L1.19998 2.8C0.799982 3 0.5 3.6 0.5 4L0.5 13.8C0.5 14.2 0.799982 14.4 1.19998 14.2L15.4 6L5.5 0.300003L5.5 0.300003Z" id="Vector" fill="#C9D9F4" fill-rule="evenodd" stroke="none" />
            <g id="Group" transform="translate(3.2999878 2.5607758)">
              <path d="M0.499975 0.0503957C0.833305 -0.0780632 1 0.0503919 1 0.30731C1 0.564228 0.833305 0.821145 0.499975 0.949604C0.166645 1.07806 0 0.949608 0 0.69269C0.166665 0.564231 0.33331 0.178855 0.499975 0.0503957L0.499975 0.0503957Z" id="Vector" fill="#FFFFFF" fill-rule="evenodd" stroke="none" />
            </g>
            <path d="M2 6C1.9 6.1 1.79999 6.20001 1.79999 6.30001L1.79999 12.5C1.79999 12.6 1.9 12.7 2 12.6L9.79999 8.10001C9.89999 8.00001 10 7.90001 10 7.80001L10 3L8.59998 2.2L2 6L2 6Z" id="Vector" fill="#FFFFFF" fill-opacity="0.8" fill-rule="evenodd" stroke="none" />
            <g id="Group" transform="translate(1.3999939 3.6607666)">
              <path d="M0.499975 0.0503916C0.833305 -0.0780656 1 0.0504073 1 0.307322C1 0.564237 0.833305 0.821151 0.499975 0.949609C0.166645 1.07807 0 0.949592 0 0.692677C0.166665 0.56422 0.33331 0.178848 0.499975 0.0503916L0.499975 0.0503916Z" id="Vector" fill="#FFFFFF" fill-rule="evenodd" stroke="none" />
            </g>
            <g id="Group" transform="translate(2.399994 3.1607666)">
              <path d="M0.499975 0.0503916C0.833305 -0.0780656 1 0.0504073 1 0.307322C1 0.564237 0.833305 0.821151 0.499975 0.949609C0.166645 1.07807 0 0.949592 0 0.692677C9.47381e-14 0.435763 0.166645 0.178848 0.499975 0.0503916L0.499975 0.0503916Z" id="Vector" fill="#FFFFFF" fill-rule="evenodd" stroke="none" />
            </g>
            <g id="组_454_2_" transform="translate(2.8909607 3.6620026)">
              <g id="组_445_2_" transform="translate(0 1.2990112)">
                <path d="M3.3 1.20001L0.100006 3L0 3C0 3 6.10203e-06 2.90003 0.100006 2.90003L3.3 1.09998L3.40001 1.09998L3.3 1.20001L3.3 1.20001Z" id="路径_3132_2_" fill="#6491FB" fill-rule="evenodd" stroke="none" />
                <path d="M5.20001 0.111081L3.8 1L3.70001 1C3.70001 1 3.7 0.888852 3.8 0.888852L5.20001 0L5.3 0L5.20001 0.111081L5.20001 0.111081Z" id="路径_3133_2_" fill="#FF9999" fill-rule="evenodd" stroke="none" />
              </g>
              <g id="组_446_2_" transform="translate(0 1.8589478)">
                <path d="M3.3 1.10004L1.60001 2.10004L1.5 2.10004C1.5 2.10004 1.50001 2 1.60001 2L3.3 1L3.40001 1C3.40001 1.1 3.3 1.10004 3.3 1.10004L3.3 1.10004Z" id="路径_3134_2_" fill="#FF9999" fill-rule="evenodd" stroke="none" />
                <path d="M1.20001 2.32498L0.100006 3.20001L0 3.20001C0 3.20001 6.10203e-06 3.07504 0.100006 3.07504L1.20001 2.20001L1.30002 2.20001C1.30002 2.32498 1.30001 2.32498 1.20008 2.32498L1.20001 2.32498L1.20001 2.32498Z" id="路径_3135_2_" fill="#FF9999" fill-rule="evenodd" stroke="none" />
                <path d="M5.20001 0.111149L3.8 1L3.70001 1C3.70001 1 3.7 0.888852 3.8 0.888852L5.20001 0L5.3 0C5.20001 0 5.20001 4.06792e-05 5.20001 0.111116L5.20001 0.111149L5.20001 0.111149Z" id="路径_3136_2_" fill="#A69CFB" fill-rule="evenodd" stroke="none" />
              </g>
              <g id="组_447_2_" transform="translate(0.1000061 0)">
                <path d="M2.10001 2.20001L0.100006 3.39997L0 3.39997C0 3.39997 6.10203e-06 3.29999 0.100006 3.29999L2.10001 2.09998L2.2 2.09998C2.1 2.09998 2.10001 2.20001 2.10001 2.20001L2.10001 2.20001Z" id="路径_3137_2_" fill="#6491FB" fill-rule="evenodd" stroke="none" />
                <path d="M3.3 1.56668L2.39999 2.39996L2.3 2.39996C2.3 2.39996 2.29999 2.23325 2.39999 2.23325L3.3 1.39996L3.39999 1.39996C3.29999 1.39996 3.3 1.56668 3.3 1.56668L3.3 1.56668Z" id="路径_3138_2_" fill="#A69CFB" fill-rule="evenodd" stroke="none" />
                <path d="M5.80001 0.0999756L3.7 1.29999L3.60001 1.29999C3.60001 1.29999 3.6 1.20001 3.7 1.20001L5.80001 0L5.89978 0C5.84992 0 5.82498 1.21911e-05 5.8125 0.0124896C5.80001 0.0249817 5.80001 0.0499684 5.80001 0.099947L5.80001 0.0999756L5.80001 0.0999756Z" id="路径_3139_2_" fill="#94F2B5" fill-rule="evenodd" stroke="none" />
              </g>
              <g id="组_448_2_" transform="translate(0.1000061 3.2785645)">
                <path d="M3.7 1.34443L5.7 0.14442L5.80001 0.0444444C5.80001 0.0444444 5.8 -0.0555556 5.7 0.0444444L3.7 1.2444L3.7 1.34443L3.7 1.34443Z" id="路径_3140_2_" fill="#6491FB" fill-rule="evenodd" stroke="none" />
                <path d="M2.5 2.39996L3.39999 1.62415L3.49999 1.46892C3.49999 1.46892 3.49999 1.31376 3.39999 1.46892L2.5 2.24474C2.5 2.24474 2.4 2.2448 2.5 2.39996L2.5 2.39996Z" id="路径_3141_2_" fill="#94F2B5" fill-rule="evenodd" stroke="none" />
                <path d="M0 3.54444L2.10001 2.34443L2.2 2.2444C2.2 2.2444 2.20001 2.1444 2.10001 2.2444L0 3.44441L0 3.54444L0 3.54444Z" id="路径_3142_2_" fill="#FF9999" fill-rule="evenodd" stroke="none" />
              </g>
              <g id="组_449_2_" transform="translate(0 0.36499023)">
                <path d="M1.39999 2.71113L0.100006 3.60004L0 3.60004C0 3.60004 6.10203e-06 3.48895 0.100006 3.48895L1.39999 2.60004L1.5 2.60004C1.5 2.71113 1.49999 2.71113 1.40006 2.71113L1.39999 2.71113L1.39999 2.71113Z" id="路径_3143_2_" fill="#A69CFB" fill-rule="evenodd" stroke="none" />
                <path d="M4.20002 1.10004L1.70001 2.60004L1.60001 2.60004C1.60001 2.60004 1.60001 2.5 1.70001 2.5L4.20002 1L4.30001 1L4.30001 1.00003C4.30001 1.1 4.30001 1.10004 4.20002 1.10004L4.20002 1.10004Z" id="路径_3144_2_" fill="#94F2B5" fill-rule="evenodd" stroke="none" />
                <path d="M6.10001 0.100037L4.5 1L4.40001 1C4.40001 1 4.4 0.900024 4.5 0.900024L6.10001 0L6.20001 0C6.20001 0 6.10001 3.66196e-05 6.10001 0.100037L6.10001 0.100037Z" id="路径_3145_2_" fill="#6491FB" fill-rule="evenodd" stroke="none" />
              </g>
              <g id="组_450_2_" transform="translate(0 3.5900269)">
                <path d="M4.8 0.888912L6.1 0L6.20001 0C6.20001 0 6.2 0.111089 6.1 0.111089L4.8 1L4.70001 1C4.70001 1 4.7 0.888912 4.8 0.888912L4.8 0.888912Z" id="路径_3146_2_" fill="#94F2B5" fill-rule="evenodd" stroke="none" />
                <path d="M2 2.39996L4.5 0.899963L4.6 0.899963C4.6 0.899963 4.6 1 4.5 1L2 2.5L1.89999 2.5C1.89999 2.5 1.9 2.49996 2 2.39996L2 2.39996Z" id="路径_3147_2_" fill="#FFC99C" fill-rule="evenodd" stroke="none" />
                <path d="M0.100006 3.5L1.70001 2.59998L1.80002 2.59998C1.80002 2.59998 1.80001 2.70001 1.70001 2.70001L0.100006 3.59998L0 3.59998C0.1 3.59998 0.100006 3.5 0.100006 3.5L0.100006 3.5Z" id="路径_3148_2_" fill="#A69CFB" fill-rule="evenodd" stroke="none" />
              </g>
              <g id="组_451_2_" transform="translate(0 3.2420044)">
                <path d="M3.3 1.20001L0.100006 3L0 3C0 3 6.10203e-06 2.90003 0.100006 2.90003L3.3 1.10004L3.40001 1.10004L3.3 1.20001L3.3 1.20001Z" id="路径_3149_2_" fill="#FFC99C" fill-rule="evenodd" stroke="none" />
                <path d="M5.20001 0.111149L3.8 1L3.70001 1C3.70001 1 3.7 0.888852 3.8 0.888852L5.20001 0L5.3 0C5.2 0 5.20001 0.111149 5.20001 0.111149L5.20001 0.111149Z" id="路径_3150_2_" fill="#FF9999" fill-rule="evenodd" stroke="none" />
              </g>
              <g id="组_452_2_" transform="translate(0 2.2079468)">
                <path d="M1.39999 2.81109L0.100006 3.70001L0 3.70001C0 3.70001 6.10203e-06 3.58886 0.100006 3.58886L1.39999 2.70001L1.5 2.70001C1.5 2.81109 1.49999 2.81109 1.40006 2.81109L1.39999 2.81109L1.39999 2.81109Z" id="路径_3151_2_" fill="#94F2B5" fill-rule="evenodd" stroke="none" />
                <path d="M4.20002 1.20001L1.70001 2.70002L1.60001 2.70002C1.60001 2.70002 1.60001 2.60004 1.70001 2.60004L4.20002 1.10004L4.30001 1.10004L4.30001 1.10007C4.30001 1.15004 4.30001 1.17503 4.28751 1.18752C4.27502 1.20001 4.25004 1.20001 4.20009 1.20001L4.20002 1.20001L4.20002 1.20001Z" id="路径_3152_2_" fill="#6491FB" fill-rule="evenodd" stroke="none" />
                <path d="M6.10001 0.100037L4.5 1L4.40001 1C4.40001 1 4.4 0.900024 4.5 0.900024L6.10001 0L6.20001 0C6.20001 0.1 6.10001 0.100037 6.10001 0.100037L6.10001 0.100037Z" id="路径_3153_2_" fill="#94F2B5" fill-rule="evenodd" stroke="none" />
              </g>
              <g id="组_453_2_" transform="translate(0 1.9110107)">
                <path d="M1.20001 2.84284L0.100006 3.70001L0 3.70001C0 3.70001 6.10203e-06 3.55718 0.100006 3.55718L1.20001 2.70001L1.30002 2.70001C1.20002 2.70001 1.20001 2.84284 1.20001 2.84284L1.20001 2.84284Z" id="路径_3154_2_" fill="#A69CFB" fill-rule="evenodd" stroke="none" />
                <path d="M3.5 1.5L1.39999 2.70001L1.30002 2.70001C1.30002 2.70001 1.29999 2.59997 1.39999 2.59997L3.5 1.39996L3.60001 1.39996C3.60001 1.39996 3.5 1.4 3.5 1.5L3.5 1.5Z" id="路径_3155_2_" fill="#FF9999" fill-rule="evenodd" stroke="none" />
                <path d="M5.80001 0.0999756L3.70001 1.29999L3.60001 1.29999C3.60001 1.29999 3.60001 1.20001 3.70001 1.20001L5.80001 0L5.90001 0C5.90001 0 5.90001 0.0999756 5.80001 0.0999756L5.80001 0.0999756Z" id="路径_3156_2_" fill="#FFC99C" fill-rule="evenodd" stroke="none" />
              </g>
            </g>
          </g>
          <g id="Group">
            <g id="Clip-path-group">
              <g id="Group" transform="translate(-0.1000061 -0.06982386)">
                <path d="M1.60001 0C0.700006 0 0.100006 0.699994 0.100006 1.89999L0 20.4C0 22.1 1.19998 24.2 2.69998 25.1L20.4 35.3C20.8 35.6 21.3 35.7 21.6 35.7C22.5 35.7 23.1 35 23.1 33.8L23.2 15.3C23.2 13.6 22 11.5 20.5 10.6L2.79999 0.399994C2.39999 0.0999939 2.00001 0 1.60001 0L1.60001 0ZM1.60001 0.5C1.90001 0.5 2.20001 0.600003 2.60001 0.800003L20.3 11C21.6 11.8 22.8 13.7 22.8 15.3L22.7 33.8C22.7 34.1 22.6 35.2 21.7 35.2C21.4 35.2 21.1 35.1 20.7 34.9L3 24.7C1.7 23.9 0.5 22 0.5 20.4L0.600006 1.89999C0.600006 1.59999 0.700006 0.5 1.60001 0.5L1.60001 0.5Z" id="Vector" fill="url(#gradient_6)" fill-rule="evenodd" stroke="none" />
              </g>
            </g>
          </g>
        </g>
        <g id="Group">
          <path d="M28.6 14.3L25.5 16.1L22 14.1L21.3 14.5L24.8 16.5L24.8 18.5C24.8 18.6 24.7 18.7 24.7 18.8C24.7 18.9 24.6 18.9 24.6 19C24.5 19.1 24.4 19.2 24.3 19.3L25 18.9C25.1 18.8 25.2 18.7 25.3 18.6C25.3 18.6 25.3 18.5 25.4 18.5L25.4 17L28.5 15.2L28.6 14.3L28.6 14.3Z" id="Vector" fill="#1964BA" fill-rule="evenodd" stroke="none" />
          <g id="Group">
            <g id="Group" transform="translate(0.099975586 0)">
              <g id="Group">
                <path d="M7.40002 2.10001L3.5 4.3L0 2.3L3.80002 0L7.40002 2.10001L7.40002 2.10001Z" id="Vector" fill="#4D9DF9" fill-rule="evenodd" stroke="none" />
              </g>
              <g id="Group" transform="translate(21.100006 12.200012)">
                <path d="M7.39999 2.09999L3.60001 4.29999L0 2.29999L3.89999 0L7.39999 2.09999L7.39999 2.09999Z" id="Vector" fill="#4D9DF9" fill-rule="evenodd" stroke="none" />
              </g>
              <g id="Group" transform="translate(14.100006 8.200012)">
                <path d="M7.39999 2L3.5 4.2L0 2.2L3.80002 0L7.39999 2L7.39999 2Z" id="Vector" fill="#4D9DF9" fill-rule="evenodd" stroke="none" />
              </g>
              <g id="Group" transform="translate(17.600006 10.200012)">
                <path d="M7.39999 2L3.5 4.29999L0 2.2L3.89999 0L7.39999 2L7.39999 2Z" id="Vector" fill="#D3E7FE" fill-rule="evenodd" stroke="none" />
              </g>
              <g id="Group" transform="translate(10.600006 6.100006)">
                <path d="M7.30002 2.10001L3.5 4.3L0 2.3L3.80002 0L7.30002 2.10001L7.30002 2.10001Z" id="Vector" fill="#D3E7FE" fill-rule="evenodd" stroke="none" />
              </g>
              <g id="Group" transform="translate(7.100006 4.100006)">
                <path d="M7.30002 2L3.5 4.3L0 2.2L3.80002 0L7.30002 2L7.30002 2Z" id="Vector" fill="#4D9DF9" fill-rule="evenodd" stroke="none" />
              </g>
              <g id="Group" transform="translate(3.5 2.100006)">
                <path d="M7.40002 2L3.60001 4.2L0 2.2L3.90002 0L7.40002 2L7.40002 2Z" id="Vector" fill="#D3E7FE" fill-rule="evenodd" stroke="none" />
              </g>
            </g>
            <g id="Group" transform="translate(0 2.300003)">
              <g id="Group" transform="translate(3.5999756 2)">
                <path d="M3.60001 2L3.60001 3.60001C3.60001 4.70001 2.80002 5.20001 1.80002 4.60001C0.800018 4.00001 0 2.70001 0 1.60001L0 0L3.60001 2L3.60001 2Z" id="Vector" fill="#A6CEFC" fill-rule="evenodd" stroke="none" />
              </g>
              <g id="Group">
                <path d="M3.59998 2L3.59998 3.60001C3.59998 4.70001 2.79999 5.20001 1.79999 4.60001C0.799988 4.00001 0 2.70001 0 1.60001L0 0L3.59998 2L3.59998 2Z" id="Vector" fill="#2185F8" fill-rule="evenodd" stroke="none" />
              </g>
              <g id="Group" transform="translate(14.099976 8.199997)">
                <path d="M3.60001 2L3.60001 3.60001C3.60001 4.70001 2.80002 5.20001 1.80002 4.60001C0.800018 4.00001 0 2.70001 0 1.60001L0 0L3.60001 2L3.60001 2Z" id="Vector" fill="#2185F8" fill-rule="evenodd" stroke="none" />
              </g>
              <g id="Group" transform="translate(10.599976 6.100006)">
                <path d="M3.60001 2L3.60001 3.59999C3.60001 4.69999 2.80002 5.19999 1.80002 4.59999C0.800018 3.99999 0 2.69999 0 1.59999L0 0L3.60001 2L3.60001 2Z" id="Vector" fill="#A6CEFC" fill-rule="evenodd" stroke="none" />
              </g>
              <g id="Group" transform="translate(7.0999756 4.100006)">
                <path d="M3.60001 2L3.60001 3.59999C3.60001 4.69999 2.80002 5.19999 1.80002 4.59999C0.800018 3.99999 0 2.69999 0 1.59999L0 0L3.60001 2L3.60001 2Z" id="Vector" fill="#2185F8" fill-rule="evenodd" stroke="none" />
              </g>
              <g id="Group" transform="translate(17.599976 10.199997)">
                <g id="Group">
                  <path d="M3.60001 2L3.60001 3.60001C3.60001 4.70001 2.80002 5.20001 1.80002 4.60001C0.800018 4.00001 0 2.70001 0 1.60001L0 0L3.60001 2L3.60001 2Z" id="Vector" fill="#A6CEFC" fill-rule="evenodd" stroke="none" />
                </g>
                <g id="Group" transform="translate(3.600006 2)">
                  <path d="M3.60001 2L3.60001 3.60001C3.60001 4.70001 2.80002 5.20001 1.80002 4.60001C0.800018 4.00001 0 2.70001 0 1.60001L0 0L3.60001 2L3.60001 2Z" id="Vector" fill="#2185F8" fill-rule="evenodd" stroke="none" />
                </g>
              </g>
            </g>
          </g>
        </g>
      </g>
      <g id="Group" transform="translate(5.037582 2.9606173)">
        <path d="M4.76837e-07 10.4394C4.76837e-07 11.2394 0.299997 11.8394 0.699997 12.0394L1.8 12.6394C1.8 12.6394 12.8 4.43939 12.8 3.03939C12.8 3.03939 12.8 2.53939 12.7 2.23939C12.9 2.13939 13.2 2.03939 13.2 2.03939C13 1.93939 12.4 1.53939 12.1 1.43939C11.7 1.33939 11 1.53939 10.8 1.63939C10.8 1.33939 10.7 1.03938 10.6 0.839382L11.1 0.739391L10.1 0.139385C9.69999 -0.0606149 9.2 -0.0606088 8.7 0.239391C8.4 0.439391 8.19998 0.639382 7.99998 0.839382C7.99998 0.839382 7.5 0.539382 7.2 0.339382C6.9 0.139385 6.60001 0.139385 6.30001 0.139385L5.8 0.139385C5.5 0.239385 5.19999 0.339394 4.89999 0.539394C3.69999 1.23939 2.6 2.63938 2 4.33938C1.6 5.33938 1.29999 6.63938 1.39999 7.33938C0.199994 8.53938 4.76837e-07 9.33939 4.76837e-07 10.4394L4.76837e-07 10.4394Z" id="路径_1684_22_" fill="url(#gradient_7)" fill-rule="evenodd" stroke="none" />
        <path d="M1.2 11.1394C1.2 12.5394 2.1 13.2394 3.2 12.6394C3.2 12.6394 3.30001 12.6394 3.30001 12.5394L12 7.43939C12 7.43939 12.1 7.43938 12.1 7.33938C13.2 6.73938 14 5.03938 14 3.63938C14 2.23938 13.1 1.53938 12 2.13938L11.9 2.13938C11.8 0.639387 10.9 0.0393933 9.7 0.739393C9.4 0.939393 9.10001 1.2394 8.80001 1.53939C8.20001 0.639396 7.1 0.439387 5.9 1.13939C4 2.23938 2.4 5.23938 2.5 7.83938C1.7 8.73938 1.2 10.0394 1.2 11.1394L1.2 11.1394Z" id="路径_1685_22_" fill="#F3F8FE" fill-rule="evenodd" stroke="none" />
        <path d="M12 7.33938C13.1 6.73938 13.9 5.03938 13.9 3.63938C13.9 2.23938 13 1.53938 11.9 2.13938L11.8 2.13938C11.7 0.639387 10.8 0.0393933 9.59999 0.739393C9.29999 0.939393 9 1.2394 8.7 1.53939C8.1 0.639396 7.00001 0.439387 5.8 1.13939L5.7 1.23939L10.3 8.33938L11.8 7.43939C11.9 7.43939 12 7.43938 12 7.33938L12 7.33938Z" id="Vector" fill="url(#gradient_8)" fill-rule="evenodd" stroke="none" />
      </g>
      <g id="Group" transform="translate(79.03757 10.934326)">
        <path d="M8.30002 6.36568C8.30002 6.86568 8.10003 7.16569 7.90003 7.26569L7.30002 7.66568C7.30002 7.66568 0.800018 2.86568 0.800018 1.96568C0.800018 1.96568 0.800024 1.66568 0.900024 1.46568C0.800024 1.46568 0.600006 1.36568 0.600006 1.36568C0.700006 1.26568 1.10001 1.06568 1.20001 0.965683C1.40001 0.865683 1.9 0.965689 2 1.06569C2 0.865689 2.00001 0.765689 2.10001 0.565689L1.80002 0.465683L2.40003 0.0656888C2.60003 -0.0343112 2.90002 -0.0343203 3.30002 0.16568C3.50002 0.26568 3.60002 0.365689 3.70002 0.565689C3.70002 0.565689 4.00002 0.365686 4.20002 0.265686C4.40002 0.165686 4.60002 0.16568 4.80002 0.16568L5.10001 0.16568C5.30001 0.16568 5.50001 0.265677 5.60001 0.365677C6.30001 0.765677 7.00002 1.66569 7.30002 2.56569C7.50002 3.16569 7.70001 3.86568 7.60001 4.36568C8.10001 5.26568 8.30002 5.66568 8.30002 6.36568L8.30002 6.36568Z" id="路径_1684_21_" fill="url(#gradient_9)" fill-rule="evenodd" stroke="none" />
        <path d="M7.60001 6.7657C7.60001 7.5657 7.10002 7.96569 6.40002 7.66569L6.30002 7.66569L1.20001 4.66569L1.10001 4.66569C0.500006 4.26569 0 3.26569 0 2.46569C0 1.66569 0.500012 1.26569 1.20001 1.5657C1.20001 0.665694 1.8 0.265685 2.5 0.665685C2.7 0.765685 2.9 0.965694 3 1.06569C3.4 0.565695 4.00001 0.365682 4.70001 0.865682C5.80001 1.56569 6.80001 3.36569 6.70001 4.86569C7.30001 5.36569 7.60001 6.1657 7.60001 6.7657L7.60001 6.7657Z" id="路径_1685_21_" fill="#F3F8FE" fill-rule="evenodd" stroke="none" />
        <path d="M1.20002 4.56568C0.600012 4.16568 0.100006 3.16567 0.100006 2.36567C0.100006 1.56567 0.600018 1.16568 1.30002 1.46568C1.30002 0.565676 1.90001 0.165682 2.60001 0.565682C2.80001 0.665682 3.00001 0.865676 3.10001 0.965676C3.50001 0.465676 4.10002 0.265679 4.80002 0.765679L4.90003 0.86567L2.20002 5.06568L1.20002 4.56568L1.20002 4.56568Z" id="Vector" fill="url(#gradient_10)" fill-rule="evenodd" stroke="none" />
      </g>
      <g id="Group" transform="translate(63.016964 20.92026)">
        <g id="Group" transform="translate(3.2206144 0)">
          <path d="M0 0.579756L0 1.37974C0 1.57974 0.0999878 1.67975 0.299988 1.87975C0.699988 2.17975 1.39999 2.17975 1.89999 1.87975C2.09999 1.77975 2.20001 1.57974 2.20001 1.37974L2.20001 0.579756L0 0.579756L0 0.579756Z" id="Vector" fill="url(#gradient_11)" fill-rule="evenodd" stroke="none" />
          <g id="Group" transform="translate(0.047055304 0)">
            <path d="M2.20167 0.606145C2.20259 0.274775 1.71086 0.00476813 1.10336 0.00307167C0.495842 0.0013752 0.00260081 0.268632 0.00167547 0.600002C0.000750145 0.931371 0.492491 1.20138 1.10001 1.20308C1.70751 1.20477 2.20074 0.937515 2.20167 0.606145L2.20167 0.606145Z" id="Vector" fill="#2185F8" fill-rule="evenodd" stroke="none" />
          </g>
          <g id="Group" transform="translate(0.44762355 0.0011106133)">
            <path d="M1.4014 0.503908C1.40217 0.227762 1.0894 0.00303429 0.702802 0.00195473C0.316204 0.000875175 0.00216734 0.223852 0.00139622 0.499998C0.000625095 0.776144 0.313412 1.00087 0.700009 1.00195C1.08661 1.00303 1.40063 0.780053 1.4014 0.503908L1.4014 0.503908Z" id="Vector" fill="#0CFFFC" fill-rule="evenodd" stroke="none" />
          </g>
        </g>
        <g id="Group" transform="translate(0 1.835495)">
          <path d="M0.0206022 0.644255L0.0206022 1.44426C0.0206022 1.64426 0.12062 1.74426 0.32062 1.94425C0.72062 2.24426 1.42062 2.24426 1.92062 1.94425C2.12062 1.84426 2.22061 1.64426 2.22061 1.44426L2.22061 0.644255L0.0206022 0.644255L0.0206022 0.644255Z" id="Vector" fill="url(#gradient_12)" fill-rule="evenodd" stroke="none" />
          <g id="Group">
            <path d="M2.20168 0.606145C2.2026 0.274775 1.71086 0.00476813 1.10336 0.00307167C0.495842 0.0013752 0.00260081 0.268632 0.00167547 0.600002C0.000750145 0.931371 0.492491 1.20138 1.10001 1.20308C1.70751 1.20477 2.20075 0.937515 2.20168 0.606145L2.20168 0.606145Z" id="Vector" fill="#2185F8" fill-rule="evenodd" stroke="none" />
          </g>
          <g id="Group" transform="translate(0.40056813 0.0011110902)">
            <path d="M1.40138 0.503907C1.40215 0.227762 1.08939 0.00303423 0.702787 0.00195467C0.316189 0.000875115 0.00216734 0.223852 0.00139622 0.499998C0.000625095 0.776144 0.313397 1.00087 0.699994 1.00195C1.0866 1.00303 1.40061 0.780053 1.40138 0.503907L1.40138 0.503907Z" id="Vector" fill="#FFE200" fill-rule="evenodd" stroke="none" />
          </g>
        </g>
      </g>
      <g id="Group" transform="translate(49.137573 0)">
        <g id="Group">
          <path d="M13.8 7.70001C14.1 7.90001 14.4 8.30001 14.4 8.70001L14.4 18.6C14.4 19 14.1 19.1 13.8 18.9L0.600006 11.3C0.300006 11.1 0 10.7 0 10.3L0 0.400002C0 2.41399e-06 0.300006 -0.100001 0.600006 0.0999994L13.8 7.70001L13.8 7.70001Z" id="Vector" fill="#F3F8FE" fill-rule="evenodd" stroke="none" />
        </g>
        <path d="M15.1 8.20002L15.1 7.90001C15.1 7.90001 15.1 7.8 15 7.8C15 7.8 15 7.70002 14.9 7.70002L14.9 7.60001L1.70001 1.54078e-05L1 0.400009L1.20001 0.400009C1.30001 0.400009 1.29999 0.400015 1.39999 0.500015L14.6 8.10001C14.7 8.10001 14.8 8.20001 14.8 8.3C14.8 8.3 14.9 8.40001 14.9 8.50002L15 8.6C15 8.70001 15.1 8.8 15.1 8.90001L15.1 19.3C15.1 19.32 15.096 19.336 15.0896 19.3488L15 19.4C15 19.4 15.064 19.4 15.0896 19.3488L15.7 19L15.8 18.9L15.1 8.20002L15.1 8.20002Z" id="Vector" fill="url(#gradient_13)" fill-rule="evenodd" stroke="none" />
        <g id="Group" transform="translate(2.899994 3.5215454)" opacity="0.35">
          <path d="M0.600006 0.0784595C0.300006 -0.121541 0 0.0784686 0 0.478469L0 5.97847C0 6.37847 0.300006 6.87846 0.600006 7.07846C0.900006 7.27846 1.20001 7.07847 1.20001 6.67847L1.20001 1.17847C1.20001 0.678465 0.900006 0.278459 0.600006 0.0784595L0.600006 0.0784595Z" id="Vector" fill="#2185F8" fill-rule="evenodd" stroke="none" />
          <path d="M3.5 4.27846L3.20001 4.07846C2.90001 3.87846 2.70001 4.07846 2.70001 4.37846L2.70001 7.57847C2.70001 7.87847 2.90001 8.27847 3.20001 8.37847L3.5 8.57847C3.8 8.77847 4 8.57846 4 8.27846L4 5.07847C4 4.77846 3.8 4.47846 3.5 4.27846L3.5 4.27846Z" id="Vector" fill="#2185F8" fill-rule="evenodd" stroke="none" />
          <path d="M6.20001 4.67847L6.10001 4.57846C5.80001 4.37846 5.6 4.57846 5.5 4.87846L5.5 9.17846C5.5 9.57847 5.7 9.97847 6 10.1785L6.10001 10.2785C6.40001 10.4785 6.60001 10.2785 6.70001 9.97847L6.70001 5.67846C6.80001 5.27847 6.50001 4.77847 6.20001 4.67847L6.20001 4.67847Z" id="Vector" fill="#2185F8" fill-rule="evenodd" stroke="none" />
          <path d="M8.70001 8.17847L9.10001 8.37846C9.30001 8.57846 9.5 8.87846 9.5 9.07846L9.5 11.5785C9.5 11.7785 9.30001 11.8785 9.10001 11.7785L8.70001 11.5785C8.50001 11.4785 8.30002 11.1785 8.30002 10.8785L8.30002 8.37846C8.30002 8.17846 8.50001 8.07847 8.70001 8.17847L8.70001 8.17847Z" id="Vector" fill="#2185F8" fill-rule="evenodd" stroke="none" />
        </g>
        <g id="Group" transform="translate(2.100006 3.9215548)">
          <path d="M0.600006 0.078462C0.300006 -0.121538 0 0.078456 0 0.478456L0 5.97846C0 6.37846 0.300006 6.87846 0.600006 7.07846C0.900006 7.27846 1.20001 7.07845 1.20001 6.67845L1.20001 1.17845C1.30001 0.778453 1.00001 0.278462 0.600006 0.078462L0.600006 0.078462Z" id="Vector" fill="#2185F8" fill-rule="evenodd" stroke="none" />
          <path d="M3.5 4.37845L3.20001 4.17845C2.90001 3.97845 2.70001 4.17845 2.70001 4.47846L2.70001 7.67846C2.70001 7.97846 2.90001 8.37846 3.20001 8.47846L3.5 8.67846C3.8 8.87846 4 8.67845 4 8.37845L4 5.17846C4 4.87845 3.8 4.47845 3.5 4.37845L3.5 4.37845Z" id="Vector" fill="#2185F8" fill-rule="evenodd" stroke="none" />
          <path d="M6.20001 4.67845L6.10001 4.57846C5.80001 4.37846 5.6 4.57845 5.5 4.87845L5.5 9.17846C5.5 9.57845 5.7 9.97846 6 10.1785L6.10001 10.2785C6.40001 10.4785 6.60001 10.2785 6.70001 9.97846L6.70001 5.67846C6.80001 5.27845 6.50001 4.87845 6.20001 4.67845L6.20001 4.67845Z" id="Vector" fill="#2185F8" fill-rule="evenodd" stroke="none" />
          <path d="M9.10001 8.47846L8.70001 8.27846C8.50001 8.17846 8.29999 8.27846 8.29999 8.47846L8.29999 10.9785C8.29999 11.2785 8.50001 11.5785 8.70001 11.6784L9.10001 11.8784C9.30001 11.9784 9.5 11.8785 9.5 11.6784L9.5 9.17845C9.6 8.97845 9.40001 8.57845 9.10001 8.47846L9.10001 8.47846Z" id="Vector" fill="#2185F8" fill-rule="evenodd" stroke="none" />
        </g>
      </g>
      <g id="Group" transform="translate(55.23758 37.200012)">
        <g id="Group">
          <path d="M18.2 0.0999908C18.4 0 18.6999 0 18.8 0C19 0.1 19.1 0.299991 19.1 0.599991L19.1 12.5C19.1 13 18.7 13.7 18.2 14L0.899994 24C0.399994 24.3 0 24.1 0 23.5L0 11.6C0 11.1 0.399994 10.4 0.899994 10.1L18.2 0.0999908L18.2 0.0999908Z" id="Vector" fill="#1964BA" fill-rule="evenodd" stroke="none" />
        </g>
        <g id="Group" transform="translate(0.7000122 0.3621671)">
          <path d="M18.2 0.137829C18.7 -0.162171 19.1 0.0378296 19.1 0.637829L19.1 12.5378C19.1 13.0378 18.7 13.7378 18.2 14.0378L0.899994 24.0378C0.399994 24.3378 0 24.1378 0 23.5378L0 11.6378C0 11.1378 0.399994 10.4378 0.899994 10.1378L18.2 0.137829L18.2 0.137829Z" id="Vector" fill="#2185F8" fill-rule="evenodd" stroke="none" />
        </g>
        <g id="Group" transform="translate(3.5 4.705719)">
          <path d="M14.7 1.29428C14.7 2.39428 14.1 3.59428 13.3 4.09428C12.5 4.59428 11.9 4.09427 11.9 2.99427C11.9 1.89427 12.5 0.694271 13.3 0.194271C14.1 -0.305729 14.7 0.194277 14.7 1.29428L14.7 1.29428ZM14.2 1.59428C14.2 0.89428 13.8 0.594268 13.3 0.894268C12.8 1.19427 12.4 1.99427 12.4 2.69427C12.4 3.39427 12.8 3.69427 13.3 3.39427C13.8 2.99427 14.2 2.19428 14.2 1.59428L14.2 1.59428Z" id="路径_1323_1_" fill="#67B6DE" fill-opacity="0.3" fill-rule="evenodd" stroke="none" />
          <path d="M14.7 5.99428C14.7 7.09428 14.1 8.29428 13.3 8.79428C12.5 9.29428 11.9 8.79427 11.9 7.69427C11.9 6.59427 12.5 5.39427 13.3 4.89427C14.1 4.39427 14.7 4.89427 14.7 5.99428L14.7 5.99428ZM14.2 6.29428C14.2 5.59428 13.8 5.29428 13.3 5.59428C12.8 5.89428 12.4 6.69427 12.4 7.39427C12.4 8.09427 12.8 8.39428 13.3 8.09428C13.8 7.69428 14.2 6.99428 14.2 6.29428L14.2 6.29428Z" id="路径_1324_1_" fill="#67B6DE" fill-opacity="0.3" fill-rule="evenodd" stroke="none" />
          <path d="M14.7 5.99428C14.7 7.09428 14 8.29427 13.3 8.69427C12.5 9.19427 11.9 8.69428 11.9 7.59428C11.9 6.49428 12.5 5.29428 13.3 4.79428L13.3 5.49428C12.8 5.79428 12.4 6.59428 12.4 7.29428C12.4 7.99428 12.8 8.29428 13.3 7.99428C13.8 7.69428 14.2 6.89428 14.2 6.29428L14.7 5.99428L14.7 5.99428Z" id="路径_1325_1_" fill="#FFFFFF" fill-opacity="0.8" fill-rule="evenodd" stroke="none" />
          <path d="M12.4 2.59428C12.4 3.29428 12.8 3.59428 13.3 3.29428L13.3 3.99427C12.5 4.49427 11.9 3.99427 11.9 2.89427C11.9 1.79427 12.5 0.594284 13.3 0.0942839L13.3 0.794281C12.8 1.19428 12.4 1.89428 12.4 2.59428L12.4 2.59428Z" id="路径_1326_1_" fill="url(#gradient_14)" fill-rule="evenodd" stroke="none" />
          <path d="M1.39999 14.5943L2.39999 8.59428C2.59999 7.59428 3.50001 7.09427 3.70001 7.89427C4.00001 9.09427 5.2 8.99428 6 7.59428L6.70001 6.39427C6.90001 5.99427 7.29999 5.89428 7.39999 6.09428L9.70001 9.79428L1.39999 14.5943L1.39999 14.5943Z" id="路径_1327_1_" fill="url(#gradient_15)" fill-rule="evenodd" stroke="none" />
          <path d="M10.4 9.39428L0 15.3943L0.799988 12.4943C1.09999 11.5943 1.90001 10.9943 2.20001 11.5943L2.39999 11.9943C2.59999 12.3943 3.09999 11.9943 3.29999 11.4943L4.70001 6.79429C5.00001 5.89429 5.80001 5.39428 6.10001 5.99428L7.10001 7.99429C7.30001 8.39429 7.8 8.09429 8 7.59429C8.3 6.69429 9.09999 6.29428 9.39999 6.99429L10.4 9.39428L10.4 9.39428Z" id="路径_1328_1_" fill="#FFFFFF" fill-opacity="0.8" fill-rule="evenodd" stroke="none" />
        </g>
      </g>
    </g>
  </g>
</svg>