<?xml version="1.0" encoding="utf-8"?>
<svg width="100px" height="100px" viewBox="0 0 100 100" version="1.1" xmlns:xlink="http://www.w3.org/1999/xlink" xmlns="http://www.w3.org/2000/svg">
  <defs>
    <linearGradient gradientUnits="objectBoundingBox" x1="-0.00019764957" y1="0.50000334" x2="1.0001987" y2="0.50000334" id="gradient_1">
      <stop offset="0%" stop-color="#92A6F1" />
      <stop offset="100%" stop-color="#FFFFFF" />
    </linearGradient>
    <linearGradient gradientUnits="objectBoundingBox" x1="-0.00047839998" y1="0.5006232" x2="0.99887997" y2="0.5006232" id="gradient_2">
      <stop offset="38.9%" stop-color="#103DB5" />
      <stop offset="59.320004%" stop-color="#6BABFD" />
    </linearGradient>
    <linearGradient gradientUnits="objectBoundingBox" x1="0.00033093913" y1="0.5001423" x2="0.9996691" y2="0.5001423" id="gradient_3">
      <stop offset="38.9%" stop-color="#103DB5" />
      <stop offset="59.320004%" stop-color="#6BABFD" />
    </linearGradient>
    <linearGradient gradientUnits="objectBoundingBox" x1="0.9948542" y1="0.578025" x2="0.0053465804" y2="0.4221718" id="gradient_4">
      <stop offset="0%" stop-color="#FFFFFF" />
      <stop offset="100%" stop-color="#4D9DF9" />
    </linearGradient>
    <linearGradient gradientUnits="objectBoundingBox" x1="0.50089765" y1="0.998912" x2="0.50089765" y2="0.0009965346" id="gradient_5">
      <stop offset="0%" stop-color="#0CFFFC" stop-opacity="0.6" />
      <stop offset="100%" stop-color="#FFFFFF" stop-opacity="0" />
    </linearGradient>
    <linearGradient gradientUnits="objectBoundingBox" x1="0.53175175" y1="0.107489236" x2="0.53175175" y2="0.9146859" id="gradient_6">
      <stop offset="25.78%" stop-color="#FFFFFF" />
      <stop offset="100%" stop-color="#FFFFFF" stop-opacity="0" />
    </linearGradient>
    <linearGradient gradientUnits="objectBoundingBox" x1="0.46809572" y1="0.10748375" x2="0.46809572" y2="0.9153105" id="gradient_7">
      <stop offset="25.78%" stop-color="#FFFFFF" />
      <stop offset="100%" stop-color="#FFFFFF" stop-opacity="0" />
    </linearGradient>
    <linearGradient gradientUnits="objectBoundingBox" x1="0.42945775" y1="0.10485098" x2="0.42945775" y2="0.9120476" id="gradient_8">
      <stop offset="25.78%" stop-color="#FFFFFF" />
      <stop offset="100%" stop-color="#FFFFFF" stop-opacity="0" />
    </linearGradient>
    <linearGradient gradientUnits="objectBoundingBox" x1="0.42945772" y1="0.10438376" x2="0.42945772" y2="0.9122105" id="gradient_9">
      <stop offset="25.78%" stop-color="#FFFFFF" />
      <stop offset="100%" stop-color="#FFFFFF" stop-opacity="0" />
    </linearGradient>
    <linearGradient gradientUnits="objectBoundingBox" x1="-0.17485607" y1="0.8595264" x2="0.66293186" y2="0.18935154" id="gradient_10">
      <stop offset="0%" stop-color="#97B5E1" />
      <stop offset="100%" stop-color="#ECF1FA" />
    </linearGradient>
    <linearGradient gradientUnits="objectBoundingBox" x1="1.0746096" y1="0.78824055" x2="-0.195122" y2="0.041303616" id="gradient_11">
      <stop offset="0%" stop-color="#FFFFFF" />
      <stop offset="100%" stop-color="#C9D9F4" />
    </linearGradient>
    <linearGradient gradientUnits="objectBoundingBox" x1="1.1764157" y1="0.8634955" x2="0.32727277" y2="0.21016848" id="gradient_12">
      <stop offset="0%" stop-color="#97B5E1" />
      <stop offset="100%" stop-color="#ECF1FA" />
    </linearGradient>
    <linearGradient gradientUnits="objectBoundingBox" x1="-0.080479205" y1="0.8008615" x2="1.202" y2="0.05223391" id="gradient_13">
      <stop offset="0%" stop-color="#FFFFFF" />
      <stop offset="100%" stop-color="#C9D9F4" />
    </linearGradient>
    <linearGradient gradientUnits="objectBoundingBox" x1="0.98895454" y1="0.45259017" x2="-0.019999979" y2="0.45259017" id="gradient_14">
      <stop offset="0%" stop-color="#103DB5" />
      <stop offset="64.26%" stop-color="#6BABFD" />
    </linearGradient>
    <linearGradient gradientUnits="objectBoundingBox" x1="1.0190455" y1="0.4537705" x2="0.010045486" y2="0.4537705" id="gradient_15">
      <stop offset="0%" stop-color="#103DB5" />
      <stop offset="64.26%" stop-color="#6BABFD" />
    </linearGradient>
    <linearGradient gradientUnits="objectBoundingBox" x1="0.46817395" y1="-0.2976" x2="0.5029938" y2="0.7777715" id="gradient_16">
      <stop offset="0%" stop-color="#FF8000" />
      <stop offset="100%" stop-color="#FFE46B" />
    </linearGradient>
    <linearGradient gradientUnits="objectBoundingBox" x1="0.06125701" y1="0.24752434" x2="0.8797053" y2="0.76177853" id="gradient_17">
      <stop offset="0%" stop-color="#FF8000" />
      <stop offset="100%" stop-color="#FFD000" />
    </linearGradient>
    <linearGradient gradientUnits="objectBoundingBox" x1="0.37345397" y1="0.005377485" x2="0.5429509" y2="0.6815563" id="gradient_18">
      <stop offset="0%" stop-color="#FF8000" />
      <stop offset="100%" stop-color="#FFEC96" />
    </linearGradient>
    <linearGradient gradientUnits="objectBoundingBox" x1="0.30680552" y1="0.49294582" x2="0.84066665" y2="0.56789654" id="gradient_19">
      <stop offset="0%" stop-color="#FF8000" />
      <stop offset="100%" stop-color="#FFE25C" />
    </linearGradient>
  </defs>
  <g id="rpg_build_5x">
    <path d="M100 0L100 0L100 100L0 100L0 0L100 0Z" id="rpg_build_5x" fill="none" stroke="none" />
    <g id="upgrades" transform="translate(3.1624198 7.0000076)">
      <g id="Group" transform="translate(0 28.749985)">
        <g id="Group" transform="translate(0 9.400009)" opacity="0.4">
          <path d="M89.2376 20.95C95.1376 24.35 95.1376 29.85 89.3376 33.25L57.6376 51.65C51.8376 55.05 42.3376 55.05 36.4376 51.65L4.43758 33.25C-1.46242 29.85 -1.46242 24.35 4.33758 20.95L36.0376 2.55C41.8376 -0.85 51.3376 -0.85 57.2376 2.55L89.2376 20.95L89.2376 20.95Z" id="Vector" fill="#00357C" fill-opacity="0.4" fill-rule="evenodd" stroke="none" />
        </g>
        <g id="Group">
          <path d="M93.6376 27.15L0.0375803 27.15L0.0375803 30.45C0.0375803 32.65 1.53758 34.85 4.43758 36.55L36.3376 54.95C42.2376 58.35 51.7376 58.35 57.5376 54.95L89.2376 36.55C92.1376 34.85 93.6376 32.65 93.6376 30.45L93.6376 27.15L93.6376 27.15Z" id="Vector" fill="url(#gradient_1)" fill-rule="evenodd" stroke="none" />
          <g id="Group">
            <path d="M89.2376 20.95C95.1376 24.35 95.1376 29.85 89.3376 33.25L57.6376 51.65C51.8376 55.05 42.3376 55.05 36.4376 51.65L4.43758 33.25C-1.46242 29.85 -1.46242 24.35 4.33758 20.95L36.0376 2.55C41.8376 -0.85 51.3376 -0.85 57.2376 2.55L89.2376 20.95L89.2376 20.95Z" id="Vector" fill="#F3F8FE" fill-rule="evenodd" stroke="none" />
          </g>
        </g>
      </g>
      <g id="Group" transform="translate(9.599978 0)">
        <path d="M68.5376 44.1L6.0376 44.1L6.0376 56.3C6.0376 57.8 7.0376 59.3 9.0376 60.4L30.2376 72.7C34.1376 75 40.5376 75 44.4376 72.7L65.6376 60.4C67.5376 59.3 68.5376 57.8 68.5376 56.3L68.5376 44.1L68.5376 44.1Z" id="Vector" fill="url(#gradient_2)" fill-rule="evenodd" stroke="none" />
        <path d="M57.0376 41.3C59.7376 42.9 59.8376 45.5 57.0376 47L42.2376 55.6C39.5376 57.2 35.0376 57.2 32.3376 55.6L17.4376 47C14.7376 45.4 14.6376 42.9 17.4376 41.3L32.2376 32.7C34.9376 31.1 39.4376 31.1 42.1376 32.7L57.0376 41.3L57.0376 41.3Z" id="Vector" fill="url(#gradient_3)" fill-rule="evenodd" stroke="none" />
        <path d="M28.7119 24.4839L28.711 24.4844L3.61308 39.0832L3.61189 39.0839C1.21743 40.4598 -0.013265 42.2795 0.000107823 44.1518C0.0134668 46.022 1.26775 47.8402 3.61105 49.2156L3.61227 49.2163L28.8123 63.8163L28.8131 63.8168C31.2094 65.1934 34.3048 65.875 37.3751 65.875C40.4448 65.875 43.5159 65.1937 45.8633 63.8161L45.8642 63.8156L70.9633 49.2161L70.9641 49.2156C73.3102 47.8386 74.5143 46.0177 74.4876 44.1464C74.4609 42.2777 73.2078 40.46 70.8642 39.0844L70.8633 39.0839L45.7633 24.4839L45.7621 24.4832C43.3658 23.1066 40.2704 22.425 37.2001 22.425C34.1304 22.425 31.0593 23.1063 28.7119 24.4839L28.7119 24.4839ZM28.9641 24.9156C31.2167 23.5935 34.1952 22.925 37.2001 22.925C40.2043 22.925 43.2084 23.5932 45.5119 24.9161L45.5131 24.9168L70.6111 39.5156L70.6119 39.5161C72.8677 40.8404 73.9643 42.5225 73.9876 44.1536C74.0109 45.7821 72.9652 47.461 70.7119 48.7839L70.7111 48.7844L45.6119 63.3839L45.6111 63.3844C43.3585 64.7065 40.38 65.375 37.3751 65.375C34.3708 65.375 31.3665 64.7068 29.0629 63.3837L29.0621 63.3832L3.86415 48.7844L3.86294 48.7837C1.60706 47.4592 0.511735 45.7777 0.500096 44.1482C0.488471 42.5208 1.55736 40.8408 3.86213 39.5168L3.8633 39.5161L28.9633 24.9161L28.9641 24.9156L28.9641 24.9156Z" id="Vector" fill="#0CFFFC" fill-rule="evenodd" stroke="none" />
        <path d="M57.0376 43.3C59.7376 44.9 59.8376 47.5 57.0376 49L42.2376 57.6C39.5376 59.2 35.0376 59.2 32.3376 57.6L17.4376 49C14.7376 47.4 14.6376 44.9 17.4376 43.3L32.2376 34.7C34.9376 33.1 39.4376 33.1 42.1376 34.7L57.0376 43.3L57.0376 43.3Z" id="Vector" fill="#0CFFFC" fill-rule="evenodd" stroke="none" />
        <path d="M65.5376 40.1L44.2376 27.8C40.3376 25.5 33.9376 25.5 30.1376 27.8L8.9376 40.1C5.0376 42.4 5.0376 46 8.9376 48.3L30.2376 60.5C34.1376 62.8 40.5376 62.8 44.4376 60.5L65.6376 48.2C69.4376 46 69.4376 42.3 65.5376 40.1L65.5376 40.1ZM57.0376 47L42.2376 55.6C39.5376 57.2 35.0376 57.2 32.3376 55.6L17.4376 47C14.7376 45.4 14.6376 42.9 17.4376 41.3L32.2376 32.7C34.9376 31.1 39.4376 31.1 42.1376 32.7L57.0376 41.3C59.7376 42.9 59.7376 45.4 57.0376 47L57.0376 47Z" id="Vector" fill="#2185F8" fill-rule="evenodd" stroke="none" />
        <g id="Group" transform="translate(5.9126024 26.09999)">
          <path d="M31.225 0C28.625 0 26.125 0.599997 24.125 1.7L2.925 14C-0.975 16.3 -0.975 19.9 2.925 22.2L24.325 34.4C26.325 35.5 28.825 36.1 31.425 36.1C34.025 36.1 36.525 35.5 38.525 34.4L59.725 22.1C63.625 19.8 63.625 16.2 59.625 13.9L38.325 1.7C36.3507 0.515389 33.8891 0.0129421 31.325 0.000247218L31.325 0L31.225 0L31.225 0ZM24.525 2C26.3019 0.914117 28.6635 0.412941 31.225 0.400256L31.225 0.5C33.825 0.5 36.225 1.10001 38.025 2.10001L59.325 14.4C61.025 15.4 62.025 16.7 62.025 18.1C62.025 19.5 61.125 20.8 59.325 21.7L38.125 34C36.325 35.1 33.925 35.6 31.325 35.6C28.725 35.6 26.325 35 24.525 34L3.325 21.7C1.625 20.7 0.624999 19.4 0.624999 18C0.624999 16.6 1.525 15.3 3.325 14.3L24.525 2L24.525 2Z" id="Vector" fill="url(#gradient_4)" fill-rule="evenodd" stroke="none" />
        </g>
        <path d="M62.4376 12.5L43.4376 1.5C39.9376 -0.5 34.3376 -0.5 30.8376 1.5L11.9376 12.5C10.2376 13.5 9.3376 14.8 9.3376 16.2L15.3376 44.1C15.3376 45.1 16.0376 46.2 17.4376 47L32.3376 55.6C35.0376 57.2 39.5376 57.2 42.2376 55.6L57.0376 47C58.4376 46.2 59.0376 45.2 59.0376 44.1L65.0376 16.2C65.0376 14.9 64.2376 13.5 62.4376 12.5L62.4376 12.5Z" id="Vector" fill="url(#gradient_5)" fill-rule="evenodd" stroke="none" />
        <g id="Group" transform="translate(17.437601 15.5)">
          <g id="Group" transform="translate(1.2999992 0)">
            <path d="M0.5 18.6C0.776144 18.6 1 18.3761 1 18.1C1 17.8239 0.776144 17.6 0.5 17.6C0.223857 17.6 0 17.8239 0 18.1C0 18.3761 0.223857 18.6 0.5 18.6L0.5 18.6Z" id="Vector" fill="#FFFFFF" fill-rule="evenodd" stroke="none" />
            <path d="M28.6 20.7C28.8761 20.7 29.1 20.4762 29.1 20.2C29.1 19.9239 28.8761 19.7 28.6 19.7C28.3239 19.7 28.1 19.9239 28.1 20.2C28.1 20.4762 28.3239 20.7 28.6 20.7L28.6 20.7Z" id="Vector" fill="#FFFFFF" fill-rule="evenodd" stroke="none" />
            <path d="M34.8 17.2C35.0761 17.2 35.3 16.9762 35.3 16.7C35.3 16.4239 35.0761 16.2 34.8 16.2C34.5239 16.2 34.3 16.4239 34.3 16.7C34.3 16.9762 34.5239 17.2 34.8 17.2L34.8 17.2Z" id="Vector" fill="#FFFFFF" fill-rule="evenodd" stroke="none" />
            <path d="M9.6 29.7C9.87614 29.7 10.1 29.4762 10.1 29.2C10.1 28.9239 9.87614 28.7 9.6 28.7C9.32386 28.7 9.1 28.9239 9.1 29.2C9.1 29.4762 9.32386 29.7 9.6 29.7L9.6 29.7Z" id="Vector" fill="#FFFFFF" fill-rule="evenodd" stroke="none" />
            <path d="M29.5 7.29999C29.7761 7.29999 30 7.07613 30 6.79999C30 6.52385 29.7761 6.29999 29.5 6.29999C29.2239 6.29999 29 6.52385 29 6.79999C29 7.07613 29.2239 7.29999 29.5 7.29999L29.5 7.29999Z" id="Vector" fill="#FFFFFF" fill-rule="evenodd" stroke="none" />
            <path d="M3.8 7.59999C4.07614 7.59999 4.3 7.37613 4.3 7.09999C4.3 6.82385 4.07614 6.59999 3.8 6.59999C3.52386 6.59999 3.3 6.82385 3.3 7.09999C3.3 7.37613 3.52386 7.59999 3.8 7.59999L3.8 7.59999Z" id="Vector" fill="#FFFFFF" fill-rule="evenodd" stroke="none" />
            <path d="M13.2 1C13.4761 1 13.7 0.776133 13.7 0.499988C13.7 0.22384 13.4761 0 13.2 0C12.9239 0 12.7 0.22384 12.7 0.499988C12.7 0.776133 12.9239 1 13.2 1L13.2 1Z" id="Vector" fill="#FFFFFF" fill-rule="evenodd" stroke="none" />
          </g>
          <g id="Group" transform="translate(0 3.2999878)">
            <path d="M0.249999 12.2L0.749998 12.2C0.874999 12.2 1 12.3 1 12.4L1 24.3C1 24.4 0.874999 24.5 0.749998 24.5L0.249999 24.5C0.124999 24.5 0 24.4 0 24.3L0 12.4C0.125 12.3 0.124999 12.2 0.249999 12.2L0.249999 12.2Z" id="矩形_32_8_" fill="url(#gradient_6)" fill-opacity="0.4" fill-rule="evenodd" stroke="none" />
            <path d="M39.05 8.10001L39.55 8.10001C39.675 8.10001 39.8 8.2 39.8 8.3L39.8 20.2C39.8 20.3 39.675 20.4 39.55 20.4L39.05 20.4C38.925 20.4 38.8 20.3 38.8 20.2L38.8 8.3C38.8 8.2 38.925 8.10001 39.05 8.10001L39.05 8.10001Z" id="矩形_32_7_" fill="url(#gradient_7)" fill-opacity="0.4" fill-rule="evenodd" stroke="none" />
            <path d="M11.95 16.1L12.45 16.1C12.575 16.1 12.7 16.2 12.7 16.3L12.7 28.2C12.7 28.3 12.575 28.4 12.45 28.4L11.95 28.4C11.825 28.4 11.7 28.3 11.7 28.2L11.7 16.3C11.7 16.2 11.825 16.1 11.95 16.1L11.95 16.1Z" id="矩形_32_6_" fill="url(#gradient_8)" fill-opacity="0.4" fill-rule="evenodd" stroke="none" />
            <path d="M11.95 0L12.45 0C12.575 0 12.7 0.100012 12.7 0.200012L12.7 12.1C12.7 12.2 12.575 12.3 12.45 12.3L11.95 12.3C11.825 12.3 11.7 12.2 11.7 12.1L11.7 0.200012C11.7 0.100012 11.825 0 11.95 0L11.95 0Z" id="矩形_32_5_" fill="url(#gradient_9)" fill-opacity="0.4" fill-rule="evenodd" stroke="none" />
          </g>
        </g>
      </g>
      <g id="Group" transform="translate(5.1375804 2.4606018)">
        <path d="M0 10.4394C0 11.2394 0.3 11.8394 0.7 12.0394L1.8 12.6394C1.8 12.6394 12.8 4.43939 12.8 3.03939C12.8 3.03939 12.8 2.53939 12.7 2.23939C12.9 2.13939 13.2 2.03939 13.2 2.03939C13 1.93939 12.4 1.53939 12.1 1.43939C11.7 1.33939 11 1.53939 10.8 1.63939C10.8 1.33939 10.7 1.03938 10.6 0.839382L11.1 0.739391L10.1 0.139385C9.7 -0.0606149 9.2 -0.0606088 8.7 0.239391C8.4 0.439391 8.2 0.639382 8 0.839382C8 0.839382 7.5 0.539382 7.2 0.339382C6.9 0.139385 6.60001 0.139385 6.30001 0.139385L5.8 0.139385C5.5 0.239385 5.2 0.339394 4.9 0.539394C3.7 1.23939 2.6 2.63938 2 4.33938C1.6 5.33938 1.3 6.63938 1.4 7.33938C0.2 8.53938 0 9.33939 0 10.4394L0 10.4394Z" id="路径_1684_26_" fill="url(#gradient_10)" fill-rule="evenodd" stroke="none" />
        <path d="M1.1 11.1394C1.1 12.5394 2 13.2394 3.1 12.6394C3.1 12.6394 3.2 12.6394 3.2 12.5394L11.9 7.43939C11.9 7.43939 12 7.43938 12 7.33938C13.1 6.73938 13.9 5.03938 13.9 3.63938C13.9 2.23938 13 1.53938 11.9 2.13938L11.8 2.13938C11.7 0.639387 10.8 0.0393933 9.6 0.739393C9.3 0.939393 9 1.2394 8.7 1.53939C8.1 0.639396 7 0.439387 5.8 1.13939C3.9 2.23938 2.3 5.23938 2.4 7.83938C1.7 8.73938 1.1 10.0394 1.1 11.1394L1.1 11.1394Z" id="路径_1685_26_" fill="#F3F8FE" fill-rule="evenodd" stroke="none" />
        <path d="M12 7.33938C13.1 6.73938 13.9 5.03938 13.9 3.63938C13.9 2.23938 13 1.53938 11.9 2.13938L11.8 2.13938C11.7 0.639387 10.8 0.0393933 9.6 0.739393C9.3 0.939393 9 1.2394 8.7 1.53939C8.1 0.639396 7 0.439387 5.8 1.13939L5.7 1.23939L10.3 8.33938L11.8 7.43939C11.9 7.43939 11.9 7.43938 12 7.33938L12 7.33938Z" id="Vector" fill="url(#gradient_11)" fill-rule="evenodd" stroke="none" />
      </g>
      <g id="Group" transform="translate(79.037575 10.434311)">
        <path d="M8.30001 6.36568C8.30001 6.86568 8.10001 7.16569 7.90001 7.26569L7.30001 7.66568C7.30001 7.66568 0.800003 2.86568 0.800003 1.96568C0.800003 1.96568 0.800001 1.66568 0.900001 1.46568C0.800001 1.46568 0.600006 1.36568 0.600006 1.36568C0.700006 1.26568 1.1 1.06568 1.2 0.965683C1.4 0.865683 1.9 0.965689 2 1.06569C2 0.865689 2.00001 0.765689 2.10001 0.565689L1.80001 0.465683L2.40001 0.0656888C2.60001 -0.0343112 2.90001 -0.0343203 3.30001 0.16568C3.50001 0.26568 3.60001 0.365689 3.70001 0.565689C3.70001 0.565689 4.00001 0.365686 4.20001 0.265686C4.40001 0.165686 4.60001 0.16568 4.80001 0.16568L5.10001 0.16568C5.30001 0.16568 5.50001 0.265677 5.60001 0.365677C6.30001 0.765677 7.00001 1.66569 7.30001 2.56569C7.50001 3.16569 7.70001 3.86568 7.60001 4.36568C8.20001 5.26568 8.30001 5.66568 8.30001 6.36568L8.30001 6.36568Z" id="路径_1684_25_" fill="url(#gradient_12)" fill-rule="evenodd" stroke="none" />
        <path d="M7.60001 6.7657C7.60001 7.5657 7.1 7.96569 6.4 7.66569L6.3 7.66569L1.2 4.66569L1.10001 4.66569C0.500006 4.26569 0 3.26569 0 2.46569C0 1.66569 0.500005 1.26569 1.2 1.5657C1.2 0.665694 1.8 0.265685 2.5 0.665685C2.7 0.765685 2.9 0.965694 3 1.06569C3.4 0.565695 4 0.365682 4.7 0.865682C5.8 1.56569 6.8 3.36569 6.7 4.86569C7.3 5.36569 7.60001 6.1657 7.60001 6.7657L7.60001 6.7657Z" id="路径_1685_25_" fill="#F3F8FE" fill-rule="evenodd" stroke="none" />
        <path d="M1.20001 4.56568C0.600004 4.16568 0.100006 3.16567 0.100006 2.36567C0.100006 1.56567 0.600003 1.16568 1.30001 1.46568C1.30001 0.565676 1.90001 0.165682 2.60001 0.565682C2.80001 0.665682 3.00001 0.865676 3.10001 0.965676C3.50001 0.465676 4.10001 0.265679 4.80001 0.765679L4.90001 0.86567L2.20001 5.06568L1.20001 4.56568L1.20001 4.56568Z" id="Vector" fill="url(#gradient_13)" fill-rule="evenodd" stroke="none" />
      </g>
      <g id="Group" transform="translate(10.136033 59.897583)">
        <g id="Group">
          <path d="M2.20155 0.602416L2.20155 1.4024C2.20155 1.6024 2.10155 1.70241 1.90155 1.90241C1.50155 2.20241 0.801547 2.20241 0.301547 1.90241C0.101547 1.80241 0.00154723 1.6024 0.00154723 1.4024L0.00154723 0.602416L2.20155 0.602416L2.20155 0.602416Z" id="Vector" fill="url(#gradient_14)" fill-rule="evenodd" stroke="none" />
          <g id="Group">
            <path d="M1.10335 1.20307C1.71085 1.20137 2.20259 0.931373 2.20167 0.600004C2.20074 0.268634 1.7075 0.00137529 1.1 0.00307178C0.492484 0.00476827 0.00075017 0.274778 0.00167553 0.606147C0.00260089 0.937517 0.495835 1.20476 1.10335 1.20307L1.10335 1.20307Z" id="Vector" fill="#2185F8" fill-rule="evenodd" stroke="none" />
          </g>
          <g id="Group" transform="translate(0.40056288 0.20112424)">
            <path d="M0.70279 1.00195C1.08939 1.00087 1.40216 0.776148 1.40139 0.500007C1.40062 0.223867 1.0866 0.000875177 0.699997 0.00195477C0.313399 0.00303436 0.000625156 0.227777 0.00139629 0.503917C0.00216742 0.780057 0.316191 1.00303 0.70279 1.00195L0.70279 1.00195Z" id="Vector" fill="#0CFFFC" fill-rule="evenodd" stroke="none" />
          </g>
        </g>
        <g id="Group" transform="translate(3.2000866 1.9001923)">
          <path d="M2.20146 0.602217L2.20146 1.40222C2.20146 1.60222 2.10146 1.70222 1.90146 1.90222C1.50146 2.20222 0.801459 2.20222 0.301459 1.90222C0.10146 1.80222 0.00146045 1.60222 0.00146045 1.40222L0.00146045 0.602217L2.20146 0.602217L2.20146 0.602217Z" id="Vector" fill="url(#gradient_15)" fill-rule="evenodd" stroke="none" />
          <g id="Group">
            <path d="M1.10335 1.20308C1.71085 1.20138 2.20259 0.931373 2.20167 0.600004C2.20074 0.268634 1.7075 0.00137529 1.1 0.00307178C0.492485 0.00476827 0.00075017 0.274778 0.00167553 0.606147C0.00260089 0.937517 0.495836 1.20477 1.10335 1.20308L1.10335 1.20308Z" id="Vector" fill="#2185F8" fill-rule="evenodd" stroke="none" />
          </g>
          <g id="Group" transform="translate(0.40056384 0.2011395)">
            <path d="M0.702791 1.00195C1.08939 1.00087 1.40216 0.776144 1.40139 0.499998C1.40062 0.223853 1.0866 0.000875177 0.699998 0.00195476C0.3134 0.00303435 0.000625116 0.227762 0.00139626 0.503908C0.00216741 0.780053 0.316192 1.00303 0.702791 1.00195L0.702791 1.00195Z" id="Vector" fill="#FFE200" fill-rule="evenodd" stroke="none" />
          </g>
        </g>
      </g>
      <g id="Group" transform="translate(30.918024 3.5999908)">
        <path d="M12.7196 3.5L13.4196 3.5L16.4196 1.8L11.3196 1.8C10.9196 1.8 10.6196 1.7 10.2196 1.7L10.0196 1.7C9.71956 1.7 9.41956 1.60001 9.11956 1.60001L8.81956 1.60001C8.41956 1.50001 8.01956 1.50001 7.61956 1.40001C7.51956 1.40001 7.41956 1.4 7.31956 1.3C7.11956 1.3 6.91956 1.2 6.61956 1.2C6.51956 1.2 6.31956 1.10001 6.21956 1.10001C6.11956 1.10001 6.01956 1 5.91956 1C5.71956 0.9 5.41956 0.900003 5.21956 0.800003C5.11956 0.800003 5.11956 0.799997 5.01956 0.699997C4.71956 0.599997 4.51956 0.500009 4.21956 0.400009L4.11956 0.400009C3.81956 0.300009 3.61956 0.2 3.31956 0L0.319557 1.7C0.419557 1.7 0.519556 1.8 0.619556 1.8C0.719556 1.9 0.819555 1.90001 0.919555 1.90001C1.01956 1.90001 1.01956 2 1.11956 2L1.31956 2C1.51956 2.1 1.61956 2.1 1.81956 2.2C1.91956 2.2 1.91956 2.2 2.01956 2.3C2.11956 2.3 2.11956 2.30001 2.21956 2.40001L2.21959 2.40001C2.31956 2.40001 2.31957 2.40001 2.41956 2.5C2.51956 2.5 2.71956 2.60001 2.91956 2.60001C3.01956 2.60001 3.11956 2.7 3.21956 2.7L3.31956 2.7C3.41956 2.7 3.51956 2.7 3.61956 2.8C3.81956 2.9 4.01956 2.90001 4.31956 2.90001L4.61956 2.90001C5.01956 3.00001 5.41956 3.00001 5.81956 3.10001L6.11956 3.10001C6.41956 3.10001 6.71956 3.2 7.01956 3.2L7.21956 3.2C7.61956 3.2 8.01956 3.3 8.31956 3.3L12.6196 3.3C12.5196 3.5 12.6196 3.5 12.7196 3.5L12.7196 3.5Z" id="Vector" fill="url(#gradient_16)" fill-rule="evenodd" stroke="none" />
        <g id="Group" transform="translate(0 1.5)">
          <path d="M13.4196 2.10001C13.9196 2.60001 22.5196 12.8 26.7196 15.4C27.0196 17.7 26.7196 29.5 23.4196 33.4C21.0196 35.8 15.8196 35.2 13.4196 34.9C13.3196 34.9 13.3196 34.9 13.2196 34.8L13.0196 34.6C11.2196 32.8 5.11955 26.3 3.21955 21.7C0.219554 14.9 -0.280444 1.9 0.119556 0C4.05285 2.15395 11.7574 1.93992 13.0486 1.90405C13.1361 1.90162 13.1942 1.90001 13.2196 1.90001L13.4196 2.10001L13.4196 2.10001Z" id="Vector" fill="url(#gradient_17)" fill-rule="evenodd" stroke="none" />
        </g>
        <path d="M29.4196 14.9C29.2196 14.8 29.1196 14.7 29.0196 14.6C29.0196 14.6 28.9196 14.6 28.9196 14.5L28.8196 14.5C28.7196 14.4 28.5196 14.3 28.4196 14.2L28.3196 14.1C28.1196 13.9 27.9196 13.8 27.7196 13.6L27.6196 13.5C27.2196 13.2 26.9196 12.9 26.5196 12.5C26.2196 12.2 25.9196 12 25.7196 11.7L25.6196 11.6L24.8196 10.8L24.7196 10.7C24.1196 10.1 23.5196 9.50001 22.9196 8.90001C22.3196 8.30001 21.7196 7.70001 21.2196 7.10001L21.1196 7C20.8196 6.7 20.6196 6.40001 20.3196 6.10001L20.2196 6C19.9196 5.7 19.7196 5.4 19.5196 5.2C19.3196 4.9 19.0196 4.70001 18.8196 4.40001L18.7196 4.30001C18.5196 4.10001 18.3196 3.80001 18.1196 3.60001L18.0196 3.5C17.8196 3.3 17.7196 3.10001 17.5196 2.90001C17.5196 2.90001 17.5196 2.80001 17.4196 2.80001C17.3196 2.6 17.1196 2.50001 17.0196 2.40001L16.9196 2.3C16.8196 2.2 16.7196 2.1 16.7196 2C16.6196 1.9 16.6196 1.9 16.6196 1.8L16.4196 1.7L13.4196 3.40001L13.6196 3.5C13.6196 3.5 13.7196 3.6 13.7196 3.7C13.8196 3.8 13.8196 3.9 13.9196 4C13.9196 4 13.9196 4.10001 14.0196 4.10001C14.1196 4.20001 14.2196 4.4 14.4196 4.5C14.4196 4.5 14.4196 4.60001 14.5196 4.60001C14.6196 4.80001 14.8196 5 15.0196 5.2L15.1196 5.30001C15.3196 5.50001 15.5196 5.7 15.7196 6L15.8196 6.10001C16.0196 6.30001 16.3196 6.60001 16.5196 6.90001C16.7196 7.20001 17.0196 7.4 17.2196 7.7L17.3196 7.80001C17.6196 8.10001 17.8196 8.4 18.1196 8.7L18.2196 8.80001C18.8196 9.40001 19.3196 10 19.9196 10.6C20.5196 11.2 21.1196 11.8 21.7196 12.4L21.8196 12.5L22.6196 13.3L22.7196 13.4C23.0196 13.7 23.3196 13.9 23.5196 14.2C23.9196 14.5 24.2196 14.9 24.6196 15.2C24.6196 15.2 24.7196 15.2 24.7196 15.3C24.9196 15.5 25.1196 15.6 25.3196 15.8C25.3196 15.8 25.4196 15.8 25.4196 15.9C25.5196 16 25.7196 16.1 25.8196 16.2L25.9196 16.2C25.9196 16.2 26.0196 16.2 26.0196 16.3C26.1196 16.4 26.2196 16.5 26.3196 16.5C26.3196 16.5 26.4196 16.5 26.4196 16.6C26.5196 16.7 26.6196 16.7 26.6196 16.7C26.6196 16.7 26.7196 16.7 26.7196 16.8L29.7196 15.1C29.6196 15.1 29.5196 15 29.4196 14.9L29.4196 14.9Z" id="Vector" fill="url(#gradient_18)" fill-rule="evenodd" stroke="none" />
        <path d="M29.9196 18.4L29.9196 14.9L26.9196 16.6L26.9196 21.9C26.9196 22.2 26.9196 22.5 26.8196 22.9L26.8196 23C26.7196 23.7 26.7196 24.4 26.6196 25.1L26.6196 25.2C26.5196 25.8 26.4196 26.5 26.3196 27.1L26.3196 27.2C26.2196 27.8 26.1196 28.3 26.0196 28.8L26.0196 28.9C25.9196 29.4 25.8196 29.9 25.6196 30.3C25.5196 30.7 25.3196 31.1 25.2196 31.5L25.2196 31.6C25.1196 32 24.9196 32.3 24.8196 32.6L24.8196 32.7C24.6196 33 24.5196 33.3 24.3196 33.6C24.3196 33.6 24.3196 33.7 24.2196 33.7C24.0196 33.9 23.9196 34.2 23.7196 34.4C23.4739 34.6457 23.2282 34.8913 22.9277 35.0821L22.7196 35.2C22.792 35.1638 22.8612 35.1243 22.9277 35.0821L25.7196 33.5C26.1196 33.3 26.4196 33 26.7196 32.7C26.9196 32.5 27.0196 32.3 27.2196 32L27.2196 31.9C27.4196 31.6 27.5196 31.3 27.7196 31C27.9196 30.7 28.0196 30.3 28.1196 30L28.1196 29.9C28.2196 29.5 28.4196 29.1 28.5196 28.7C28.6196 28.2 28.8196 27.7 28.9196 27.3L28.9196 27.2C29.0196 26.7 29.1196 26.1 29.2196 25.6L29.2196 25.5C29.3196 24.9 29.4196 24.2 29.5196 23.6L29.5196 23.5C29.6196 22.8 29.7196 22.1 29.7196 21.4C29.7196 21.1 29.7196 20.7 29.8196 20.4L29.8196 18.4C29.8742 18.4547 29.899 18.4795 29.9102 18.4744C29.9196 18.4701 29.9196 18.4453 29.9196 18.4L29.9196 18.4Z" id="Vector" fill="url(#gradient_19)" fill-rule="evenodd" stroke="none" />
        <g id="Group" transform="translate(1.3098993 3.2105172)" opacity="0.5">
          <path d="M0.267872 0.078877L0.118006 0L0.086795 0.166456C0.00892834 0.581744 -0.0214877 1.62648 0.0159483 3.04123C0.0535324 4.46159 0.159987 6.26788 0.360312 8.21478C0.760497 12.1041 1.53673 16.5698 2.89471 19.6386C3.75246 21.7066 5.56244 24.218 7.35036 26.4061C9.14087 28.5973 10.9187 30.4754 11.7213 31.2779L11.7579 31.3145L11.8068 31.3145L11.8092 31.3148C11.8135 31.3154 11.8218 31.317 11.8326 31.3206C11.8539 31.3277 11.8865 31.3432 11.9213 31.3779C11.9453 31.4019 11.9668 31.4234 11.9854 31.4402C12.0043 31.4572 12.0265 31.4752 12.0537 31.4888C12.1062 31.515 12.1601 31.5147 12.1999 31.5145L12.2013 31.5145C13.2525 31.6646 14.958 31.8897 16.6661 31.8018C18.3739 31.7139 20.1156 31.3119 21.2001 30.1758L21.2003 30.176L21.2059 30.1692C21.9473 29.2744 22.5157 27.9422 22.9486 26.427C23.3822 24.9092 23.6833 23.1959 23.8837 21.5294C24.2843 18.2001 24.2856 15.0376 24.1334 13.9718L24.1252 13.9146L24.0764 13.8838C22.1926 12.694 19.3284 9.83178 16.8762 7.1919C14.4279 4.55615 12.4051 2.15868 12.2073 1.91144L12.2079 1.91091L12.198 1.90109L12.098 1.8011L12.0614 1.76449L12.0096 1.76449C11.9845 1.76449 11.9325 1.76562 11.8562 1.76727C11.3098 1.77911 9.51603 1.81797 7.39365 1.66481C4.96993 1.48991 2.14297 1.06577 0.267872 0.078877L0.267872 0.078877ZM12.0096 2.80054L13.0096 1.8011L12.0096 2.8011L12.0096 2.80054L12.0096 2.80054ZM21.1093 30.0891L22.1093 31.0891L21.1167 30.0977L21.1093 30.0891L21.1093 30.0891ZM11.9117 31.0834C11.8959 31.0781 11.8814 31.0743 11.8686 31.0716C11.0575 30.2581 9.30679 28.4052 7.54395 26.2479C5.75723 24.0614 3.96757 21.5734 3.12515 19.5416L3.12396 19.5389C1.78233 16.5078 1.00875 12.0743 0.608999 8.18919C0.409323 6.2486 0.303277 4.44864 0.26586 3.03462C0.232857 1.78735 0.253616 0.85029 0.308065 0.380228C2.22986 1.33584 5.01434 1.74376 7.37565 1.91416C9.51442 2.06851 11.3256 2.02893 11.8631 2.01718C11.9016 2.01634 11.9335 2.01564 11.9586 2.01517L12.0161 2.07269C12.2405 2.35137 14.2573 4.73988 16.6931 7.36205C19.12 9.97465 21.9774 12.8357 23.8936 14.0638C24.0335 15.152 24.028 18.2374 23.6355 21.4996C23.436 23.1581 23.137 24.8573 22.7082 26.3583C22.2792 27.8599 21.7233 29.1513 21.0161 30.0065C20.0002 31.0679 18.3437 31.4652 16.6532 31.5522C14.9664 31.639 13.2768 31.4157 12.2273 31.2658L12.2185 31.2645L12.2096 31.2645C12.1834 31.2645 12.1716 31.2644 12.1637 31.2637C12.1615 31.2621 12.158 31.2592 12.1526 31.2544C12.14 31.243 12.124 31.227 12.098 31.2011C12.0328 31.1358 11.9654 31.1013 11.9117 31.0834L11.9117 31.0834ZM12.2096 32.263L13.2096 31.2658L12.2096 32.2658L12.2096 32.263L12.2096 32.263Z" id="Vector" fill="#FFFFFF" fill-rule="evenodd" stroke="none" />
        </g>
      </g>
    </g>
  </g>
</svg>