<?xml version="1.0" encoding="utf-8"?>
<svg width="100px" height="100px" viewBox="0 0 100 100" version="1.1" xmlns:xlink="http://www.w3.org/1999/xlink" xmlns="http://www.w3.org/2000/svg">
  <defs>
    <linearGradient gradientUnits="objectBoundingBox" x1="-0.0001378205" y1="0.49981883" x2="1.0002586" y2="0.49981883" id="gradient_1">
      <stop offset="0%" stop-color="#92A6F1" />
      <stop offset="100%" stop-color="#FFFFFF" />
    </linearGradient>
    <linearGradient gradientUnits="objectBoundingBox" x1="0.0012092651" y1="0.50147736" x2="0.9989712" y2="0.50147736" id="gradient_2">
      <stop offset="33.75%" stop-color="#97B5E1" />
      <stop offset="59.320004%" stop-color="#E8F1FF" />
    </linearGradient>
    <linearGradient gradientUnits="objectBoundingBox" x1="0.0012092651" y1="0.50057375" x2="0.9989728" y2="0.50057375" id="gradient_3">
      <stop offset="38.9%" stop-color="#103DB5" />
      <stop offset="59.320004%" stop-color="#6BABFD" />
    </linearGradient>
    <linearGradient gradientUnits="objectBoundingBox" x1="0.9965362" y1="0.57638675" x2="0.0054462943" y2="0.42096406" id="gradient_4">
      <stop offset="0%" stop-color="#FFFFFF" />
      <stop offset="100%" stop-color="#4D9DF9" />
    </linearGradient>
    <linearGradient gradientUnits="objectBoundingBox" x1="0.99581075" y1="0.57601094" x2="0.0031162458" y2="0.42048904" id="gradient_5">
      <stop offset="0%" stop-color="#FFFFFF" />
      <stop offset="100%" stop-color="#4D9DF9" />
    </linearGradient>
    <linearGradient gradientUnits="objectBoundingBox" x1="0.8612521" y1="0.8620634" x2="0.3327283" y2="0.061085597" id="gradient_6">
      <stop offset="0%" stop-color="#103DB5" />
      <stop offset="64.26%" stop-color="#6BABFD" />
    </linearGradient>
    <linearGradient gradientUnits="objectBoundingBox" x1="0.8517151" y1="0.85276306" x2="0.32319123" y2="0.05178522" id="gradient_7">
      <stop offset="0%" stop-color="#103DB5" />
      <stop offset="64.26%" stop-color="#6BABFD" />
    </linearGradient>
    <linearGradient gradientUnits="objectBoundingBox" x1="0.34376606" y1="0.23224495" x2="0.5963303" y2="0.6111836" id="gradient_8">
      <stop offset="0%" stop-color="#0CFFFC" stop-opacity="0.6" />
      <stop offset="100%" stop-color="#FFFFFF" stop-opacity="0" />
    </linearGradient>
    <linearGradient gradientUnits="objectBoundingBox" x1="-0.17264394" y1="0.8595264" x2="0.66514397" y2="0.18935156" id="gradient_9">
      <stop offset="0%" stop-color="#97B5E1" />
      <stop offset="100%" stop-color="#ECF1FA" />
    </linearGradient>
    <linearGradient gradientUnits="objectBoundingBox" x1="1.0781707" y1="0.7882405" x2="-0.19156098" y2="0.041303597" id="gradient_10">
      <stop offset="0%" stop-color="#FFFFFF" />
      <stop offset="100%" stop-color="#C9D9F4" />
    </linearGradient>
    <linearGradient gradientUnits="objectBoundingBox" x1="1.1802208" y1="0.8634956" x2="0.33106497" y2="0.2101685" id="gradient_11">
      <stop offset="0%" stop-color="#97B5E1" />
      <stop offset="100%" stop-color="#ECF1FA" />
    </linearGradient>
    <linearGradient gradientUnits="objectBoundingBox" x1="-0.07437502" y1="0.8008615" x2="1.2081041" y2="0.05223395" id="gradient_12">
      <stop offset="0%" stop-color="#FFFFFF" />
      <stop offset="100%" stop-color="#C9D9F4" />
    </linearGradient>
    <linearGradient gradientUnits="objectBoundingBox" x1="-1.1182108E-05" y1="0.49904698" x2="0.99775237" y2="0.49904698" id="gradient_13">
      <stop offset="33.75%" stop-color="#97B5E1" />
      <stop offset="59.320004%" stop-color="#E8F1FF" />
    </linearGradient>
    <linearGradient gradientUnits="objectBoundingBox" x1="0.9953146" y1="0.5778702" x2="0.0042246687" y2="0.4224475" id="gradient_14">
      <stop offset="0%" stop-color="#FFFFFF" />
      <stop offset="100%" stop-color="#C9D9F4" />
    </linearGradient>
    <linearGradient gradientUnits="objectBoundingBox" x1="0.9941951" y1="0.57796717" x2="0.0014984828" y2="0.42244893" id="gradient_15">
      <stop offset="0%" stop-color="#FFFFFF" />
      <stop offset="100%" stop-color="#C9D9F4" />
    </linearGradient>
    <linearGradient gradientUnits="objectBoundingBox" x1="0.8744904" y1="0.84920484" x2="0.34596655" y2="0.04822704" id="gradient_16">
      <stop offset="0%" stop-color="#103DB5" />
      <stop offset="64.26%" stop-color="#6BABFD" />
    </linearGradient>
    <linearGradient gradientUnits="objectBoundingBox" x1="0.86495334" y1="0.8399046" x2="0.33642954" y2="0.038926758" id="gradient_17">
      <stop offset="0%" stop-color="#103DB5" />
      <stop offset="64.26%" stop-color="#6BABFD" />
    </linearGradient>
    <linearGradient gradientUnits="objectBoundingBox" x1="0.34484863" y1="0.23524782" x2="0.5974128" y2="0.61418647" id="gradient_18">
      <stop offset="0%" stop-color="#0CFFFC" stop-opacity="0.6" />
      <stop offset="100%" stop-color="#FFFFFF" stop-opacity="0" />
    </linearGradient>
  </defs>
  <g id="rpg_build_4x">
    <path d="M100 0L100 0L100 100L0 100L0 0L100 0Z" id="rpg_build_4x" fill="none" stroke="none" />
    <g id="storage" transform="translate(3.1624146 3.0000114)">
      <g id="Group" transform="translate(0 32.74999)">
        <g id="Group" transform="translate(0.10000563 9.400002)" opacity="0.4">
          <path d="M89.1376 20.95C95.0376 24.35 95.0376 29.85 89.2376 33.25L57.5376 51.65C51.7376 55.05 42.2376 55.05 36.3376 51.65L4.43757 33.25C-1.46243 29.85 -1.46241 24.35 4.33759 20.95L36.0376 2.55C41.8376 -0.85 51.3376 -0.85 57.2376 2.55L89.1376 20.95L89.1376 20.95Z" id="Vector" fill="#00357C" fill-opacity="0.4" fill-rule="evenodd" stroke="none" />
        </g>
        <g id="Group">
          <path d="M93.6376 27.15L0.0375671 27.15L0.0375671 30.45C0.0375671 32.65 1.53759 34.85 4.43759 36.55L36.3376 54.95C42.2376 58.35 51.7376 58.35 57.5376 54.95L89.2376 36.55C92.1376 34.85 93.6376 32.65 93.6376 30.45L93.6376 27.15L93.6376 27.15Z" id="Vector" fill="url(#gradient_1)" fill-rule="evenodd" stroke="none" />
          <g id="Group">
            <path d="M89.2376 20.95C95.1376 24.35 95.1376 29.85 89.3375 33.25L57.6376 51.65C51.8376 55.05 42.3376 55.05 36.4376 51.65L4.43758 33.25C-1.46242 29.85 -1.46242 24.35 4.33758 20.95L36.0376 2.55C41.8376 -0.85 51.3376 -0.85 57.2376 2.55L89.2376 20.95L89.2376 20.95Z" id="Vector" fill="#F3F8FE" fill-rule="evenodd" stroke="none" />
          </g>
        </g>
      </g>
      <g id="Group" transform="translate(9.599976 16.174988)">
        <path d="M68.5376 30.225L5.93759 30.225L5.93759 42.425C5.93759 43.925 6.93759 45.425 8.93759 46.525L30.2376 58.825C34.1376 61.125 40.5376 61.125 44.4376 58.825L65.6376 46.525C67.5376 45.425 68.5376 43.925 68.5376 42.425L68.5376 30.225L68.5376 30.225Z" id="Vector" fill="url(#gradient_2)" fill-rule="evenodd" stroke="none" />
        <g id="Group" transform="translate(6.0126038 12.199999)">
          <path d="M59.525 14.025C63.425 16.325 63.425 19.925 59.625 22.225L38.425 34.525C34.525 36.825 28.225 36.825 24.225 34.525L2.925 22.225C-0.975 19.925 -0.975 16.325 2.925 14.025L24.125 1.725C28.025 -0.575 34.325 -0.575 38.225 1.725L59.525 14.025L59.525 14.025Z" id="Vector" fill="#BCD0F1" fill-rule="evenodd" stroke="none" />
        </g>
        <g id="Group" transform="translate(0 8.650002)">
          <path d="M28.7119 2.0589L28.7111 2.05937L3.61308 16.6582L3.61189 16.6589C1.21743 18.0348 -0.0132656 19.8545 0.000107244 21.7268C0.0134662 23.597 1.26775 25.4152 3.61105 26.7906L3.61227 26.7913L28.8123 41.3913L28.8131 41.3918C31.2094 42.7684 34.3048 43.45 37.3751 43.45C40.4447 43.45 43.5159 42.7687 45.8633 41.3911L45.8641 41.3906L70.9633 26.7911L70.9642 26.7906C73.3102 25.4136 74.5143 23.5927 74.4876 21.7214C74.4609 19.8527 73.2078 18.035 70.8641 16.6594L70.8633 16.6589L45.7633 2.0589L45.7621 2.05822C43.3658 0.68161 40.2704 0 37.2001 0C34.1304 0 31.0592 0.681361 28.7119 2.0589L28.7119 2.0589ZM28.9642 2.4906C31.2167 1.16848 34.1952 0.5 37.2001 0.5C40.2043 0.5 43.2084 1.16816 45.5119 2.4911L45.5131 2.49179L70.611 17.0906L70.6119 17.0911C72.8676 18.4154 73.9643 20.0975 73.9876 21.7286C74.0109 23.3571 72.9652 25.036 70.7119 26.3589L70.7111 26.3594L45.6119 40.9589L45.611 40.9594C43.3585 42.2815 40.38 42.95 37.3751 42.95C34.3708 42.95 31.3665 42.2818 29.0629 40.9587L29.0621 40.9582L3.86415 26.3594L3.86294 26.3587C1.60706 25.0342 0.511734 23.3527 0.500095 21.7232C0.48847 20.0958 1.55736 18.4158 3.86213 17.0918L3.8633 17.0911L28.9633 2.4911L28.9642 2.4906L28.9642 2.4906ZM28.8323 2.26581L29.8323 3.26581L28.8728 2.30671L28.8323 2.26581L28.8323 2.26581Z" id="Vector" fill="#0CFFFC" fill-rule="evenodd" stroke="none" />
        </g>
        <path d="M68.5376 18.025L5.93759 18.025L5.93759 30.225C5.93759 31.725 6.93759 33.225 8.93759 34.325L30.2376 46.625C34.1376 48.925 40.5376 48.925 44.4376 46.625L65.6376 34.325C67.5376 33.225 68.5376 31.725 68.5376 30.225L68.5376 18.025L68.5376 18.025Z" id="Vector" fill="url(#gradient_3)" fill-rule="evenodd" stroke="none" />
        <path d="M65.5376 14.025C69.4376 16.325 69.4376 19.925 65.6376 22.225L44.4376 34.525C40.5376 36.825 34.2376 36.825 30.2376 34.525L8.9376 22.225C5.0376 19.925 5.0376 16.325 8.9376 14.025L30.1376 1.725C34.0376 -0.575 40.3376 -0.575 44.2376 1.725L65.5376 14.025L65.5376 14.025Z" id="Vector" fill="#2185F8" fill-rule="evenodd" stroke="none" />
        <g id="Group" transform="translate(5.912628 0.025001407)">
          <path d="M31.225 0C28.625 0 26.125 0.599999 24.125 1.7L2.925 14C-0.975 16.3 -0.975 19.9 2.925 22.2L24.225 34.5C26.225 35.6 28.725 36.2 31.325 36.2C33.925 36.2 36.425 35.6 38.425 34.5L59.625 22.2C63.525 19.9 63.525 16.3 59.525 14L38.225 1.7C36.3494 0.515391 33.889 0.0129422 31.325 0.00024722L31.325 0L31.225 0L31.225 0ZM24.525 2C26.3019 0.914117 28.6635 0.412932 31.225 0.400247L31.225 0.5C33.825 0.5 36.225 1.1 38.025 2.1L59.325 14.4C61.025 15.4 62.025 16.7 62.025 18.1C62.025 19.5 61.125 20.8 59.325 21.7L38.225 34C36.425 35.1 34.025 35.6 31.425 35.6C28.825 35.6 26.425 35 24.625 34L3.32499 21.7C1.62499 20.7 0.624982 19.4 0.624982 18C0.624982 16.6 1.52499 15.3 3.32499 14.3L24.525 2L24.525 2Z" id="Vector" fill="url(#gradient_4)" fill-rule="evenodd" stroke="none" />
        </g>
        <g id="Group" transform="translate(13.6249695 4.425001)">
          <path d="M23.5126 0C21.6126 0 19.6127 0.399999 18.2127 1.3L2.21266 10.6C-0.787341 12.3 -0.687341 15.1 2.21266 16.8L18.3126 26.1C19.8126 27 21.7127 27.4 23.7127 27.4C25.6127 27.4 27.6126 27 29.1126 26.1L45.1126 16.8C48.0126 15.1 48.0126 12.3 45.1126 10.6L29.0126 1.3C27.4126 0.399999 25.5126 0 23.5126 0L23.5126 0ZM23.5126 0.199999C25.5126 0.199999 27.3127 0.6 28.7127 1.5L44.8126 10.8C46.2126 11.6 46.9127 12.6 46.9127 13.7C46.9127 14.8 46.2126 15.8 44.8126 16.6L28.8126 25.9C27.4126 26.7 25.6126 27.2 23.6126 27.2C21.6126 27.2 19.8127 26.8 18.4127 25.9L2.31263 16.6C0.912634 15.8 0.212659 14.8 0.212659 13.7C0.212659 12.6 0.912634 11.6 2.31263 10.8L18.3126 1.5C19.7126 0.7 21.5126 0.199999 23.5126 0.199999L23.5126 0.199999Z" id="Vector" fill="url(#gradient_5)" fill-rule="evenodd" stroke="none" />
        </g>
        <g id="Group" transform="translate(45.73758 27.605309)">
          <path d="M0.800049 9.41969C0.300049 9.71969 0 10.3197 0 10.9197L0 13.7197C0 14.2197 0.400024 14.5197 0.900024 14.2197L17 4.91969C17.5 4.61969 17.8 4.01969 17.8 3.41969L17.8 0.619694C17.8 0.119694 17.4 -0.180306 16.9 0.119694L0.800049 9.41969L0.800049 9.41969Z" id="Vector" fill="#0CFFFC" fill-rule="evenodd" stroke="none" />
          <path d="M0.100024 13.7197L16.2 4.41969C16.7 4.11969 17 3.51969 17 2.91969L17 0.119693C17.4 -0.0803065 17.8 0.119693 17.8 0.619693L17.8 3.41969C17.8 3.91969 17.4 4.61969 17 4.91969L0.800036 14.2197C0.400036 14.4197 2.44156e-05 14.2197 0.100024 13.7197L0.100024 13.7197Z" id="Vector" fill="#1964BA" fill-rule="evenodd" stroke="none" />
        </g>
        <g id="Group" transform="translate(10.863643 43.225002)">
          <g id="Group">
            <path d="M1.67395 2.4L2.37396 2C2.47396 1.9 2.57395 1.7 2.57395 1.5C2.57395 1 2.17396 0.399998 1.77396 0.0999985C1.57396 -1.52737e-06 1.37395 0 1.17395 0L0.473973 0.399998L1.67395 2.4L1.67395 2.4Z" id="Vector" fill="url(#gradient_6)" fill-rule="evenodd" stroke="none" />
            <g id="Group" transform="translate(0 0.27271432)">
              <path d="M1.61511 2.20687C1.90254 2.04199 1.89051 1.48113 1.58822 0.95416C1.28594 0.427194 0.807867 0.133667 0.52043 0.29855C0.232993 0.463433 0.245053 1.02428 0.547338 1.55125C0.849627 2.07822 1.32767 2.37175 1.61511 2.20687L1.61511 2.20687Z" id="Vector" fill="#2185F8" fill-rule="evenodd" stroke="none" />
            </g>
            <g id="Group" transform="translate(0.37246472 0.61966866)">
              <path d="M1.1303 1.46318C1.36983 1.32579 1.40809 0.942537 1.21572 0.607194C1.02336 0.27185 0.673219 0.111399 0.433693 0.248799C0.194167 0.386199 0.155942 0.769429 0.348306 1.10477C0.54067 1.44012 0.890779 1.60058 1.1303 1.46318L1.1303 1.46318Z" id="Vector" fill="#0CFFFC" fill-rule="evenodd" stroke="none" />
            </g>
          </g>
          <g id="Group" transform="translate(3.2583926 1.9000015)">
            <path d="M1.71558 2.39999L2.41559 2C2.51559 1.9 2.61555 1.7 2.61555 1.5C2.61555 1 2.21556 0.399998 1.81556 0.0999985C1.61556 -1.52737e-06 1.41558 0 1.21558 0L0.515568 0.399994L1.71558 2.39999L1.71558 2.39999Z" id="Vector" fill="url(#gradient_7)" fill-rule="evenodd" stroke="none" />
            <g id="Group" transform="translate(0 0.1731739)">
              <path d="M1.61513 2.20687C1.90257 2.04199 1.89053 1.48113 1.58825 0.95416C1.28596 0.42719 0.807894 0.133666 0.520456 0.29855C0.233019 0.463433 0.245051 1.02429 0.547338 1.55126C0.849622 2.07823 1.32769 2.37175 1.61513 2.20687L1.61513 2.20687Z" id="Vector" fill="#2185F8" fill-rule="evenodd" stroke="none" />
            </g>
            <g id="Group" transform="translate(0.3725257 0.5201242)">
              <path d="M1.13032 1.46318C1.36986 1.32577 1.40809 0.942537 1.21572 0.60719C1.02336 0.271847 0.673244 0.111385 0.433709 0.24879C0.194174 0.386195 0.15594 0.769427 0.348304 1.10477C0.54067 1.44012 0.890786 1.60058 1.13032 1.46318L1.13032 1.46318Z" id="Vector" fill="#FFE200" fill-rule="evenodd" stroke="none" />
            </g>
          </g>
        </g>
        <path d="M45.7376 38.525C45.7376 38.025 46.1376 37.325 46.5376 37.025L62.6376 27.725C62.8376 27.625 63.0376 27.625 63.1376 27.625L67.1376 28.925C67.3376 29.025 67.4376 29.225 67.4376 29.525L67.4376 33.025C67.4376 33.625 67.0376 34.425 66.4376 34.725L48.6376 45.425C48.2376 45.625 47.8376 45.425 47.7376 45.225C46.9376 44.225 45.8376 41.725 45.8376 41.725C45.8376 41.725 45.6376 41.625 45.6376 41.225L45.7376 38.525L45.7376 38.525Z" id="Vector" fill="url(#gradient_8)" fill-rule="evenodd" stroke="none" />
      </g>
      <g id="Group" transform="translate(5.1376033 6.460602)">
        <path d="M4.76837e-07 10.4394C4.76837e-07 11.2394 0.299982 11.8394 0.699982 12.0394L1.79999 12.6394C1.79999 12.6394 12.8 4.43939 12.8 3.03939C12.8 3.03939 12.8 2.53939 12.7 2.23939C12.9 2.13939 13.2 2.03939 13.2 2.03939C13 1.93939 12.4 1.53939 12.1 1.43939C11.7 1.33939 11 1.53939 10.8 1.63939C10.8 1.33939 10.7 1.03938 10.6 0.839382L11.1 0.739391L10.1 0.139385C9.70001 -0.0606149 9.19998 -0.0606088 8.69998 0.239391C8.39998 0.439391 8.2 0.639382 8 0.839382C8 0.839382 7.49998 0.539382 7.19998 0.339382C6.89998 0.139385 6.6 0.139385 6.3 0.139385L5.79999 0.139385C5.49999 0.239385 5.19999 0.339394 4.89999 0.539394C3.69999 1.23939 2.6 2.63938 2 4.33938C1.6 5.33938 1.29999 6.63938 1.39999 7.33938C0.199994 8.53938 4.76837e-07 9.33939 4.76837e-07 10.4394L4.76837e-07 10.4394Z" id="路径_1684_18_" fill="url(#gradient_9)" fill-rule="evenodd" stroke="none" />
        <path d="M1.10001 11.1394C1.10001 12.5394 2.00001 13.2394 3.10001 12.6394C3.10001 12.6394 3.19999 12.6394 3.19999 12.5394L11.9 7.43939C11.9 7.43939 12 7.43938 12 7.33938C13.1 6.73938 13.9 5.03938 13.9 3.63938C13.9 2.23938 13 1.53938 11.9 2.13938L11.8 2.13938C11.7 0.639387 10.8 0.0393933 9.60001 0.739393C9.30001 0.939393 8.99999 1.2394 8.69999 1.53939C8.09999 0.639396 6.99999 0.439387 5.79999 1.13939C3.89999 2.23938 2.3 5.23938 2.4 7.83938C1.69999 8.73938 1.10001 10.0394 1.10001 11.1394L1.10001 11.1394Z" id="路径_1685_18_" fill="#F3F8FE" fill-rule="evenodd" stroke="none" />
        <path d="M12 7.33938C13.1 6.73938 13.9 5.03938 13.9 3.63938C13.9 2.23938 13 1.53938 11.9 2.13938L11.8 2.13938C11.7 0.639387 10.8 0.0393933 9.6 0.739393C9.3 0.939393 8.99998 1.2394 8.69998 1.53939C8.09998 0.639396 6.99999 0.439387 5.79999 1.13939L5.69998 1.23939L10.3 8.33938L11.8 7.43939C11.9 7.43939 12 7.43938 12 7.33938L12 7.33938Z" id="Vector" fill="url(#gradient_10)" fill-rule="evenodd" stroke="none" />
      </g>
      <g id="Group" transform="translate(79.1376 14.434326)">
        <path d="M8.19998 6.36568C8.19998 6.86568 7.99999 7.16569 7.79999 7.26569L7.19998 7.66568C7.19998 7.66568 0.699982 2.86568 0.699982 1.96568C0.699982 1.96568 0.699988 1.66568 0.799988 1.46568C0.699988 1.46568 0.5 1.36568 0.5 1.36568C0.6 1.26568 1.00001 1.06568 1.10001 0.965683C1.30001 0.865683 1.79999 0.965689 1.89999 1.06569C1.89999 0.865689 1.9 0.765689 2 0.565689L1.69998 0.465683L2.29999 0.0656888C2.49999 -0.0343112 2.79998 -0.0343203 3.19998 0.16568C3.39998 0.26568 3.50001 0.365689 3.60001 0.565689C3.60001 0.565689 3.90001 0.365686 4.10001 0.265686C4.30001 0.165686 4.49998 0.16568 4.69998 0.16568L5 0.16568C5.2 0.16568 5.4 0.265677 5.5 0.365677C6.2 0.765677 6.89998 1.66569 7.19998 2.56569C7.39998 3.16569 7.6 3.86568 7.5 4.36568C8.1 5.26568 8.19998 5.66568 8.19998 6.36568L8.19998 6.36568Z" id="路径_1684_17_" fill="url(#gradient_11)" fill-rule="evenodd" stroke="none" />
        <path d="M7.60001 6.7657C7.60001 7.5657 7.09999 7.96569 6.39999 7.66569L6.29999 7.66569L1.19998 4.66569L1.10001 4.66569C0.500006 4.26569 0 3.26569 0 2.46569C0 1.66569 0.499982 1.26569 1.19998 1.5657C1.19998 0.665694 1.8 0.265685 2.5 0.665685C2.7 0.765685 2.9 0.965694 3 1.06569C3.4 0.565695 3.99998 0.365682 4.69998 0.865682C5.79998 1.56569 6.79998 3.36569 6.69998 4.86569C7.19998 5.36569 7.60001 6.1657 7.60001 6.7657L7.60001 6.7657Z" id="路径_1685_17_" fill="#F3F8FE" fill-rule="evenodd" stroke="none" />
        <path d="M1.10001 4.56568C0.500006 4.16568 0 3.16567 0 2.36567C0 1.56567 0.499982 1.16568 1.19998 1.46568C1.19998 0.565676 1.8 0.165682 2.5 0.565682C2.7 0.665682 2.9 0.865676 3 0.965676C3.4 0.465676 3.99998 0.265679 4.69998 0.765679L4.79999 0.86567L2.10001 5.06568L1.10001 4.56568L1.10001 4.56568Z" id="Vector" fill="url(#gradient_12)" fill-rule="evenodd" stroke="none" />
      </g>
      <g id="Group" transform="translate(15.61261 0)">
        <g id="Group" transform="translate(0 12.199997)">
          <path d="M59.525 14.025C63.425 16.325 63.425 19.925 59.625 22.225L38.425 34.525C34.525 36.825 28.225 36.825 24.225 34.525L2.925 22.225C-0.975 19.925 -0.975 16.325 2.925 14.025L24.125 1.725C28.025 -0.575 34.325 -0.575 38.225 1.725L59.525 14.025L59.525 14.025Z" id="Vector" fill="#BCD0F1" fill-rule="evenodd" stroke="none" />
        </g>
        <path d="M62.625 18.125L0.0249941 18.125L0.0249941 30.325C0.0249941 31.825 1.02499 33.325 3.02499 34.425L24.325 46.725C28.225 49.025 34.625 49.025 38.525 46.725L59.725 34.425C61.625 33.325 62.625 31.825 62.625 30.325L62.625 18.125L62.625 18.125Z" id="Vector" fill="url(#gradient_13)" fill-rule="evenodd" stroke="none" />
        <path d="M59.525 14.025C63.425 16.325 63.425 19.925 59.625 22.225L38.425 34.525C34.525 36.825 28.225 36.825 24.225 34.525L2.925 22.225C-0.975 19.925 -0.975 16.325 2.925 14.025L24.125 1.725C28.025 -0.575 34.325 -0.575 38.225 1.725L59.525 14.025L59.525 14.025Z" id="Vector" fill="#BCD0F1" fill-rule="evenodd" stroke="none" />
        <g id="Group" transform="translate(0 0.024993777)">
          <path d="M31.125 0C28.525 0 26.025 0.600012 24.025 1.70001L2.925 14C-0.975 16.3 -0.975 19.9 2.925 22.2L24.225 34.5C26.225 35.6 28.725 36.2 31.325 36.2C33.925 36.2 36.425 35.6 38.425 34.5L59.625 22.2C63.525 19.9 63.525 16.3 59.525 14L38.225 1.70001C36.3494 0.614115 33.7915 0.0154674 31.225 0.000295664L31.225 0L31.125 0L31.125 0ZM24.425 2.10001C26.2129 1.00738 28.5928 0.506731 31.1727 0.500067C33.7544 0.507363 36.136 1.10613 37.925 2.10001L59.225 14.4C60.925 15.4 61.925 16.7 61.925 18.1C61.925 19.5 61.025 20.8 59.225 21.7L38.125 34.1C36.325 35.2 33.925 35.7 31.325 35.7C28.725 35.7 26.325 35.1 24.525 34.1L3.22499 21.8C1.52499 20.8 0.525006 19.5 0.525006 18.1C0.525006 16.7 1.42499 15.4 3.22499 14.4L24.425 2.10001L24.425 2.10001Z" id="Vector" fill="url(#gradient_14)" fill-rule="evenodd" stroke="none" />
        </g>
        <g id="Group" transform="translate(7.7123423 4.425003)" opacity="0.5">
          <path d="M23.5126 1.19209e-07C21.6126 1.19209e-07 19.6127 0.400003 18.2127 1.3L2.21266 10.6C-0.787341 12.3 -0.687341 15.1 2.21266 16.8L18.3127 26.1C19.8127 27 21.7127 27.4 23.7127 27.4C25.6127 27.4 27.6127 27 29.1127 26.1L45.1127 16.8C48.0127 15.1 48.0127 12.3 45.1127 10.6L29.0126 1.3C27.3126 0.400003 25.4126 1.19209e-07 23.5126 1.19209e-07L23.5126 1.19209e-07ZM23.5126 0.199997C25.5126 0.199997 27.3127 0.6 28.7127 1.5L44.8127 10.8C46.2127 11.6 46.9127 12.6 46.9127 13.7C46.9127 14.8 46.2127 15.8 44.8127 16.6L28.8127 25.9C27.4127 26.7 25.6127 27.2 23.6127 27.2C21.6127 27.2 19.8127 26.8 18.4127 25.9L2.31266 16.6C0.912665 15.8 0.212659 14.8 0.212659 13.7C0.212659 12.6 0.912665 11.6 2.31266 10.8L18.3127 1.5C19.7127 0.7 21.5126 0.199997 23.5126 0.199997L23.5126 0.199997Z" id="Vector" fill="url(#gradient_15)" fill-rule="evenodd" stroke="none" />
        </g>
        <g id="Group" transform="translate(39.724976 27.648361)">
          <path d="M0.800018 9.47665C0.300018 9.77665 0 10.3766 0 10.9766L0 13.7766C0 14.2766 0.400024 14.5766 0.900024 14.2766L17 4.97665C17.5 4.67665 17.8 4.07665 17.8 3.47665L17.8 0.67664C17.8 0.17664 17.4 -0.12336 16.9 0.17664L0.800018 9.47665L0.800018 9.47665Z" id="Vector" fill="#0CFFFC" fill-rule="evenodd" stroke="none" />
          <path d="M0.0999939 13.6766L16.2 4.37663C16.7 4.07663 17 3.47663 17 2.87663L17 0.0766406C17.4 -0.123359 17.8 0.0766406 17.8 0.576641L17.8 3.37663C17.8 3.87663 17.4 4.57663 17 4.87663L0.900012 14.1766C0.400012 14.4766 -6.09457e-06 14.2766 0.0999939 13.6766L0.0999939 13.6766Z" id="Vector" fill="#1964BA" fill-rule="evenodd" stroke="none" />
        </g>
        <g id="Group" transform="translate(4.818569 30.425003)">
          <g id="Group">
            <path d="M1.70642 2.39999L2.4064 2C2.5064 1.9 2.60642 1.7 2.60642 1.5C2.60642 1 2.20643 0.399991 1.80643 0.0999908C1.60645 0 1.40646 0 1.20648 0L1.20643 0L0.506413 0.399994L1.70642 2.39999L1.70642 2.39999Z" id="Vector" fill="url(#gradient_16)" fill-rule="evenodd" stroke="none" />
            <g id="Group" transform="translate(0 0.18374062)">
              <path d="M1.61513 2.20687C1.90257 2.04199 1.89053 1.48112 1.58824 0.954151C1.28596 0.427184 0.807894 0.133666 0.520456 0.29855C0.233019 0.463433 0.245047 1.02428 0.547333 1.55125C0.849617 2.07822 1.32769 2.37175 1.61513 2.20687L1.61513 2.20687Z" id="Vector" fill="#2185F8" fill-rule="evenodd" stroke="none" />
            </g>
            <g id="Group" transform="translate(0.3725257 0.5306834)">
              <path d="M1.13032 1.46317C1.36985 1.32576 1.40809 0.942537 1.21572 0.60719C1.02336 0.271847 0.673244 0.111385 0.433709 0.24879C0.194174 0.386195 0.15594 0.769427 0.348304 1.10477C0.54067 1.44012 0.890781 1.60057 1.13032 1.46317L1.13032 1.46317Z" id="Vector" fill="#0CFFFC" fill-rule="evenodd" stroke="none" />
            </g>
          </g>
          <g id="Group" transform="translate(3.3082883 1.8999939)">
            <path d="M1.69812 2.40001L2.39813 2C2.49813 1.9 2.59812 1.7 2.59812 1.5C2.59812 1 2.19813 0.400006 1.79813 0.100006C1.59813 6.10203e-06 1.39812 0 1.19812 0L0.498143 0.400009L1.69812 2.40001L1.69812 2.40001Z" id="Vector" fill="url(#gradient_17)" fill-rule="evenodd" stroke="none" />
            <g id="Group" transform="translate(0 0.17095345)">
              <path d="M1.61511 2.20687C1.90254 2.04199 1.89051 1.48113 1.58823 0.954169C1.28594 0.427197 0.807867 0.133667 0.52043 0.29855C0.232993 0.463433 0.245054 1.02428 0.547343 1.55125C0.849627 2.07822 1.32767 2.37175 1.61511 2.20687L1.61511 2.20687Z" id="Vector" fill="#2185F8" fill-rule="evenodd" stroke="none" />
            </g>
            <g id="Group" transform="translate(0.37249535 0.51789653)">
              <path d="M1.13031 1.46319C1.36984 1.32579 1.40809 0.942545 1.21573 0.607203C1.02337 0.27186 0.673219 0.111399 0.433693 0.248799C0.194167 0.386199 0.155948 0.76944 0.348312 1.10478C0.540675 1.44012 0.890784 1.60059 1.13031 1.46319L1.13031 1.46319Z" id="Vector" fill="#FFE200" fill-rule="evenodd" stroke="none" />
            </g>
          </g>
        </g>
        <path d="M39.725 38.525C39.725 38.025 40.125 37.325 40.525 37.025L56.625 27.725C56.825 27.625 57.025 27.625 57.125 27.625L61.125 28.925C61.325 29.025 61.425 29.225 61.425 29.525L61.425 33.025C61.425 33.625 61.025 34.425 60.425 34.725L42.625 45.425C42.225 45.625 41.825 45.425 41.725 45.225C40.925 44.225 39.825 41.725 39.825 41.725C39.825 41.725 39.625 41.625 39.625 41.225L39.725 38.525L39.725 38.525Z" id="Vector" fill="url(#gradient_18)" fill-rule="evenodd" stroke="none" />
      </g>
    </g>
  </g>
</svg>