<?xml version="1.0" encoding="utf-8"?>
<svg width="100px" height="100px" viewBox="0 0 100 100" version="1.1" xmlns:xlink="http://www.w3.org/1999/xlink" xmlns="http://www.w3.org/2000/svg">
  <defs>
    <linearGradient gradientUnits="objectBoundingBox" x1="-0.0001378205" y1="0.50000334" x2="1.0002586" y2="0.50000334" id="gradient_1">
      <stop offset="0%" stop-color="#92A6F1" />
      <stop offset="100%" stop-color="#FFFFFF" />
    </linearGradient>
    <linearGradient gradientUnits="objectBoundingBox" x1="0.0012092651" y1="0.49904698" x2="0.9989728" y2="0.49904698" id="gradient_2">
      <stop offset="33.75%" stop-color="#97B5E1" />
      <stop offset="59.320004%" stop-color="#E8F1FF" />
    </linearGradient>
    <linearGradient gradientUnits="objectBoundingBox" x1="0.9965363" y1="0.5778702" x2="0.0054463707" y2="0.4224475" id="gradient_3">
      <stop offset="0%" stop-color="#FFFFFF" />
      <stop offset="100%" stop-color="#C9D9F4" />
    </linearGradient>
    <linearGradient gradientUnits="objectBoundingBox" x1="0.9958108" y1="0.5779671" x2="0.0031162824" y2="0.42244887" id="gradient_4">
      <stop offset="0%" stop-color="#FFFFFF" />
      <stop offset="100%" stop-color="#C9D9F4" />
    </linearGradient>
    <linearGradient gradientUnits="objectBoundingBox" x1="0.86197436" y1="0.848572" x2="0.33347437" y2="0.047630306" id="gradient_5">
      <stop offset="0%" stop-color="#103DB5" />
      <stop offset="64.26%" stop-color="#6BABFD" />
    </linearGradient>
    <linearGradient gradientUnits="objectBoundingBox" x1="0.8524373" y1="0.8392717" x2="0.32391348" y2="0.03829389" id="gradient_6">
      <stop offset="0%" stop-color="#103DB5" />
      <stop offset="64.26%" stop-color="#6BABFD" />
    </linearGradient>
    <linearGradient gradientUnits="objectBoundingBox" x1="0.34376606" y1="0.23524784" x2="0.5963303" y2="0.61418647" id="gradient_7">
      <stop offset="0%" stop-color="#0CFFFC" stop-opacity="0.6" />
      <stop offset="100%" stop-color="#FFFFFF" stop-opacity="0" />
    </linearGradient>
    <linearGradient gradientUnits="objectBoundingBox" x1="0.0901608" y1="0.5379219" x2="1.2039648" y2="0.42776874" id="gradient_8">
      <stop offset="0%" stop-color="#103DB5" />
      <stop offset="64.26%" stop-color="#6BABFD" />
    </linearGradient>
    <linearGradient gradientUnits="objectBoundingBox" x1="-88.660126" y1="0.50092036" x2="-89.65787" y2="0.50092036" id="gradient_9">
      <stop offset="0%" stop-color="#FF8000" />
      <stop offset="100%" stop-color="#FFD000" />
    </linearGradient>
    <linearGradient gradientUnits="objectBoundingBox" x1="-332.36102" y1="0.49976906" x2="-333.35358" y2="0.49976906" id="gradient_10">
      <stop offset="2.1%" stop-color="#EDBD6A" />
      <stop offset="58.1%" stop-color="#F4AC6A" />
      <stop offset="100%" stop-color="#F7A66A" />
    </linearGradient>
    <linearGradient gradientUnits="objectBoundingBox" x1="-108.74064" y1="0.50679237" x2="-109.75188" y2="0.50679237" id="gradient_11">
      <stop offset="0%" stop-color="#FF8000" />
      <stop offset="100%" stop-color="#FFD000" />
    </linearGradient>
    <linearGradient gradientUnits="objectBoundingBox" x1="-489.46207" y1="0.50946933" x2="-490.43628" y2="0.50946933" id="gradient_12">
      <stop offset="2.1%" stop-color="#EDBD6A" />
      <stop offset="58.1%" stop-color="#F4AC6A" />
      <stop offset="100%" stop-color="#F7A66A" />
    </linearGradient>
    <linearGradient gradientUnits="objectBoundingBox" x1="0.014741702" y1="0.50688463" x2="1.007987" y2="0.50688463" id="gradient_13">
      <stop offset="0%" stop-color="#92A6F1" />
      <stop offset="100%" stop-color="#FFFFFF" />
    </linearGradient>
    <linearGradient gradientUnits="objectBoundingBox" x1="-0.014701317" y1="0.5068421" x2="0.9673437" y2="0.5068421" id="gradient_14">
      <stop offset="0%" stop-color="#1067DB" />
      <stop offset="100%" stop-color="#05105D" />
    </linearGradient>
    <linearGradient gradientUnits="objectBoundingBox" x1="0.006423801" y1="0.5006374" x2="1.0079434" y2="0.5006374" id="gradient_15">
      <stop offset="0%" stop-color="#1067DB" />
      <stop offset="100%" stop-color="#1CA2F9" />
    </linearGradient>
    <linearGradient gradientUnits="objectBoundingBox" x1="-0.0013244839" y1="0.49926305" x2="1.0050994" y2="0.49926305" id="gradient_16">
      <stop offset="0%" stop-color="#1067DB" />
      <stop offset="100%" stop-color="#1CA2F9" />
    </linearGradient>
    <linearGradient gradientUnits="objectBoundingBox" x1="0.0024657797" y1="0.50218874" x2="1.0095216" y2="0.50218874" id="gradient_17">
      <stop offset="0%" stop-color="#1067DB" />
      <stop offset="100%" stop-color="#1CA2F9" />
    </linearGradient>
    <linearGradient gradientUnits="objectBoundingBox" x1="-0.009941046" y1="0.48323745" x2="0.9796783" y2="0.48323745" id="gradient_18">
      <stop offset="0%" stop-color="#1067DB" />
      <stop offset="100%" stop-color="#1CA2F9" />
    </linearGradient>
    <linearGradient gradientUnits="objectBoundingBox" x1="-0.17264394" y1="0.8595264" x2="0.66514397" y2="0.18935156" id="gradient_19">
      <stop offset="0%" stop-color="#97B5E1" />
      <stop offset="100%" stop-color="#ECF1FA" />
    </linearGradient>
    <linearGradient gradientUnits="objectBoundingBox" x1="1.0781707" y1="0.7882405" x2="-0.19156098" y2="0.041303597" id="gradient_20">
      <stop offset="0%" stop-color="#FFFFFF" />
      <stop offset="100%" stop-color="#C9D9F4" />
    </linearGradient>
    <linearGradient gradientUnits="objectBoundingBox" x1="1.1802208" y1="0.8634956" x2="0.33106497" y2="0.2101685" id="gradient_21">
      <stop offset="0%" stop-color="#97B5E1" />
      <stop offset="100%" stop-color="#ECF1FA" />
    </linearGradient>
    <linearGradient gradientUnits="objectBoundingBox" x1="-0.07437502" y1="0.8008615" x2="1.2081041" y2="0.05223395" id="gradient_22">
      <stop offset="0%" stop-color="#FFFFFF" />
      <stop offset="100%" stop-color="#C9D9F4" />
    </linearGradient>
  </defs>
  <g id="iso_build_8x">
    <path d="M100 0L100 0L100 100L0 100L0 0L100 0Z" id="iso_build_8x" fill="none" stroke="none" />
    <g id="Group" transform="translate(3.1999817 0.46059415)">
      <g id="Group" transform="translate(0 35.2894)">
        <g id="Group" transform="translate(0.062438488 9.400009)" opacity="0.4">
          <path d="M89.1376 20.95C95.0376 24.35 95.0376 29.85 89.2376 33.25L57.5376 51.65C51.7376 55.05 42.2376 55.05 36.3376 51.65L4.43757 33.25C-1.46243 29.85 -1.46241 24.35 4.33759 20.95L36.0376 2.55C41.8376 -0.85 51.3376 -0.85 57.2376 2.55L89.1376 20.95L89.1376 20.95Z" id="Vector" fill="#00357C" fill-opacity="0.4" fill-rule="evenodd" stroke="none" />
        </g>
        <g id="Group">
          <path d="M93.6 27.15L0 27.15L0 30.45C0 32.65 1.50002 34.85 4.40002 36.55L36.3 54.95C42.2 58.35 51.7 58.35 57.5 54.95L89.2 36.55C92.1 34.85 93.6 32.65 93.6 30.45L93.6 27.15L93.6 27.15Z" id="Vector" fill="url(#gradient_1)" fill-rule="evenodd" stroke="none" />
          <g id="Group" transform="translate(0.062438488 0)">
            <path d="M89.1376 20.95C95.0376 24.35 95.0376 29.85 89.2376 33.25L57.5376 51.65C51.7376 55.05 42.2376 55.05 36.3376 51.65L4.43757 33.25C-1.46243 29.85 -1.46241 24.35 4.33759 20.95L36.0376 2.55C41.8376 -0.85 51.3376 -0.85 57.2376 2.55L89.1376 20.95L89.1376 20.95Z" id="Vector" fill="#F3F8FE" fill-rule="evenodd" stroke="none" />
          </g>
        </g>
      </g>
      <g id="Group" transform="translate(9.562408 40.664413)">
        <path d="M28.7119 2.0589L28.7111 2.05937L3.61308 16.6582L3.61189 16.6589C1.21743 18.0348 -0.0132656 19.8545 0.000107244 21.7268C0.0134662 23.597 1.26775 25.4152 3.61105 26.7906L3.61227 26.7913L28.8123 41.3913L28.8131 41.3918C31.2094 42.7684 34.3048 43.45 37.3751 43.45C40.4447 43.45 43.5159 42.7687 45.8633 41.3911L45.8641 41.3906L70.9633 26.7911L70.9642 26.7906C73.3102 25.4136 74.5143 23.5927 74.4876 21.7214C74.4609 19.8527 73.2078 18.035 70.8641 16.6594L70.8633 16.6589L45.7633 2.0589L45.7621 2.05822C43.3658 0.68161 40.2704 0 37.2001 0C34.1304 0 31.0592 0.681361 28.7119 2.0589L28.7119 2.0589ZM28.9642 2.4906C31.2167 1.16848 34.1952 0.5 37.2001 0.5C40.2043 0.5 43.2084 1.16816 45.5119 2.4911L45.5131 2.49179L70.611 17.0906L70.6119 17.0911C72.8676 18.4154 73.9643 20.0975 73.9876 21.7286C74.0109 23.3571 72.9652 25.036 70.7119 26.3589L70.7111 26.3594L45.6119 40.9589L45.611 40.9594C43.3585 42.2815 40.38 42.95 37.3751 42.95C34.3708 42.95 31.3665 42.2818 29.0629 40.9587L29.0621 40.9582L3.86415 26.3594L3.86294 26.3587C1.60706 25.0342 0.511734 23.3527 0.500095 21.7232C0.48847 20.0958 1.55736 18.4158 3.86213 17.0918L3.8633 17.0911L28.9633 2.4911L28.9642 2.4906L28.9642 2.4906ZM28.8323 2.26581L29.8323 3.26581L28.8728 2.30671L28.8323 2.26581L28.8323 2.26581Z" id="Vector" fill="#0CFFFC" fill-rule="evenodd" stroke="none" />
      </g>
      <g id="Group" transform="translate(15.475037 31.314407)">
        <g id="Group" transform="translate(0.099975586 12.199997)">
          <path d="M59.525 14.025C63.425 16.325 63.425 19.925 59.625 22.225L38.425 34.525C34.525 36.825 28.225 36.825 24.225 34.525L2.925 22.225C-0.975 19.925 -0.975 16.325 2.925 14.025L24.125 1.725C28.025 -0.575 34.325 -0.575 38.225 1.725L59.525 14.025L59.525 14.025Z" id="Vector" fill="#BCD0F1" fill-rule="evenodd" stroke="none" />
        </g>
        <path d="M62.625 18.125L0.0249636 18.125L0.0249636 30.325C0.0249636 31.825 1.02496 33.325 3.02496 34.425L24.325 46.725C28.225 49.025 34.625 49.025 38.525 46.725L59.725 34.425C61.625 33.325 62.625 31.825 62.625 30.325L62.625 18.125L62.625 18.125Z" id="Vector" fill="url(#gradient_2)" fill-rule="evenodd" stroke="none" />
        <path d="M59.625 14.025C63.525 16.325 63.525 19.925 59.725 22.225L38.525 34.525C34.625 36.825 28.325 36.825 24.325 34.525L3.02498 22.225C-0.875024 19.925 -0.875024 16.325 3.02498 14.025L24.225 1.725C28.125 -0.575 34.425 -0.575 38.325 1.725L59.625 14.025L59.625 14.025Z" id="Vector" fill="#BCD0F1" fill-rule="evenodd" stroke="none" />
        <g id="Group" transform="translate(0 0.024993777)">
          <path d="M31.225 0C28.625 0 26.125 0.600012 24.125 1.70001L2.925 14C-0.975 16.3 -0.975 19.9 2.925 22.2L24.225 34.5C26.225 35.6 28.725 36.2 31.325 36.2C33.925 36.2 36.425 35.6 38.425 34.5L59.625 22.2C63.525 19.9 63.525 16.3 59.525 14L38.225 1.70001C36.3494 0.614122 33.889 0.015475 31.325 0.000295953L31.325 0L31.225 0L31.225 0ZM24.525 2.10001C26.3129 1.00738 28.6929 0.506731 31.2727 0.500067C33.8544 0.507363 36.236 1.10613 38.025 2.10001L59.325 14.4C61.025 15.4 62.025 16.7 62.025 18.1C62.025 19.5 61.125 20.8 59.325 21.7L38.225 34.1C36.425 35.2 34.025 35.7 31.425 35.7C28.825 35.7 26.425 35.1 24.625 34.1L3.32499 21.8C1.62499 20.8 0.624982 19.5 0.624982 18.1C0.624982 16.7 1.52499 15.4 3.32499 14.4L24.525 2.10001L24.525 2.10001Z" id="Vector" fill="url(#gradient_3)" fill-rule="evenodd" stroke="none" />
        </g>
        <g id="Group" transform="translate(7.7123423 4.425003)" opacity="0.5">
          <path d="M23.5126 1.19209e-07C21.6126 1.19209e-07 19.6127 0.400003 18.2127 1.3L2.21266 10.6C-0.787341 12.3 -0.687341 15.1 2.21266 16.8L18.3126 26.1C19.8126 27 21.7127 27.4 23.7127 27.4C25.6127 27.4 27.6126 27 29.1126 26.1L45.1126 16.8C48.0126 15.1 48.0126 12.3 45.1126 10.6L29.0126 1.3C27.4126 0.400003 25.5126 1.19209e-07 23.5126 1.19209e-07L23.5126 1.19209e-07ZM23.5126 0.199997C25.5126 0.199997 27.3127 0.6 28.7127 1.5L44.8126 10.8C46.2126 11.6 46.9127 12.6 46.9127 13.7C46.9127 14.8 46.2126 15.8 44.8126 16.6L28.8126 25.9C27.4126 26.7 25.6126 27.2 23.6126 27.2C21.6126 27.2 19.8127 26.8 18.4127 25.9L2.31263 16.6C0.912634 15.8 0.212659 14.8 0.212659 13.7C0.212659 12.6 0.912634 11.6 2.31263 10.8L18.3126 1.5C19.7126 0.7 21.5126 0.199997 23.5126 0.199997L23.5126 0.199997Z" id="Vector" fill="url(#gradient_4)" fill-rule="evenodd" stroke="none" />
        </g>
        <g id="Group" transform="translate(39.82495 27.648361)">
          <path d="M0.800049 9.47665C0.300049 9.77665 0 10.3766 0 10.9766L0 13.7766C0 14.2766 0.400024 14.5766 0.900024 14.2766L17 4.97665C17.5 4.67665 17.8 4.07665 17.8 3.47665L17.8 0.67664C17.8 0.17664 17.4 -0.12336 16.9 0.17664L0.800049 9.47665L0.800049 9.47665Z" id="Vector" fill="#0CFFFC" fill-rule="evenodd" stroke="none" />
          <path d="M0.100024 13.6766L16.2 4.37663C16.7 4.07663 17 3.47663 17 2.87663L17 0.0766406C17.4 -0.123359 17.8 0.0766406 17.8 0.576641L17.8 3.37663C17.8 3.87663 17.4 4.57663 17 4.87663L0.900012 14.1766C0.400012 14.4766 2.44156e-05 14.2766 0.100024 13.6766L0.100024 13.6766Z" id="Vector" fill="#1964BA" fill-rule="evenodd" stroke="none" />
        </g>
        <g id="Group" transform="translate(4.9107018 30.425003)">
          <g id="Group">
            <path d="M1.71427 2.39999L2.41428 2C2.51428 1.9 2.61427 1.7 2.61427 1.5C2.61427 1 2.21428 0.399991 1.81428 0.0999908C1.61429 0 1.41431 0 1.21432 0L1.21427 0L0.514287 0.399994L1.71427 2.39999L1.71427 2.39999Z" id="Vector" fill="url(#gradient_5)" fill-rule="evenodd" stroke="none" />
            <g id="Group" transform="translate(0 0.17714852)">
              <path d="M1.61511 2.20687C1.90254 2.04199 1.8905 1.48112 1.58822 0.954151C1.28593 0.427184 0.807867 0.133667 0.52043 0.29855C0.232993 0.463433 0.245047 1.02427 0.547333 1.55124C0.849617 2.0782 1.32767 2.37175 1.61511 2.20687L1.61511 2.20687Z" id="Vector" fill="#2185F8" fill-rule="evenodd" stroke="none" />
            </g>
            <g id="Group" transform="translate(0.37249523 0.5240915)">
              <path d="M1.1303 1.46318C1.36983 1.32578 1.40809 0.942537 1.21572 0.60719C1.02336 0.271847 0.673219 0.111399 0.433693 0.248799C0.194167 0.386199 0.15594 0.769427 0.348304 1.10477C0.54067 1.44012 0.890774 1.60058 1.1303 1.46318L1.1303 1.46318Z" id="Vector" fill="#0CFFFC" fill-rule="evenodd" stroke="none" />
            </g>
          </g>
          <g id="Group" transform="translate(3.3082583 1.8999939)">
            <path d="M1.70603 2.40001L2.40604 2C2.50604 1.9 2.606 1.7 2.606 1.5C2.606 1 2.20601 0.400006 1.80601 0.100006C1.60601 6.10203e-06 1.40603 0 1.20603 0L0.506016 0.400009L1.70603 2.40001L1.70603 2.40001Z" id="Vector" fill="url(#gradient_6)" fill-rule="evenodd" stroke="none" />
            <g id="Group" transform="translate(0 0.1643467)">
              <path d="M1.61513 2.20687C1.90257 2.04199 1.89054 1.48113 1.58825 0.954169C1.28597 0.427197 0.807894 0.133666 0.520456 0.29855C0.233019 0.463433 0.245054 1.0243 0.547343 1.55127C0.849627 2.07823 1.32769 2.37175 1.61513 2.20687L1.61513 2.20687Z" id="Vector" fill="#2185F8" fill-rule="evenodd" stroke="none" />
            </g>
            <g id="Group" transform="translate(0.3725258 0.5112896)">
              <path d="M1.13033 1.46318C1.36986 1.32578 1.40809 0.942545 1.21573 0.607203C1.02337 0.27186 0.673244 0.111385 0.433709 0.24879C0.194174 0.386195 0.155948 0.76944 0.348312 1.10478C0.540675 1.44012 0.890791 1.60059 1.13033 1.46318L1.13033 1.46318Z" id="Vector" fill="#FFE200" fill-rule="evenodd" stroke="none" />
            </g>
          </g>
        </g>
        <path d="M39.825 38.525C39.825 38.025 40.225 37.325 40.625 37.025L56.725 27.725C56.925 27.625 57.125 27.625 57.225 27.625L61.225 28.925C61.425 29.025 61.525 29.225 61.525 29.525L61.525 33.025C61.525 33.625 61.125 34.425 60.525 34.725L42.725 45.425C42.325 45.625 41.925 45.425 41.825 45.225C41.025 44.225 39.925 41.725 39.925 41.725C39.925 41.725 39.725 41.625 39.725 41.225L39.825 38.525L39.825 38.525Z" id="Vector" fill="url(#gradient_7)" fill-rule="evenodd" stroke="none" />
      </g>
      <g id="Group" transform="translate(38 5.700012)">
        <path d="M0.100037 37.1394C3.66196e-05 36.9394 0 36.9394 0 36.8394L0 36.0394C0.1 35.6394 0.300012 35.2394 0.700012 35.0394L6.90002 31.4394C7.70002 30.9394 8.7 30.9394 9.5 31.4394L29.3 42.8394C29.7 43.0394 29.9 43.4394 30 43.8394L30 44.6394C30 44.7394 29.9 44.8394 29.9 44.8394L29.9 44.9394C29.8 45.0394 29.8 45.1394 29.7 45.2394L29.6 45.3394C29.5 45.4394 29.4 45.5394 29.3 45.5394L23.1 49.1394C23 49.2394 22.9 49.2394 22.8 49.3394C22.3 49.5394 21.7 49.6394 21.2 49.4394C21 49.3394 20.8 49.3394 20.6 49.1394L0.799988 37.7394C0.699988 37.6394 0.6 37.6394 0.5 37.5394L0.400024 37.4394C0.200024 37.2394 0.100037 37.2394 0.100037 37.1394L0.100037 37.1394Z" id="路径_5301_1_" fill="#00357C" fill-opacity="0.080000006" fill-rule="evenodd" stroke="none" />
        <g id="Group" transform="translate(5.299988 0)">
          <g id="Group">
            <path d="M18.8 8.93939L3.70002 0.239391C3.20002 -0.0606088 2.80003 -0.0606149 2.40003 0.139385L0.600037 1.13939L1.90003 2.53939L1.80005 33.1394C1.80005 34.2394 2.6 35.5394 3.5 36.1394L18 44.5394L18 46.1394L19.9 45.0394C20.2 44.8394 20.4 44.4394 20.4 43.9394L20.5 12.0394C20.5 10.8394 19.7 9.43939 18.8 8.93939L18.8 8.93939Z" id="Vector" fill="url(#gradient_8)" fill-rule="evenodd" stroke="none" />
            <g id="Group" transform="translate(0 1.1265719)">
              <path d="M16.9 8.91283C17.9 9.41283 18.6 10.8128 18.6 11.9128L18.5 43.8128C18.5 44.9128 17.7 45.3128 16.8 44.8128L1.70001 36.1128C0.700012 35.6128 0 34.2128 0 33.1128L0.100037 1.21283C0.100037 0.112832 0.900049 -0.287168 1.80005 0.212832L16.9 8.91283L16.9 8.91283Z" id="Vector" fill="#00357C" fill-opacity="0.4" fill-rule="evenodd" stroke="none" />
            </g>
          </g>
          <g id="Group" transform="translate(1.1000366 4.8215795)">
            <g id="Group" transform="translate(6.0999756 1.1763912)">
              <path d="M3.60004 2.04142C3.70004 2.14142 3.79999 2.24143 3.79999 2.34143C3.79999 2.44143 3.70004 2.54142 3.60004 2.44142L0.200012 0.441417C0.100012 0.341417 0 0.241414 0 0.141414C0 0.0414141 0.100012 -0.0585767 0.200012 0.0414233L3.60004 2.04142L3.60004 2.04142Z" id="Vector" fill="#F3F8FE" fill-rule="evenodd" stroke="none" />
            </g>
            <g id="Group" transform="translate(5.3999634 31.74141)">
              <path d="M1.30005 0.176405C2.00005 0.576405 2.60004 1.5764 2.60004 2.3764C2.60004 3.1764 2.00005 3.4764 1.30005 3.0764C0.600049 2.6764 0 1.6764 0 0.876402C0 0.0764025 0.600049 -0.223595 1.30005 0.176405L1.30005 0.176405Z" id="Vector" fill="#F3F8FE" fill-rule="evenodd" stroke="none" />
            </g>
            <g id="Group">
              <path d="M14.3 7.51782C15.1 8.01782 15.7 9.11782 15.7 10.0178L15.6 34.6178C15.6 35.5178 14.9 35.9178 14.1 35.4178L1.39996 28.1178C0.599963 27.6178 0 26.5178 0 25.6178L0.0999756 1.01782C0.0999756 0.117818 0.799976 -0.282185 1.59998 0.217815L14.3 7.51782L14.3 7.51782Z" id="Vector" fill="#F3F8FE" fill-rule="evenodd" stroke="none" />
            </g>
          </g>
        </g>
      </g>
      <g id="Group" transform="translate(30.83722 16.740738)">
        <path d="M7.76282 21.6987C7.76282 21.6987 8.56281 26.6987 8.56281 27.3987C8.56281 27.6962 8.41827 29.2584 8.25975 30.9717C8.04532 33.2894 7.8053 35.8837 7.8628 35.9987C7.9628 36.1987 6.76282 36.2987 6.76282 35.5987C6.76282 34.8987 6.56277 28.1987 6.46277 27.6987C6.36277 27.1987 5.56281 22.3987 5.56281 22.3987L7.76282 21.6987L7.76282 21.6987Z" id="路径_5489_2_" fill="#F9B888" fill-rule="evenodd" stroke="none" />
        <path d="M3.5628 21.4987C3.5628 21.4987 4.36279 26.4987 4.36279 27.1987C4.36279 27.4962 4.21826 29.0584 4.05974 30.7717C3.84531 33.0894 3.60529 35.6837 3.66278 35.7987C3.76278 35.9987 2.5628 36.0987 2.5628 35.3987C2.5628 34.6987 2.36281 27.9987 2.26282 27.4987C2.16282 26.9987 1.36279 22.1987 1.36279 22.1987L3.5628 21.4987L3.5628 21.4987Z" id="路径_5490_2_" fill="#F9B888" fill-rule="evenodd" stroke="none" />
        <path d="M2.26282 21.6987C2.26282 21.6987 2.46278 23.1987 2.66278 24.3987C2.76278 24.4987 2.86277 24.5987 2.96277 24.7987C3.36277 25.3987 4.16281 25.4987 5.06281 25.3987C4.96281 23.9987 4.66278 21.1987 4.66278 21.1987L2.26282 21.6987L2.26282 21.6987Z" id="路径_5491_2_" fill="#F4C0A6" fill-rule="evenodd" stroke="none" />
        <path d="M0.362793 23.3987C0.802831 23.9365 1.12334 23.9006 1.45289 23.8637C1.79736 23.8251 2.15171 23.7854 2.66278 24.3987C2.76278 24.4987 2.86277 24.5987 2.96277 24.7987C3.36277 25.3987 4.1628 25.4987 5.0628 25.3987C5.3628 25.3987 5.66277 25.2987 5.96277 25.2987C6.66277 25.1987 7.3628 24.9987 8.0628 24.6987C9.0628 24.3987 9.86279 23.9987 9.86279 23.9987L8.26281 17.4987L7.5628 14.6987L7.36279 13.8987L2.16278 13.9987L1.46277 17.1987L0.362793 23.3987L0.362793 23.3987Z" id="路径_5492_2_" fill="#1CA2F9" fill-rule="evenodd" stroke="none" />
        <path d="M4.56281 4.99868L5.46277 5.29868L5.8628 5.39866C5.8628 5.39866 5.96279 4.79868 6.16279 4.49868C6.36279 4.19868 6.46277 4.29868 6.46277 4.29868L6.3628 3.79868L6.16279 2.79868C6.16279 2.79868 4.96279 3.39867 4.86279 3.49867C4.76279 3.59867 4.56281 4.99868 4.56281 4.99868L4.56281 4.99868Z" id="路径_5493_2_" fill="#F9B888" fill-rule="evenodd" stroke="none" />
        <path d="M5.46277 5.29868L5.86279 5.39867C5.86279 5.39867 5.96278 4.79867 6.16278 4.49867C6.36278 4.19867 6.46277 4.29868 6.46277 4.29868L6.36279 3.79868C6.26279 3.79868 6.16278 3.69867 6.16278 3.69867C6.16278 3.69867 6.36281 4.19866 6.06281 4.59866C5.76281 4.89866 5.56277 5.19868 5.46277 5.29868L5.46277 5.29868Z" id="路径_5494_2_" fill="#EF9EA3" fill-opacity="0.2" fill-rule="evenodd" stroke="none" />
        <path d="M0.562805 16.3986C0.562805 16.3986 3.6628 19.8986 6.8628 18.5986C7.6628 18.2986 8.3628 17.6986 8.86279 17.0986C8.86279 17.0986 7.66277 13.3987 7.96277 12.8987C8.26276 12.4987 9.16279 11.5987 9.16279 11.0987L9.16279 10.9987C9.06279 10.4987 7.56281 6.69868 7.56281 6.69868C7.56281 6.59868 4.86281 4.19867 3.56281 4.09867C2.92216 4.05291 2.70032 6.18493 2.43732 8.71242C2.1256 11.7082 1.75607 15.2596 0.562805 16.3986L0.562805 16.3986Z" id="路径_5495_2_" fill="url(#gradient_9)" fill-rule="evenodd" stroke="none" />
        <path d="M11.6628 9.69867C11.6628 9.69867 10.6628 7.79867 10.4628 7.69867C10.2628 7.49867 9.16282 6.69867 9.26282 6.89867C9.36282 7.09867 9.96277 7.99868 9.96277 8.29868C9.96277 8.59868 9.66278 8.79867 9.66278 8.89867C9.66278 8.99867 11.0628 10.1987 11.0628 10.1987L11.6628 9.69867L11.6628 9.69867Z" id="路径_5496_2_" fill="#F9B888" fill-rule="evenodd" stroke="none" />
        <path d="M6.8628 18.5987C7.6628 18.2987 8.3628 17.6987 8.8628 17.0987C8.8628 17.0987 7.66278 13.3987 7.96278 12.8987C8.26278 12.4987 9.16279 11.5987 9.16279 11.0987C8.16279 10.2987 6.8628 9.29868 6.8628 9.29868C6.8628 9.29868 6.66283 11.8987 7.26283 12.3987C7.76283 12.8987 8.1628 17.9987 6.8628 18.5987L6.8628 18.5987Z" id="路径_5497_2_" fill="url(#gradient_10)" fill-opacity="0.3" fill-rule="evenodd" stroke="none" />
        <path d="M7.76284 11.6987C7.76284 11.6987 11.6628 13.8987 12.4628 13.8987C13.2628 13.8987 13.9628 13.2987 13.9628 12.8987C13.9628 12.5987 11.5628 9.39867 11.5628 9.39867C11.4628 9.39867 11.2628 9.49867 11.1628 9.49867C11.0628 9.59867 10.8628 9.69868 10.7628 9.79868C10.4628 9.49868 7.86278 7.09867 7.46279 6.69867C7.16279 6.39867 6.06283 10.2987 7.76284 11.6987L7.76284 11.6987Z" id="路径_5498_2_" fill="url(#gradient_11)" fill-rule="evenodd" stroke="none" />
        <path d="M10.8628 9.89867L12.4628 11.0987C12.3628 10.9987 11.3628 9.99866 11.2628 9.59866C11.0628 9.69866 10.9628 9.79867 10.8628 9.89867L10.8628 9.89867Z" id="路径_5499_2_" fill="url(#gradient_12)" fill-opacity="0.3" fill-rule="evenodd" stroke="none" />
        <g id="组_2359_2_">
          <path d="M7.0818 1.99867L7.0818 1.39866C6.9818 0.0986644 5.28181 1.29867 4.78181 2.29867C4.18181 3.29867 6.48182 5.19867 6.98182 4.29867C7.58182 3.19867 7.28181 2.39866 7.28181 2.39866C7.08181 2.19866 7.0818 2.09867 7.0818 1.99867L7.0818 1.99867Z" id="路径_5500_2_" fill="#F9B888" fill-rule="evenodd" stroke="none" />
          <path d="M7.08178 1.99868L7.08178 1.39867C6.98178 0.398673 5.98179 0.898676 5.18179 1.69868L5.2818 1.69868C5.3818 1.69868 5.48181 1.69868 5.48181 1.79868C5.58181 1.79868 5.58179 1.69868 5.68179 1.69868C5.88179 1.69868 6.38181 1.59867 6.48181 1.59867C6.78181 1.69867 6.6818 2.19867 6.8818 2.59867C7.06588 2.96682 6.91112 3.4197 6.80734 3.72338C6.79836 3.74965 6.78977 3.7748 6.7818 3.79869C6.6818 4.09869 6.48178 4.39868 6.08179 4.49868C6.38178 4.59868 6.6818 4.59869 6.8818 4.29869C7.4818 3.19868 7.18179 2.39868 7.18179 2.39868C7.08179 2.19868 7.08178 2.09868 7.08178 1.99868L7.08178 1.99868Z" id="路径_5501_2_" fill="#EF9EA3" fill-opacity="0.2" fill-rule="evenodd" stroke="none" />
          <path d="M5.38181 0.0986595C4.97623 0.233853 4.66203 0.220545 4.39675 0.209309C3.87714 0.187301 3.5452 0.173242 3.08179 1.29867C2.58179 2.59867 1.58182 1.39866 0.981819 2.89866C0.70299 3.59573 0.704907 3.88248 0.706564 4.13024C0.708473 4.41562 0.710036 4.64926 0.281806 5.39866C-0.257098 6.3225 0.0930253 7.24633 0.373978 7.98765C0.457963 8.20926 0.535767 8.41455 0.581794 8.59866C0.644409 8.76563 0.715736 8.91518 0.783956 9.05821C1.0426 9.60048 1.25658 10.0491 0.781806 10.9987C0.781806 10.9987 3.3818 10.9987 3.1818 9.09866C3.07203 8.05585 3.50449 7.8565 3.9005 7.67394C4.22603 7.52388 4.52694 7.38517 4.48182 6.79867C4.42584 6.18283 4.77731 6.06849 5.09755 5.96431C5.34932 5.8824 5.58179 5.80677 5.58179 5.49867C5.58179 5.25156 5.71888 5.05429 5.86107 4.84968C6.12166 4.4747 6.3994 4.07505 5.88181 3.29867C5.61727 2.92831 5.99655 2.61394 6.39763 2.28151C6.75462 1.98561 7.12888 1.67541 7.08179 1.29867C7.18179 0.598672 6.68181 -0.30134 5.38181 0.0986595L5.38181 0.0986595Z" id="路径_5502_2_" fill="#05105D" fill-rule="evenodd" stroke="none" />
          <path d="M6.84039 2.49867C6.84039 2.39867 6.16077 2.19867 5.93423 2.39867C5.73695 2.65991 5.88327 2.84533 6.07396 3.08698C6.10225 3.12283 6.13152 3.15992 6.16079 3.19867C6.38733 3.39867 6.61384 3.29867 6.61384 3.19867C6.61384 3.09867 6.84039 2.89867 6.84039 2.49867L6.84039 2.49867Z" id="路径_5503_2_" fill="#F9B888" fill-rule="evenodd" stroke="none" />
        </g>
        <path d="M4.06281 36.4987C3.46281 36.1987 3.66279 35.0987 3.66279 35.0987L3.66277 35.0987C3.26277 35.0987 2.86276 35.0987 2.46277 34.8987C2.46277 35.1987 2.16281 35.7987 2.06281 36.2987C2.06281 36.6987 2.36279 36.8987 2.36279 37.2987L2.66278 37.2987L2.56281 36.4987C3.06281 36.4987 3.66282 37.2987 4.26282 37.2987C4.86282 37.2987 5.06279 37.0987 5.16279 36.8987C5.2142 36.7958 5.08059 36.7723 4.85708 36.733C4.64585 36.6958 4.35433 36.6444 4.06281 36.4987L4.06281 36.4987Z" id="路径_5504_2_" fill="#05105D" fill-rule="evenodd" stroke="none" />
        <path d="M8.36279 36.9987C7.76279 36.5987 7.86279 35.5987 7.86279 35.5987L7.86268 35.5987C7.46272 35.5987 7.06279 35.5987 6.76282 35.4987C6.76282 35.7987 6.36279 36.3987 6.36279 36.8987C6.36279 37.2987 6.66278 37.5987 6.66278 37.9987L6.96277 37.9987L6.76282 37.0987C7.26282 37.0987 7.9628 37.9987 8.5628 37.9987C9.2628 37.9987 9.46277 37.7987 9.46277 37.5987C9.5174 37.4348 9.36314 37.3903 9.1141 37.3184C8.90726 37.2587 8.63503 37.1802 8.36279 36.9987L8.36279 36.9987Z" id="路径_5505_2_" fill="#05105D" fill-rule="evenodd" stroke="none" />
      </g>
      <g id="Group" transform="translate(17.884613 24.623947)">
        <path d="M0.815414 6.11547L1.21541 8.81547C1.31541 9.61547 1.51543 13.6155 2.01543 14.2155C1.81543 14.1155 1.41541 13.9155 1.21541 13.7155C1.11541 13.6155 1.01543 13.4155 1.01543 13.2155L0.0154265 5.71546C-0.0845735 5.11546 0.315414 4.31546 0.815414 4.01546L7.41542 0.11547C7.61542 0.0154701 7.9154 -0.0845299 8.1154 0.11547C8.3154 0.21547 8.51544 0.315473 8.71544 0.415473C8.71544 0.415473 7.2154 1.21546 7.1154 1.21546L1.51543 4.41547C1.21543 5.01547 1.01541 5.51547 0.815414 6.11547L0.815414 6.11547Z" id="路径_6003_1_" fill="url(#gradient_13)" fill-rule="evenodd" stroke="none" />
        <path d="M1.51543 4.41547L8.1154 0.515456C8.6154 0.215456 9.11544 0.515462 9.21544 1.11546L10.2154 8.61547C10.3154 9.21547 9.91539 10.0155 9.41539 10.3155L2.81541 14.2155C2.31541 14.5155 1.81541 14.2155 1.71541 13.6155L0.715407 6.11547C0.615407 5.51547 1.01543 4.71547 1.51543 4.41547L1.51543 4.41547Z" id="路径_6004_1_" fill="#F3F8FE" fill-rule="evenodd" stroke="none" />
        <path d="M8.61541 3.01546C8.51541 2.01546 7.71542 1.61546 6.91542 2.01546L2.71541 4.51546C1.91541 5.01546 1.41543 6.11547 1.51543 7.11547L2.21541 12.0155C2.31541 13.0155 3.11542 13.4155 3.91542 13.0155L8.11541 10.5155C8.91541 10.0155 9.41542 8.91547 9.31542 7.91547L8.61541 3.01546L8.61541 3.01546Z" id="路径_6005_1_" fill="#D3DBF9" fill-rule="evenodd" stroke="none" />
        <g id="组_2426_1_" transform="translate(2.121643 1.9437714)">
          <g id="组_2424_1_">
            <path d="M6.51274 1.16569C6.51274 0.865689 6.51274 0.665692 6.41274 0.465692C6.31274 0.365692 6.21275 0.265695 6.11275 0.265695C6.01275 0.165695 5.91275 0.165683 5.71275 0.0656831C5.41275 -0.0343169 5.11274 -0.0343107 4.91274 0.165689L1.11275 2.46569C0.412748 2.86569 -0.0872584 3.96569 0.0127416 4.86569L0.612748 9.2657C0.612748 9.5657 0.712742 9.86568 1.01274 10.0657C1.11274 10.1657 1.21274 10.2657 1.41274 10.2657C1.51274 10.3657 1.71274 10.4657 1.91274 10.4657C2.11274 10.4657 2.21274 10.2657 2.41274 10.1657L6.21275 7.86569C6.91275 7.46569 7.41276 6.36569 7.31276 5.46569L6.51274 1.16569L6.51274 1.16569Z" id="路径_6006_1_" fill="url(#gradient_14)" fill-rule="evenodd" stroke="none" />
            <path d="M6.71276 1.36569C6.61276 0.465685 5.91276 0.0656914 5.21276 0.465691L1.41274 2.7657C0.712736 3.1657 0.212761 4.26569 0.312761 5.16569L0.912736 9.56568C1.01274 10.4656 1.71274 10.8657 2.41274 10.4657L6.21276 8.16569C6.91276 7.76569 7.41276 6.6657 7.31276 5.7657L6.71276 1.36569L6.71276 1.36569Z" id="路径_6007_1_" fill="#FFFFFF" fill-rule="evenodd" stroke="none" />
            <path d="M6.71276 1.36569C6.61276 0.465685 5.91276 0.0656914 5.21276 0.465691L1.41274 2.7657C0.712736 3.1657 0.212761 4.26569 0.312761 5.16569L0.412736 5.96569L6.81276 2.16569L6.71276 1.36569L6.71276 1.36569Z" id="路径_6008_1_" fill="url(#gradient_15)" fill-rule="evenodd" stroke="none" />
          </g>
          <g id="组_2425_1_" transform="translate(1.0307617 2.8624725)">
            <path d="M5.60001 0.239228C5.60001 0.039228 5.40002 -0.060769 5.30002 0.039231L0.300018 2.93922C0.100018 3.03922 0 3.23923 0 3.53923L0.100006 3.93922C0.100006 4.13923 0.300024 4.23922 0.400024 4.13922L5.40002 1.23923C5.60002 1.13923 5.70001 0.939222 5.60001 0.639222L5.60001 0.239228L5.60001 0.239228Z" id="路径_6009_1_" fill="url(#gradient_16)" fill-rule="evenodd" stroke="none" />
            <path d="M5.80002 1.83922C5.80002 1.63922 5.6 1.53922 5.5 1.63922L0.5 4.53923C0.3 4.63923 0.200012 4.83922 0.200012 5.13922L0.300018 5.53923C0.300018 5.73923 0.500006 5.83923 0.600006 5.73923L5.6 2.83922C5.8 2.73922 5.90002 2.53923 5.80002 2.23923L5.80002 1.83922L5.80002 1.83922Z" id="路径_6010_1_" fill="url(#gradient_17)" fill-rule="evenodd" stroke="none" />
            <path d="M6.00001 3.43922C6.00001 3.23922 5.80003 3.13923 5.70003 3.23923L0.700026 6.13922C0.500025 6.23922 0.400013 6.43923 0.500013 6.73923L0.600019 7.13922C0.600019 7.33923 0.800038 7.43922 0.900038 7.33922L5.90003 4.43923C6.10003 4.33923 6.20003 4.13922 6.20003 3.83922L6.00001 3.43922L6.00001 3.43922Z" id="路径_6011_1_" fill="url(#gradient_18)" fill-rule="evenodd" stroke="none" />
          </g>
        </g>
      </g>
      <g id="Group" transform="translate(2.1000361 0)">
        <path d="M4.76837e-07 10.4394C4.76837e-07 11.2394 0.299982 11.8394 0.699982 12.0394L1.79999 12.6394C1.79999 12.6394 12.8 4.43939 12.8 3.03939C12.8 3.03939 12.8 2.53939 12.7 2.23939C12.9 2.13939 13.2 2.03939 13.2 2.03939C13 1.93939 12.4 1.53939 12.1 1.43939C11.7 1.33939 11 1.53939 10.8 1.63939C10.8 1.33939 10.7 1.03938 10.6 0.839382L11.1 0.739391L10.1 0.139385C9.70001 -0.0606149 9.19998 -0.0606088 8.69998 0.239391C8.39998 0.439391 8.2 0.639382 8 0.839382C8 0.839382 7.49998 0.539382 7.19998 0.339382C6.89998 0.139385 6.6 0.139385 6.3 0.139385L5.79999 0.139385C5.49999 0.239385 5.19999 0.339394 4.89999 0.539394C3.69999 1.23939 2.6 2.63938 2 4.33938C1.6 5.33938 1.29999 6.63938 1.39999 7.33938C0.199994 8.53938 4.76837e-07 9.33939 4.76837e-07 10.4394L4.76837e-07 10.4394Z" id="路径_1684_18_" fill="url(#gradient_19)" fill-rule="evenodd" stroke="none" />
        <path d="M1.10001 11.1394C1.10001 12.5394 2.00001 13.2394 3.10001 12.6394C3.10001 12.6394 3.19999 12.6394 3.19999 12.5394L11.9 7.43939C11.9 7.43939 12 7.43938 12 7.33938C13.1 6.73938 13.9 5.03938 13.9 3.63938C13.9 2.23938 13 1.53938 11.9 2.13938L11.8 2.13938C11.7 0.639387 10.8 0.0393933 9.60001 0.739393C9.30001 0.939393 8.99999 1.2394 8.69999 1.53939C8.09999 0.639396 6.99999 0.439387 5.79999 1.13939C3.89999 2.23938 2.3 5.23938 2.4 7.83938C1.69999 8.73938 1.10001 10.0394 1.10001 11.1394L1.10001 11.1394Z" id="路径_1685_18_" fill="#F3F8FE" fill-rule="evenodd" stroke="none" />
        <path d="M12 7.33938C13.1 6.73938 13.9 5.03938 13.9 3.63938C13.9 2.23938 13 1.53938 11.9 2.13938L11.8 2.13938C11.7 0.639387 10.8 0.0393933 9.6 0.739393C9.3 0.939393 8.99998 1.2394 8.69998 1.53939C8.09998 0.639396 6.99999 0.439387 5.79999 1.13939L5.69998 1.23939L10.3 8.33938L11.8 7.43939C11.9 7.43939 12 7.43938 12 7.33938L12 7.33938Z" id="Vector" fill="url(#gradient_20)" fill-rule="evenodd" stroke="none" />
      </g>
      <g id="Group" transform="translate(76.10004 7.9737244)">
        <path d="M8.19998 6.36568C8.19998 6.86568 7.99999 7.16569 7.79999 7.26569L7.19998 7.66568C7.19998 7.66568 0.699982 2.86568 0.699982 1.96568C0.699982 1.96568 0.699988 1.66568 0.799988 1.46568C0.699988 1.46568 0.5 1.36568 0.5 1.36568C0.6 1.26568 1.00001 1.06568 1.10001 0.965683C1.30001 0.865683 1.79999 0.965689 1.89999 1.06569C1.89999 0.865689 1.9 0.765689 2 0.565689L1.69998 0.465683L2.29999 0.0656888C2.49999 -0.0343112 2.79998 -0.0343203 3.19998 0.16568C3.39998 0.26568 3.50001 0.365689 3.60001 0.565689C3.60001 0.565689 3.90001 0.365686 4.10001 0.265686C4.30001 0.165686 4.49998 0.16568 4.69998 0.16568L5 0.16568C5.2 0.16568 5.4 0.265677 5.5 0.365677C6.2 0.765677 6.89998 1.66569 7.19998 2.56569C7.39998 3.16569 7.6 3.86568 7.5 4.36568C8.1 5.26568 8.19998 5.66568 8.19998 6.36568L8.19998 6.36568Z" id="路径_1684_17_" fill="url(#gradient_21)" fill-rule="evenodd" stroke="none" />
        <path d="M7.60001 6.7657C7.60001 7.5657 7.09999 7.96569 6.39999 7.66569L6.29999 7.66569L1.19998 4.66569L1.10001 4.66569C0.500006 4.26569 0 3.26569 0 2.46569C0 1.66569 0.499982 1.26569 1.19998 1.5657C1.19998 0.665694 1.8 0.265685 2.5 0.665685C2.7 0.765685 2.9 0.965694 3 1.06569C3.4 0.565695 3.99998 0.365682 4.69998 0.865682C5.79998 1.56569 6.79998 3.36569 6.69998 4.86569C7.19998 5.36569 7.60001 6.1657 7.60001 6.7657L7.60001 6.7657Z" id="路径_1685_17_" fill="#F3F8FE" fill-rule="evenodd" stroke="none" />
        <path d="M1.10001 4.56568C0.500006 4.16568 0 3.16567 0 2.36567C0 1.56567 0.499982 1.16568 1.19998 1.46568C1.19998 0.565676 1.8 0.165682 2.5 0.565682C2.7 0.665682 2.9 0.865676 3 0.965676C3.4 0.465676 3.99998 0.265679 4.69998 0.765679L4.79999 0.86567L2.10001 5.06568L1.10001 4.56568L1.10001 4.56568Z" id="Vector" fill="url(#gradient_22)" fill-rule="evenodd" stroke="none" />
      </g>
    </g>
  </g>
</svg>