<?xml version="1.0" encoding="utf-8"?>
<svg width="100px" height="100px" viewBox="0 0 100 100" version="1.1" xmlns:xlink="http://www.w3.org/1999/xlink" xmlns="http://www.w3.org/2000/svg">
  <defs>
    <linearGradient gradientUnits="objectBoundingBox" x1="0.00011431624" y1="0.49981883" x2="1.0005107" y2="0.49981883" id="gradient_1">
      <stop offset="0%" stop-color="#92A6F1" />
      <stop offset="100%" stop-color="#FFFFFF" />
    </linearGradient>
    <linearGradient gradientUnits="objectBoundingBox" x1="0.00020379748" y1="0.49729568" x2="1.000538" y2="0.49729568" id="gradient_2">
      <stop offset="33.75%" stop-color="#97B5E1" />
      <stop offset="59.320004%" stop-color="#E8F1FF" />
    </linearGradient>
    <linearGradient gradientUnits="objectBoundingBox" x1="0.99590904" y1="0.5770437" x2="0.0035697022" y2="0.42161578" id="gradient_3">
      <stop offset="0%" stop-color="#FFFFFF" />
      <stop offset="100%" stop-color="#C9D9F4" />
    </linearGradient>
    <linearGradient gradientUnits="objectBoundingBox" x1="0.13346837" y1="0.8449575" x2="0.6619922" y2="0.043979622" id="gradient_4">
      <stop offset="0%" stop-color="#103DB5" />
      <stop offset="64.26%" stop-color="#6BABFD" />
    </linearGradient>
    <linearGradient gradientUnits="objectBoundingBox" x1="0.14300545" y1="0.83565706" x2="0.6715293" y2="0.03467924" id="gradient_5">
      <stop offset="0%" stop-color="#103DB5" />
      <stop offset="64.26%" stop-color="#6BABFD" />
    </linearGradient>
    <linearGradient gradientUnits="objectBoundingBox" x1="0.5834929" y1="0.31294292" x2="0.43686256" y2="0.5795241" id="gradient_6">
      <stop offset="0%" stop-color="#0CFFFC" stop-opacity="0.6" />
      <stop offset="100%" stop-color="#FFFFFF" stop-opacity="0" />
    </linearGradient>
    <linearGradient gradientUnits="objectBoundingBox" x1="-8.457082" y1="0.4977343" x2="-7.455571" y2="0.4977343" id="gradient_7">
      <stop offset="0%" stop-color="#92A6F1" />
      <stop offset="100%" stop-color="#FFFFFF" />
    </linearGradient>
    <linearGradient gradientUnits="objectBoundingBox" x1="3.6869311" y1="6.1579413" x2="3.078928" y2="5.0761695" id="gradient_8">
      <stop offset="0%" stop-color="#05105D" />
      <stop offset="23.4%" stop-color="#0C3F8F" />
      <stop offset="47.9%" stop-color="#1369BC" />
      <stop offset="69.700005%" stop-color="#1788DD" />
      <stop offset="87.8%" stop-color="#1A9BF1" />
      <stop offset="100%" stop-color="#1CA2F9" />
    </linearGradient>
    <linearGradient gradientUnits="objectBoundingBox" x1="0.0027608697" y1="0.49977422" x2="1.0052174" y2="0.49977422" id="gradient_9">
      <stop offset="0%" stop-color="#FF8000" />
      <stop offset="100%" stop-color="#FFD000" />
    </linearGradient>
    <linearGradient gradientUnits="objectBoundingBox" x1="-0.0053333333" y1="0.4916908" x2="1.0224" y2="0.4916908" id="gradient_10">
      <stop offset="0%" stop-color="#FF8000" />
      <stop offset="100%" stop-color="#FFD000" />
    </linearGradient>
    <linearGradient gradientUnits="objectBoundingBox" x1="-0.004826087" y1="0.49874192" x2="0.99934787" y2="0.49874192" id="gradient_11">
      <stop offset="0%" stop-color="#FF8000" />
      <stop offset="100%" stop-color="#FFD000" />
    </linearGradient>
    <linearGradient gradientUnits="objectBoundingBox" x1="-0.011333333" y1="0.4912779" x2="1.0164" y2="0.4912779" id="gradient_12">
      <stop offset="0%" stop-color="#FF8000" />
      <stop offset="100%" stop-color="#FFD000" />
    </linearGradient>
    <linearGradient gradientUnits="objectBoundingBox" x1="-0.1726439" y1="0.8590754" x2="0.66514397" y2="0.18890846" id="gradient_13">
      <stop offset="0%" stop-color="#97B5E1" />
      <stop offset="100%" stop-color="#ECF1FA" />
    </linearGradient>
    <linearGradient gradientUnits="objectBoundingBox" x1="1.0781708" y1="0.78753084" x2="-0.19156094" y2="0.04059393" id="gradient_14">
      <stop offset="0%" stop-color="#FFFFFF" />
      <stop offset="100%" stop-color="#C9D9F4" />
    </linearGradient>
    <linearGradient gradientUnits="objectBoundingBox" x1="1.1802208" y1="0.862752" x2="0.331065" y2="0.20942493" id="gradient_15">
      <stop offset="0%" stop-color="#97B5E1" />
      <stop offset="100%" stop-color="#ECF1FA" />
    </linearGradient>
    <linearGradient gradientUnits="objectBoundingBox" x1="-0.07437502" y1="0.79965854" x2="1.2081041" y2="0.051030964" id="gradient_16">
      <stop offset="0%" stop-color="#FFFFFF" />
      <stop offset="100%" stop-color="#C9D9F4" />
    </linearGradient>
  </defs>
  <g id="iso_build_5x">
    <path d="M100 0L100 0L100 100L0 100L0 0L100 0Z" id="iso_build_5x" fill="none" stroke="none" />
    <g id="Group" transform="translate(3.1624146 4.355555)">
      <g id="Group" transform="translate(0 31.394444)">
        <g id="Group" transform="translate(0.1000061 9.400002)" opacity="0.4">
          <path d="M89.1376 20.95C95.0376 24.35 95.0376 29.85 89.2376 33.25L57.5376 51.65C51.7376 55.05 42.2376 55.05 36.3376 51.65L4.43758 33.25C-1.46242 29.85 -1.46242 24.35 4.33758 20.95L36.0376 2.55C41.8376 -0.85 51.3376 -0.85 57.2376 2.55L89.1376 20.95L89.1376 20.95Z" id="Vector" fill="#00357C" fill-opacity="0.4" fill-rule="evenodd" stroke="none" />
        </g>
        <g id="Group">
          <path d="M93.6376 27.15L0.0375977 27.15L0.0375977 30.45C0.0375977 32.65 1.53759 34.85 4.43759 36.55L36.3376 54.95C42.2376 58.35 51.7376 58.35 57.5376 54.95L89.2376 36.55C92.1376 34.85 93.6376 32.65 93.6376 30.45L93.6376 27.15L93.6376 27.15Z" id="Vector" fill="url(#gradient_1)" fill-rule="evenodd" stroke="none" />
          <g id="Group">
            <path d="M89.2376 20.95C95.1376 24.35 95.1376 29.85 89.3376 33.25L57.6376 51.65C51.8376 55.05 42.3376 55.05 36.4376 51.65L4.43758 33.25C-1.46242 29.85 -1.46242 24.35 4.33758 20.95L36.0376 2.55C41.8376 -0.85 51.3376 -0.85 57.2376 2.55L89.2376 20.95L89.2376 20.95Z" id="Vector" fill="#F3F8FE" fill-rule="evenodd" stroke="none" />
          </g>
        </g>
      </g>
      <g id="Group" transform="translate(7.3375854 26.169445)">
        <path d="M79 22.975L0 22.975L0 31.875C0 33.775 1.30001 35.675 3.70001 37.075L30.6 52.675C35.6 55.575 43.6 55.575 48.5 52.675L75.3 37.075C77.8 35.675 79 33.775 79 31.875L79 22.975L79 22.975Z" id="Vector" fill="url(#gradient_2)" fill-rule="evenodd" stroke="none" />
        <path d="M75.3 17.775C80.3 20.675 80.3 25.275 75.4 28.175L48.6 43.775C43.7 46.675 35.7 46.675 30.7 43.775L3.80001 28.175C-1.19999 25.275 -1.2 20.675 3.7 17.775L30.5 2.175C35.4 -0.725 43.4 -0.725 48.4 2.175L75.3 17.775L75.3 17.775Z" id="Vector" fill="#BCD0F1" fill-rule="evenodd" stroke="none" />
        <g id="Group" transform="translate(0.03741479 0.074999094)">
          <path d="M39.3626 0C36.1626 0 32.8626 0.7 30.4626 2.1L3.66259 17.7C-1.23741 20.6 -1.2374 25.2 3.7626 28.1L30.6626 43.7C33.1626 45.1 36.3626 45.8 39.6626 45.8C42.9626 45.8 46.1626 45.1 48.5626 43.7L75.3626 28.1C80.2626 25.2 80.2626 20.6 75.2626 17.7L48.3626 2.1C45.8626 0.7 42.5626 0 39.3626 0L39.3626 0ZM39.3626 0.5C42.6626 0.5 45.7626 1.2 48.0626 2.6L74.9626 18.2C77.1626 19.5 78.4626 21.2 78.4626 23C78.4626 24.8 77.2626 26.4 75.0626 27.7L48.2626 43.3C45.9626 44.6 42.8626 45.4 39.5626 45.4C36.2626 45.4 33.1626 44.7 30.8626 43.3L3.96258 27.7C1.76258 26.4 0.462579 24.7 0.462579 22.9C0.462579 21.1 1.6626 19.5 3.8626 18.2L30.6626 2.6C32.9626 1.3 36.0626 0.5 39.3626 0.5L39.3626 0.5Z" id="Vector" fill="url(#gradient_3)" fill-rule="evenodd" stroke="none" />
        </g>
        <g id="Group" transform="translate(6.700012 33.255306)">
          <path d="M17 9.41969C17.5 9.71969 17.8 10.3197 17.8 10.9197L17.8 12.4197C17.8 12.9197 17.4 13.2197 16.9 12.9197L0.799988 3.61969C0.299988 3.31969 0 2.71969 0 2.11969L0 0.619694C0 0.119694 0.399994 -0.180306 0.899994 0.119694L17 9.41969L17 9.41969Z" id="Vector" fill="#0CFFFC" fill-rule="evenodd" stroke="none" />
          <path d="M17.8 12.4197L1.70002 3.11969C1.20002 2.81969 0.899994 2.21969 0.899994 1.61969L0.899994 0.119693C0.499994 -0.0803065 0.100006 0.119693 0.100006 0.619694L0.100006 2.11969C0.100006 2.61969 0.499994 3.31969 0.899994 3.61969L17 12.9197C17.5 13.2197 17.9 13.0197 17.8 12.4197L17.8 12.4197Z" id="Vector" fill="#1964BA" fill-rule="evenodd" stroke="none" />
        </g>
        <g id="Group" transform="translate(7.6750183 4.424999)">
          <path d="M31.775 0C34.3905 0 37.0136 0.577953 38.9876 1.7418L38.9885 1.74233L60.5873 14.2416L60.5876 14.2418C62.6099 15.4048 63.6495 16.939 63.6625 18.499C63.6755 20.0592 62.6613 21.5942 60.6885 22.7577L60.6878 22.7581L39.1878 35.2581L39.1873 35.2584C37.1641 36.4217 34.5413 37 31.925 37C29.3087 37 26.6859 36.4217 24.6627 35.2584L24.6624 35.2582L3.0627 22.7584L3.06238 22.7582C1.04027 21.5953 0 20.0608 0 18.5C0 16.9392 1.0402 15.4048 3.06217 14.2419L3.06269 14.2416L24.5615 1.74234L24.5622 1.74192C26.5362 0.577993 29.1593 0 31.775 0L31.775 0ZM24.6885 1.95767C26.6144 0.821872 29.1909 0.25 31.775 0.25C34.359 0.25 36.9356 0.821872 38.8615 1.95767L38.8624 1.95819L60.4624 14.4582L60.4627 14.4584C62.4402 15.5954 63.4005 17.0611 63.4125 18.501C63.4245 19.9406 62.4889 21.4054 60.5622 22.5419L60.5615 22.5423L39.0627 35.0416L39.0622 35.0419C37.0855 36.1784 34.5085 36.75 31.925 36.75C29.3414 36.75 26.7644 36.1784 24.7876 35.0418L24.7873 35.0416L3.18761 22.5418L3.18731 22.5416C1.20962 21.4045 0.25 19.9391 0.25 18.5C0.25 17.0609 1.20962 15.5955 3.18731 14.4584L3.18783 14.4581L24.6878 1.95807L24.6885 1.95767L24.6885 1.95767Z" id="Vector" fill="#2185F8" fill-rule="evenodd" stroke="none" />
          <path d="M26.0332 3.91244L26.062 3.94201L25.062 2.94201L26.0332 3.91244L26.0332 3.91244ZM25.0633 2.94128L25.062 2.94201L5.1633 14.5413L5.16207 14.542C3.28935 15.6052 2.32501 17.0399 2.32501 18.5C2.32501 19.9601 3.28943 21.3949 5.1623 22.4581L5.16332 22.4587L25.1623 34.0581L25.1633 34.0587C27.0364 35.1218 29.4589 35.65 31.875 35.65C34.2911 35.65 36.7136 35.1218 38.5867 34.0587L38.5879 34.058L58.4867 22.4587L58.4879 22.458C60.3606 21.3948 61.325 19.9601 61.325 18.5C61.325 17.0399 60.3606 15.6051 58.4877 14.5419L58.4867 14.5413L38.4877 2.94187L38.4867 2.94129C36.6136 1.8782 34.1911 1.35 31.775 1.35C29.3588 1.35 26.9364 1.8782 25.0633 2.94128L25.0633 2.94128ZM25.1867 3.15871C27.0136 2.1218 29.3911 1.6 31.775 1.6C34.1584 1.6 36.5354 2.12161 38.3623 3.15813L38.3633 3.15871L58.3623 14.7581L58.3633 14.7587C60.1897 15.7954 61.075 17.1604 61.075 18.5C61.075 19.8396 60.1897 21.2046 58.3633 22.2413L58.362 22.242L38.4633 33.8413L38.462 33.842C36.6353 34.8784 34.2583 35.4 31.875 35.4C29.4916 35.4 27.1145 34.8784 25.2877 33.8419L25.2867 33.8413L5.28773 22.2419L5.28671 22.2413C3.46024 21.2046 2.57501 19.8396 2.57501 18.5C2.57501 17.1604 3.46024 15.7954 5.28671 14.7587L5.28796 14.758L25.1867 3.15871L25.1867 3.15871Z" id="Vector" fill="#2185F8" fill-rule="evenodd" stroke="none" />
          <path d="M25.6616 4.24226L25.6616 4.24229L7.36235 14.8418L7.36162 14.8423C5.64031 15.8548 4.75 17.1641 4.75 18.5C4.75 19.8359 5.64031 21.1452 7.36162 22.1577L7.3626 22.1583L25.7602 32.7569L25.7608 32.7573C27.4351 33.7718 29.6589 34.275 31.8875 34.275C34.1163 34.275 36.3642 33.7717 38.0877 32.7581L38.0877 32.7582L56.3876 22.1582L56.3884 22.1577C58.1097 21.1452 59 19.8359 59 18.5C59 17.1641 58.1097 15.8548 56.3884 14.8423L56.3874 14.8417L37.9884 4.24226L37.9874 4.24168C36.2641 3.22833 34.0415 2.725 31.825 2.725C29.6081 2.725 27.385 3.22852 25.6616 4.24226L25.6616 4.24226ZM25.7884 4.45774C27.465 3.47148 29.6419 2.975 31.825 2.975C34.0081 2.975 36.185 3.47148 37.8616 4.45775L37.8626 4.45831L56.2616 15.0577L56.2626 15.0583C57.9406 16.0457 58.75 17.2861 58.75 18.5C58.75 19.7139 57.9405 20.9544 56.2623 21.9419L56.2623 21.9418L37.9624 32.5418L37.9616 32.5423C36.2852 33.5284 34.0834 34.025 31.8875 34.025C29.6914 34.025 27.5154 33.5283 25.8898 32.5431L25.8874 32.5417L7.48739 21.9417C5.80937 20.9543 5 19.7139 5 18.5C5 17.2861 5.80944 16.0456 7.48762 15.0581L7.48765 15.0582L25.7877 4.45817L25.7884 4.45774L25.7884 4.45774Z" id="Vector" fill="#2185F8" fill-rule="evenodd" stroke="none" />
          <path d="M31.825 4.075C33.8662 4.075 35.914 4.52823 37.4875 5.44173L37.4878 5.44192L54.2875 15.1417L54.2878 15.1419C55.8604 16.0551 56.675 17.2647 56.675 18.5C56.675 19.7353 55.8604 20.9449 54.2878 21.8581L37.5878 31.5581C36.0143 32.4717 33.9663 32.925 31.925 32.925C29.8837 32.925 27.836 32.4718 26.2625 31.5583L26.2622 31.5581L9.46248 21.8583L9.46221 21.8581C7.88957 20.9449 7.07498 19.7353 7.07498 18.5C7.07498 17.2647 7.88957 16.0551 9.4622 15.1419L26.1622 5.4419C27.7357 4.52828 29.7837 4.075 31.825 4.075L31.825 4.075ZM26.2878 5.6581C27.8143 4.77172 29.8164 4.325 31.825 4.325C33.8337 4.325 35.8357 4.77172 37.3622 5.6581L37.3625 5.65825L54.1622 15.3581L54.1625 15.3583C55.6897 16.2451 56.425 17.3854 56.425 18.5C56.425 19.6147 55.6896 20.7551 54.1622 21.6419L37.4622 31.3419C35.9357 32.2283 33.9337 32.675 31.925 32.675C29.9163 32.675 27.9143 32.2283 26.3878 31.3419L26.3875 31.3418L9.58748 21.6417L9.58746 21.6417C8.0603 20.755 7.32498 19.6146 7.32498 18.5C7.32498 17.3853 8.0604 16.2449 9.58776 15.3581L26.2878 5.6581L26.2878 5.6581Z" id="Vector" fill="#2185F8" fill-rule="evenodd" stroke="none" />
          <path d="M36.887 6.64147C35.4638 5.82819 33.6161 5.425 31.775 5.425C29.9339 5.425 28.0862 5.82819 26.663 6.64147L26.6624 6.64182L11.4624 15.4418L11.4623 15.4418L11.4601 15.4431C10.0388 16.3061 9.29999 17.4154 9.29999 18.5375C9.29999 19.6606 10.04 20.7454 11.4627 21.5583L11.4627 21.5584L26.7627 30.3584L26.763 30.3585C28.1862 31.1718 30.0339 31.575 31.875 31.575C33.7161 31.575 35.5638 31.1718 36.987 30.3585L36.9876 30.3582L52.1876 21.5582L52.1899 21.5568C53.6112 20.6939 54.35 19.5846 54.35 18.4625C54.35 17.3394 53.61 16.2547 52.1873 15.4416L52.187 15.4415L36.8873 6.64164L36.887 6.64147L36.887 6.64147ZM26.7876 6.85818C28.1643 6.0717 29.9664 5.675 31.775 5.675C33.5838 5.675 35.3859 6.07176 36.7627 6.85836L36.763 6.85853L52.0627 15.6584L52.063 15.6585C53.4401 16.4455 54.1 17.4607 54.1 18.4625C54.1 19.4648 53.4395 20.5049 52.0624 21.3418L52.0601 21.3431L36.863 30.1415L36.8624 30.1418L36.8624 30.1418C35.4857 30.9283 33.6836 31.325 31.875 31.325C30.0662 31.325 28.264 30.9283 26.8873 30.1417L26.8873 30.1416L11.5873 21.3416L11.587 21.3415C10.2099 20.5545 9.54999 19.5393 9.54999 18.5375C9.54999 17.5351 10.2104 16.495 11.5876 15.6582L11.5876 15.6582L26.787 6.85853L26.7876 6.85818L26.7876 6.85818Z" id="Vector" fill="#2185F8" fill-rule="evenodd" stroke="none" />
        </g>
        <g id="Group" transform="translate(66 34.574997)">
          <g id="Group" transform="translate(3.3000183 0)">
            <path d="M0.899994 2.4L0.199982 2C0.0999817 1.9 0 1.7 0 1.5C0 1 0.399988 0.399998 0.799988 0.0999985C0.999988 -1.52737e-06 1.19999 0 1.39999 0L2.10001 0.400002L0.899994 2.4L0.899994 2.4Z" id="Vector" fill="url(#gradient_4)" fill-rule="evenodd" stroke="none" />
            <g id="Group" transform="translate(0.37126935 0.15253234)">
              <path d="M1.58824 1.55126C1.89053 1.02429 1.90257 0.46343 1.61513 0.298547C1.32769 0.133664 0.849627 0.427195 0.547343 0.95416C0.245054 1.48113 0.233013 2.04199 0.520449 2.20688C0.807886 2.37176 1.28596 2.07823 1.58824 1.55126L1.58824 1.55126Z" id="Vector" fill="#2185F8" fill-rule="evenodd" stroke="none" />
            </g>
            <g id="Group" transform="translate(0.74374807 0.5990156)">
              <path d="M1.21573 1.10475C1.40809 0.769411 1.36985 0.386192 1.13032 0.24879C0.890786 0.111388 0.540675 0.271832 0.348312 0.607174C0.155948 0.942517 0.19418 1.32576 0.43371 1.46317C0.673239 1.60057 1.02337 1.4401 1.21573 1.10475L1.21573 1.10475Z" id="Vector" fill="#0CFFFC" fill-rule="evenodd" stroke="none" />
            </g>
          </g>
          <g id="Group" transform="translate(0 1.9000015)">
            <path d="M0.900024 2.4L0.200012 2C0.100012 1.9 0 1.7 0 1.5C0 1 0.400018 0.399998 0.800018 0.0999985C1.00002 -1.52737e-06 1.20002 0 1.40002 0L2.10001 0.400002L0.900024 2.4L0.900024 2.4Z" id="Vector" fill="url(#gradient_5)" fill-rule="evenodd" stroke="none" />
            <g id="Group" transform="translate(0.40068853 0.15851367)">
              <path d="M1.58823 1.55126C1.89051 1.02429 1.90255 0.46343 1.61511 0.298547C1.32768 0.133664 0.849612 0.427195 0.547328 0.95416C0.245039 1.48113 0.233013 2.04197 0.520449 2.20685C0.807886 2.37173 1.28594 2.07823 1.58823 1.55126L1.58823 1.55126Z" id="Vector" fill="#2185F8" fill-rule="evenodd" stroke="none" />
            </g>
            <g id="Group" transform="translate(0.7731976 0.6048751)">
              <path d="M1.21572 1.10478C1.40808 0.769437 1.36985 0.386192 1.13032 0.24879C0.890786 0.111388 0.54066 0.271858 0.348297 0.6072C0.155933 0.942544 0.19418 1.32576 0.43371 1.46317C0.673239 1.60057 1.02335 1.44012 1.21572 1.10478L1.21572 1.10478Z" id="Vector" fill="#FFE200" fill-rule="evenodd" stroke="none" />
            </g>
          </g>
        </g>
        <path d="M24.6 44.175C24.6 43.675 24.2 42.975 23.8 42.675L7.70001 33.375C7.50001 33.275 7.30001 33.275 7.20001 33.275L3.80002 34.175C3.60002 34.275 3.5 34.475 3.5 34.775L3.5 36.975C3.5 37.575 3.9 38.375 4.5 38.675L22.2 49.475C22.6 49.675 23 49.475 23.1 49.275C23.9 48.275 24.4 46.175 24.4 46.175C24.4 46.175 24.6 46.075 24.6 45.675L24.6 44.175L24.6 44.175Z" id="Vector" fill="url(#gradient_6)" fill-rule="evenodd" stroke="none" />
      </g>
      <path d="M67.9376 43.9444C67.9376 43.9444 67.9376 43.8444 68.0376 43.8444C68.1376 43.7444 68.1376 43.6444 68.1376 43.5444C68.1376 43.4444 68.1376 43.4444 68.2376 43.3444L68.2376 42.5444C68.1376 41.9444 67.7376 41.4444 67.2376 41.1444L58.6376 36.1444C57.5376 35.5444 56.1376 35.5444 55.0376 36.1444L27.5376 51.8444C27.0376 52.1444 26.6376 52.6444 26.5376 53.2444L26.5376 54.0444C26.5376 54.1444 26.5376 54.1444 26.6376 54.2444C26.6376 54.3444 26.7376 54.4444 26.7376 54.5444C26.7376 54.5444 26.7376 54.6444 26.8376 54.6444C26.9376 54.7444 27.0376 54.9444 27.1376 55.0444L27.2376 55.1444C27.3376 55.2444 27.5376 55.3444 27.6376 55.4444L36.2376 60.4444C36.3376 60.5444 36.5376 60.5444 36.6376 60.6444C37.3376 60.9444 38.1376 61.0444 38.9376 60.7444C39.2376 60.6444 39.5376 60.5444 39.8376 60.3444L67.1376 44.6444C67.2376 44.5444 67.4376 44.4444 67.5376 44.3444C67.5376 44.3444 67.6376 44.3444 67.6376 44.2444L67.9376 43.9444L67.9376 43.9444Z" id="路径_5301_2_" fill="#00357C" fill-opacity="0.080000006" fill-rule="evenodd" stroke="none" />
      <g id="Group" transform="translate(25.355682 0)">
        <path d="M29.0819 26.5444L1.0819 42.6444C0.0818987 43.2444 -0.318089 44.5444 0.281911 45.5444C0.481911 45.8444 0.781899 46.1444 1.0819 46.3444L9.88192 51.4444C10.9819 52.1444 12.3819 52.1444 13.5819 51.4444L41.5819 35.3444C42.5819 34.7444 42.9819 33.4444 42.3819 32.4444C42.1819 32.1444 41.8819 31.8444 41.5819 31.6444L32.7819 26.5444C31.5819 25.8444 30.1819 25.8444 29.0819 26.5444L29.0819 26.5444Z" id="路径_5302_1_" fill="#E9EDFC" fill-rule="evenodd" stroke="none" />
        <path d="M26.8819 28.2444L5.28191 40.6444C4.48191 41.1444 4.2819 42.1444 4.6819 42.8444C4.7819 43.0444 4.98191 43.3444 5.28191 43.4444L6.2819 44.0444C7.1819 44.5444 8.28189 44.5444 9.08189 44.0444L30.6819 31.6444C31.4819 31.1444 31.6819 30.1444 31.2819 29.4444C31.1819 29.2444 30.8819 28.9444 30.6819 28.8444L29.6819 28.2444C28.8819 27.7444 27.7819 27.7444 26.8819 28.2444L26.8819 28.2444Z" id="路径_5303_1_" fill="#D3DBF9" fill-rule="evenodd" stroke="none" />
        <path d="M41.5819 34.4444L13.5819 50.5444C12.4819 51.2444 11.0819 51.2444 9.88194 50.5444L1.08191 45.4444C0.581912 45.1444 0.181912 44.6444 0.0819115 44.0444C-0.118088 44.9444 0.281912 45.8444 1.08191 46.3444L9.88194 51.4444C10.9819 52.1444 12.3819 52.1444 13.5819 51.4444L41.5819 35.3444C42.3819 34.8444 42.7819 33.9444 42.5819 33.0444C42.3819 33.6444 42.0819 34.1444 41.5819 34.4444L41.5819 34.4444Z" id="路径_5304_1_" fill="url(#gradient_7)" fill-rule="evenodd" stroke="none" />
        <path d="M3.68191 15.6444L30.3819 0.244444C31.1819 -0.255556 32.1819 0.0444448 32.6819 0.844444C32.7819 1.14444 32.8819 1.34444 32.8819 1.64444L32.8819 26.9444C32.8819 27.7444 32.4819 28.5444 31.6819 28.9444L4.9819 44.3444C4.1819 44.8444 3.18192 44.5444 2.68192 43.7444C2.58192 43.4444 2.4819 43.2444 2.4819 42.9444L2.4819 17.6444C2.4819 16.7444 2.88192 16.0444 3.68191 15.6444L3.68191 15.6444Z" id="路径_5305_1_" fill="#00357C" fill-opacity="0.4" fill-rule="evenodd" stroke="none" />
        <path d="M3.68192 15.6444L30.3819 0.244445C31.0819 -0.155555 31.9819 0.0444448 32.4819 0.644445C32.0819 0.544445 31.5819 0.544445 31.1819 0.744445L4.38193 16.1444C3.68193 16.5444 3.18192 17.3444 3.18192 18.1444L3.18192 43.4444C3.18192 43.8444 3.28191 44.2444 3.58191 44.5444C2.88191 44.3444 2.38193 43.6444 2.38193 42.9444L2.38193 17.6444C2.48193 16.7444 2.88192 16.0444 3.68192 15.6444L3.68192 15.6444Z" id="路径_5318_1_" fill="url(#gradient_8)" fill-rule="evenodd" stroke="none" />
        <g id="Group" transform="translate(6.481903 16.605213)">
          <g id="Group" transform="translate(0 11.400002)">
            <g id="Group" transform="translate(0.1000061 0)" opacity="0.9">
              <path d="M4.10001 0.039231C4.30001 -0.060769 4.5 0.039228 4.5 0.239228L4.5 5.43923C4.5 5.73923 4.30001 6.03923 4.10001 6.23923L0.399994 8.43923C0.199994 8.53923 0 8.43923 0 8.13923L0 2.93923C0 2.63923 0.199994 2.33923 0.399994 2.13923L4.10001 0.039231L4.10001 0.039231Z" id="Vector" fill="#FFFFFF" fill-rule="evenodd" stroke="none" />
            </g>
            <g id="Group" transform="translate(2.2000122 6.3392296)">
              <path d="M2.39999 0L2.39999 0.399998L0 1.8L0 1.4L2.39999 0L2.39999 0Z" id="Vector" fill="#FFE200" fill-rule="evenodd" stroke="none" />
            </g>
            <g id="Group" transform="translate(0 7.0392303)">
              <path d="M4.60001 0L4.60001 0.399998L0 3.1L0 2.7L4.60001 0L4.60001 0Z" id="Vector" fill="url(#gradient_9)" fill-rule="evenodd" stroke="none" />
            </g>
          </g>
          <g id="Group" transform="translate(6.600006 7.6000004)">
            <g id="Group">
              <path d="M4.10001 0.0392307C4.30001 -0.0607693 4.5 0.0392295 4.5 0.23923L4.5 5.43923C4.5 5.73923 4.30001 6.03923 4.10001 6.23923L0.399994 8.43923C0.199994 8.53923 0 8.43923 0 8.13923L0 2.93923C0 2.63923 0.199994 2.33923 0.399994 2.13923L4.10001 0.0392307L4.10001 0.0392307Z" id="Vector" fill="url(#gradient_10)" fill-rule="evenodd" stroke="none" />
            </g>
            <g id="Group" transform="translate(0 7.0392284)" opacity="0.9">
              <path d="M4.60001 0L4.60001 0.400002L0 3.1L0 2.7L4.60001 0L4.60001 0Z" id="Vector" fill="#FFFFFF" fill-rule="evenodd" stroke="none" />
            </g>
            <g id="Group" transform="translate(2.2000122 6.3392315)" opacity="0.9">
              <path d="M2.39999 0L2.39999 0.399998L0 1.8L0 1.4L2.39999 0L2.39999 0Z" id="Vector" fill="#FFFFFF" fill-rule="evenodd" stroke="none" />
            </g>
          </g>
          <g id="Group" transform="translate(13.200012 3.7999992)">
            <g id="Group" transform="translate(2.100006 6.3392315)">
              <path d="M2.5 0L2.5 0.4L0 1.8L0 1.4L2.5 0L2.5 0Z" id="Vector" fill="#FFE200" fill-rule="evenodd" stroke="none" />
            </g>
            <g id="Group" opacity="0.9">
              <path d="M4.10001 0.0392304C4.30001 -0.0607697 4.5 0.0392311 4.5 0.239231L4.5 5.43923C4.5 5.73923 4.30001 6.03923 4.10001 6.23923L0.399994 8.43923C0.199994 8.53923 0 8.43923 0 8.13923L0 2.93923C0 2.63923 0.199994 2.33923 0.399994 2.13923L4.10001 0.0392304L4.10001 0.0392304Z" id="Vector" fill="#FFFFFF" fill-rule="evenodd" stroke="none" />
            </g>
            <g id="Group" transform="translate(0 7.0392303)">
              <path d="M4.60001 0L4.60001 0.400002L0 3.1L0 2.7L4.60001 0L4.60001 0Z" id="Vector" fill="url(#gradient_11)" fill-rule="evenodd" stroke="none" />
            </g>
          </g>
          <g id="Group" transform="translate(19.800018 0)">
            <g id="Group">
              <path d="M4.10001 0.0392304C4.30001 -0.0607697 4.5 0.0392311 4.5 0.239231L4.5 5.43923C4.5 5.73923 4.30001 6.03923 4.10001 6.23923L0.399994 8.43923C0.199994 8.53923 0 8.43923 0 8.13923L0 2.93923C0 2.63923 0.199994 2.33923 0.399994 2.13923L4.10001 0.0392304L4.10001 0.0392304Z" id="Vector" fill="url(#gradient_12)" fill-rule="evenodd" stroke="none" />
            </g>
            <g id="Group" transform="translate(0 6.3392296)" opacity="0.9">
              <g id="Group" transform="translate(2.100006 0)">
                <path d="M2.5 0L2.5 0.400002L0 1.8L0 1.4L2.5 0L2.5 0Z" id="Vector" fill="#FFFFFF" fill-rule="evenodd" stroke="none" />
              </g>
              <g id="Group" transform="translate(0 0.70000076)">
                <path d="M4.60001 0L4.60001 0.4L0 3.1L0 2.7L4.60001 0L4.60001 0Z" id="Vector" fill="#FFFFFF" fill-rule="evenodd" stroke="none" />
              </g>
            </g>
          </g>
        </g>
        <g id="Group" transform="translate(5.6819153 7.103024)">
          <g id="Group" transform="translate(9.799988 0)" opacity="0.8">
            <g id="Group">
              <path d="M15.1 0.0414213C15.2 -0.0585787 15.3 0.0414217 15.3 0.141422L15.3 0.641422C15.3 0.741422 15.2 0.941421 15.1 1.04142L0.200012 9.64142C0.100012 9.74142 0 9.64142 0 9.54142L0 9.04142C0 8.94142 0.100012 8.74142 0.200012 8.64142L15.1 0.0414213L15.1 0.0414213Z" id="Vector" fill="#FFFFFF" fill-rule="evenodd" stroke="none" />
            </g>
            <g id="Group" transform="translate(0 10.041421)">
              <path d="M5.70001 0L5.90002 0.1L5.90002 0.700001L5.70001 1L0.100006 4.2L0 4.1L0 3.5L0.100006 3.2L5.70001 0L5.70001 0Z" id="Vector" fill="#FFFFFF" fill-rule="evenodd" stroke="none" />
            </g>
            <g id="Group" transform="translate(0 8.241422)">
              <path d="M5.70001 0L5.90002 0L5.90002 0.699999L5.70001 0.9L0.100006 4.2L0 4.1L0 3.4L0.100006 3.2L5.70001 0L5.70001 0Z" id="Vector" fill="#FFFFFF" fill-rule="evenodd" stroke="none" />
            </g>
          </g>
          <g id="Group" transform="translate(0 10.03053)">
            <g id="Group" transform="translate(0.7999878 1.3956356)">
              <path d="M2.90002 0.215256C3.80002 -0.284744 4.5 0.115256 4.5 1.11526C4.5 1.91526 4.1 2.81526 3.5 3.41526C4.5 3.01526 5.40002 3.41526 5.80002 4.21526C5.30002 5.31526 4.50001 6.31526 3.60001 7.11526C3.60001 7.11526 3.5 7.11526 3.5 7.21526L3.40002 7.31526L3.30002 7.41526C3.20002 7.41526 3.20001 7.51526 3.10001 7.51526C3.00001 7.51526 3.00002 7.61526 2.90002 7.61526C2.80002 7.61526 2.80001 7.71526 2.70001 7.71526C2.60001 7.71526 2.6 7.81526 2.5 7.81526C2.5 7.81526 2.40002 7.81526 2.40002 7.91526L2.20001 7.91526C1.30001 8.21525 0.5 8.11526 0 7.61526C0.4 6.31526 1.20002 4.91526 2.30002 4.11526C1.70002 4.21526 1.30002 3.81526 1.30002 3.01526C1.30002 1.91526 2.00002 0.715256 2.90002 0.215256L2.90002 0.215256Z" id="Vector" fill="#FFFFFF" fill-rule="evenodd" stroke="none" />
            </g>
            <g id="Group">
              <path d="M3.70001 0.51089C5.70001 -0.68911 7.39999 0.31089 7.39999 2.61089C7.39999 3.84588 6.95039 5.18462 6.23423 6.3627C6.36892 6.1222 6.49153 5.87125 6.60001 5.61089C6.20001 4.71089 5.29999 4.41089 4.29999 4.81089C4.89999 4.21089 5.29999 3.31089 5.29999 2.51089C5.29999 1.51089 4.60001 1.11089 3.70001 1.61089C2.80001 2.11089 2.10001 3.31089 2.10001 4.31089C2.10001 5.11089 2.50001 5.51089 3.10001 5.41089C2.00001 6.21089 1.19999 7.61089 0.799988 8.91089C1.29999 9.41089 2.1 9.51089 3 9.21089C1.3 9.81089 0 8.91089 0 6.81089C0 4.51089 1.60001 1.71089 3.70001 0.51089L3.70001 0.51089ZM4.39999 8.51089C5.10024 7.93421 5.73262 7.18787 6.23423 6.36271C5.74815 7.2307 5.10472 7.96277 4.39999 8.51089L4.39999 8.51089Z" id="Vector" fill="#7AB6FB" fill-rule="evenodd" stroke="none" />
            </g>
          </g>
        </g>
      </g>
      <path d="M75.8376 26.3444L58.7376 16.4444L58.7376 17.0444L75.5376 26.7444C77.4376 27.8444 78.4376 29.2444 78.4376 30.7444C78.4376 32.2444 77.4376 33.6444 75.6376 34.7444L54.0376 47.3444C50.1376 49.6444 43.7376 49.6444 39.8376 47.3444L18.0376 34.7444C16.1376 33.6444 15.1376 32.2444 15.1376 30.7444C15.1376 29.2444 16.1376 27.8444 18.0376 26.7444L27.5376 21.2444L27.5376 20.6444L17.8376 26.2444C15.8376 27.4444 14.7376 28.9444 14.7376 30.6444C14.7376 32.3444 15.8376 33.9444 17.8376 35.0444L39.6376 47.6444C41.6376 48.8444 44.3376 49.4444 47.0376 49.4444C49.7376 49.4444 52.3376 48.8444 54.4376 47.6444L76.0376 35.0444C78.0376 33.8444 79.1376 32.3444 79.1376 30.6444C78.9376 29.1444 77.8376 27.5444 75.8376 26.3444L75.8376 26.3444Z" id="Vector" fill="#0CFFFC" fill-rule="evenodd" stroke="none" />
      <g id="Group" transform="translate(5.1376033 5.1050572)">
        <path d="M4.76837e-07 10.4394C4.76837e-07 11.2394 0.299982 11.8394 0.699982 12.0394L1.79999 12.6394C1.79999 12.6394 12.8 4.43939 12.8 3.03939C12.8 3.03939 12.8 2.53939 12.7 2.23939C12.9 2.13939 13.2 2.03939 13.2 2.03939C13 1.93939 12.4 1.53939 12.1 1.43939C11.7 1.33939 11 1.53939 10.8 1.63939C10.8 1.33939 10.7 1.03939 10.6 0.839388L11.1 0.739387L10.1 0.139388C9.70001 -0.0606121 9.19998 -0.0606126 8.69998 0.239387C8.39998 0.439387 8.2 0.639388 8 0.839388C8 0.839388 7.49998 0.539388 7.19998 0.339388C6.89998 0.139388 6.59999 0.139388 6.29999 0.139388L5.79999 0.139388C5.49999 0.239388 5.19999 0.339388 4.89999 0.539388C3.69999 1.23939 2.6 2.63939 2 4.33939C1.6 5.33939 1.29999 6.63939 1.39999 7.33939C0.199994 8.53939 4.76837e-07 9.33939 4.76837e-07 10.4394L4.76837e-07 10.4394Z" id="路径_1684_24_" fill="url(#gradient_13)" fill-rule="evenodd" stroke="none" />
        <path d="M1.10001 11.1394C1.10001 12.5394 2.00001 13.2394 3.10001 12.6394C3.10001 12.6394 3.19999 12.6394 3.19999 12.5394L11.9 7.43939C11.9 7.43939 12 7.43939 12 7.33939C13.1 6.73939 13.9 5.03939 13.9 3.63939C13.9 2.23939 13 1.53939 11.9 2.13939L11.8 2.13939C11.7 0.639387 10.8 0.0393875 9.60001 0.739388C9.30001 0.939388 8.99999 1.23939 8.69999 1.53939C8.09999 0.639387 6.99999 0.439388 5.79999 1.13939C3.89999 2.23939 2.3 5.23939 2.4 7.83939C1.69999 8.73939 1.10001 10.0394 1.10001 11.1394L1.10001 11.1394Z" id="路径_1685_24_" fill="#F3F8FE" fill-rule="evenodd" stroke="none" />
        <path d="M12 7.33939C13.1 6.73939 13.9 5.03939 13.9 3.63939C13.9 2.23939 13 1.53939 11.9 2.13939L11.8 2.13939C11.7 0.639387 10.8 0.0393875 9.6 0.739388C9.3 0.939388 8.99998 1.23939 8.69998 1.53939C8.09998 0.639387 6.99999 0.439388 5.79999 1.13939L5.69998 1.23939L10.3 8.33939L11.8 7.43939C11.9 7.43939 12 7.43939 12 7.33939L12 7.33939Z" id="Vector" fill="url(#gradient_14)" fill-rule="evenodd" stroke="none" />
      </g>
      <g id="Group" transform="translate(79.1376 13.078759)">
        <path d="M8.19998 6.36568C8.19998 6.86568 7.99999 7.16569 7.79999 7.26569L7.19998 7.66569C7.19998 7.66569 0.699982 2.86568 0.699982 1.96568C0.699982 1.96568 0.699988 1.66568 0.799988 1.46568C0.699988 1.46568 0.5 1.36568 0.5 1.36568C0.6 1.26568 1.00001 1.06568 1.10001 0.965685C1.30001 0.865685 1.79999 0.965685 1.89999 1.06569C1.89999 0.865685 1.9 0.765685 2 0.565685L1.69998 0.465685L2.29999 0.0656853C2.49999 -0.0343147 2.79998 -0.0343143 3.19998 0.165686C3.39998 0.265686 3.50001 0.365685 3.60001 0.565685C3.60001 0.565685 3.90001 0.365686 4.10001 0.265686C4.30001 0.165686 4.49998 0.165686 4.69998 0.165686L5 0.165686C5.2 0.165686 5.4 0.265685 5.5 0.365685C6.2 0.765684 6.89998 1.66569 7.19998 2.56569C7.39998 3.16569 7.6 3.86568 7.5 4.36568C8.1 5.26568 8.19998 5.66568 8.19998 6.36568L8.19998 6.36568Z" id="路径_1684_23_" fill="url(#gradient_15)" fill-rule="evenodd" stroke="none" />
        <path d="M7.60001 6.76568C7.60001 7.56568 7.09999 7.96568 6.39999 7.66568L6.29999 7.66568L1.19998 4.66568L1.10001 4.66568C0.500006 4.26568 0 3.26568 0 2.46568C0 1.66568 0.499982 1.26569 1.19998 1.56568C1.19998 0.665685 1.8 0.265685 2.5 0.665685C2.7 0.765685 2.9 0.965685 3 1.06569C3.4 0.565685 3.99998 0.365684 4.69998 0.865684C5.79998 1.56568 6.79998 3.36568 6.69998 4.86568C7.19998 5.36568 7.60001 6.06568 7.60001 6.76568L7.60001 6.76568Z" id="路径_1685_23_" fill="#F3F8FE" fill-rule="evenodd" stroke="none" />
        <path d="M1.10001 4.56568C0.500006 4.16568 0 3.16568 0 2.36568C0 1.56568 0.499982 1.16569 1.19998 1.46568C1.19998 0.565685 1.8 0.165685 2.5 0.565685C2.7 0.665685 2.9 0.865685 3 0.965685C3.4 0.465685 3.99998 0.265686 4.69998 0.765686L4.79999 0.865684L2.10001 5.06568L1.10001 4.56568L1.10001 4.56568Z" id="Vector" fill="url(#gradient_16)" fill-rule="evenodd" stroke="none" />
      </g>
    </g>
  </g>
</svg>