<?xml version="1.0" encoding="utf-8"?>
<svg width="100px" height="100px" viewBox="0 0 100 100" version="1.1" xmlns:xlink="http://www.w3.org/1999/xlink" xmlns="http://www.w3.org/2000/svg">
  <defs>
    <linearGradient gradientUnits="objectBoundingBox" x1="-0.0007019231" y1="0.49981883" x2="0.9996944" y2="0.49981883" id="gradient_1">
      <stop offset="0%" stop-color="#92A6F1" />
      <stop offset="100%" stop-color="#FFFFFF" />
    </linearGradient>
    <linearGradient gradientUnits="objectBoundingBox" x1="0.0003658147" y1="0.50106055" x2="0.9981293" y2="0.50106055" id="gradient_2">
      <stop offset="33.75%" stop-color="#97B5E1" />
      <stop offset="59.320004%" stop-color="#E8F1FF" />
    </linearGradient>
    <linearGradient gradientUnits="objectBoundingBox" x1="0.99410224" y1="0.57786703" x2="0.0045930534" y2="0.42201382" id="gradient_3">
      <stop offset="0%" stop-color="#FFFFFF" />
      <stop offset="100%" stop-color="#C9D9F4" />
    </linearGradient>
    <linearGradient gradientUnits="objectBoundingBox" x1="0.8979099" y1="0.8325206" x2="0.36938602" y2="0.031542778" id="gradient_4">
      <stop offset="0%" stop-color="#103DB5" />
      <stop offset="64.26%" stop-color="#6BABFD" />
    </linearGradient>
    <linearGradient gradientUnits="objectBoundingBox" x1="0.8883728" y1="0.8648869" x2="0.35984895" y2="0.063909054" id="gradient_5">
      <stop offset="0%" stop-color="#103DB5" />
      <stop offset="64.26%" stop-color="#6BABFD" />
    </linearGradient>
    <linearGradient gradientUnits="objectBoundingBox" x1="0.59987015" y1="0.27750054" x2="0.39513418" y2="0.607897" id="gradient_6">
      <stop offset="0%" stop-color="#0CFFFC" stop-opacity="0.6" />
      <stop offset="100%" stop-color="#FFFFFF" stop-opacity="0" />
    </linearGradient>
    <linearGradient gradientUnits="objectBoundingBox" x1="-2.600518" y1="0.5009698" x2="-1.6010457" y2="0.5009698" id="gradient_7">
      <stop offset="0%" stop-color="#E5EDF6" />
      <stop offset="100%" stop-color="#F0F5FA" />
    </linearGradient>
    <linearGradient gradientUnits="objectBoundingBox" x1="-1.6408501" y1="0.5020374" x2="-0.64360887" y2="0.5020374" id="gradient_8">
      <stop offset="0%" stop-color="#E5EDF6" />
      <stop offset="100%" stop-color="#F0F5FA" />
    </linearGradient>
    <linearGradient gradientUnits="objectBoundingBox" x1="-10.714534" y1="0.49402532" x2="-9.691494" y2="0.49402532" id="gradient_9">
      <stop offset="0%" stop-color="#E5EDF6" />
      <stop offset="100%" stop-color="#F0F5FA" />
    </linearGradient>
    <linearGradient gradientUnits="objectBoundingBox" x1="-0.0036583336" y1="0.50419754" x2="0.99563336" y2="0.50419754" id="gradient_10">
      <stop offset="0%" stop-color="#103DB5" />
      <stop offset="100%" stop-color="#6BABFD" />
    </linearGradient>
    <linearGradient gradientUnits="objectBoundingBox" x1="1.1026924" y1="0.32349542" x2="0.28819233" y2="0.6881035" id="gradient_11">
      <stop offset="0%" stop-color="#FF8000" />
      <stop offset="100%" stop-color="#FFD000" />
    </linearGradient>
    <linearGradient gradientUnits="objectBoundingBox" x1="0.77623075" y1="0.17137499" x2="0.3825384" y2="0.7283438" id="gradient_12">
      <stop offset="0%" stop-color="#FF8000" />
      <stop offset="100%" stop-color="#FFD000" />
    </linearGradient>
    <linearGradient gradientUnits="objectBoundingBox" x1="-0.00072483224" y1="0.50292134" x2="1.0040402" y2="0.50292134" id="gradient_13">
      <stop offset="0%" stop-color="#FF8000" />
      <stop offset="100%" stop-color="#FFD000" />
    </linearGradient>
    <linearGradient gradientUnits="objectBoundingBox" x1="0.54044074" y1="3.8255692" x2="0.54044074" y2="5.125797" id="gradient_14">
      <stop offset="0%" stop-color="#FF8000" />
      <stop offset="100%" stop-color="#FFD000" />
    </linearGradient>
    <linearGradient gradientUnits="objectBoundingBox" x1="0.5479158" y1="9.284806" x2="0.5479158" y2="10.453777" id="gradient_15">
      <stop offset="0%" stop-color="#FF8000" />
      <stop offset="100%" stop-color="#FFD000" />
    </linearGradient>
    <linearGradient gradientUnits="objectBoundingBox" x1="0.4832589" y1="14.163772" x2="0.4832589" y2="15.228359" id="gradient_16">
      <stop offset="0%" stop-color="#FF8000" />
      <stop offset="100%" stop-color="#FFD000" />
    </linearGradient>
    <linearGradient gradientUnits="objectBoundingBox" x1="0.46462235" y1="5.7258964" x2="0.46462235" y2="6.676218" id="gradient_17">
      <stop offset="0%" stop-color="#FF8000" />
      <stop offset="100%" stop-color="#FFD000" />
    </linearGradient>
    <linearGradient gradientUnits="objectBoundingBox" x1="0.52563953" y1="6.9568367" x2="0.52563953" y2="7.877242" id="gradient_18">
      <stop offset="0%" stop-color="#FF8000" />
      <stop offset="100%" stop-color="#FFD000" />
    </linearGradient>
    <linearGradient gradientUnits="objectBoundingBox" x1="0.44008893" y1="7.409977" x2="0.44008893" y2="8.02477" id="gradient_19">
      <stop offset="0%" stop-color="#FF8000" />
      <stop offset="100%" stop-color="#FFD000" />
    </linearGradient>
    <linearGradient gradientUnits="objectBoundingBox" x1="-418.8526" y1="-304.74915" x2="-417.3509" y2="-303.6533" id="gradient_20">
      <stop offset="0%" stop-color="#2500E9" />
      <stop offset="52.399998%" stop-color="#9987F4" />
      <stop offset="100%" stop-color="#FFFFFF" />
    </linearGradient>
    <linearGradient gradientUnits="objectBoundingBox" x1="-4.8240004" y1="0.007000018" x2="31.617" y2="3.3851428" id="gradient_21">
      <stop offset="0%" stop-color="#FF8000" />
      <stop offset="100%" stop-color="#FFD000" />
    </linearGradient>
    <linearGradient gradientUnits="objectBoundingBox" x1="-6.808" y1="-0.13928564" x2="29.633001" y2="3.238857" id="gradient_22">
      <stop offset="0%" stop-color="#FF8000" />
      <stop offset="100%" stop-color="#FFD000" />
    </linearGradient>
    <linearGradient gradientUnits="objectBoundingBox" x1="-8.793" y1="-0.28557143" x2="27.648" y2="3.0925713" id="gradient_23">
      <stop offset="0%" stop-color="#FF8000" />
      <stop offset="100%" stop-color="#FFD000" />
    </linearGradient>
    <linearGradient gradientUnits="objectBoundingBox" x1="-10.776999" y1="-0.5747143" x2="25.664" y2="2.8032858" id="gradient_24">
      <stop offset="0%" stop-color="#FF8000" />
      <stop offset="100%" stop-color="#FFD000" />
    </linearGradient>
    <linearGradient gradientUnits="objectBoundingBox" x1="-11.761" y1="-0.72114295" x2="24.68" y2="2.6571429" id="gradient_25">
      <stop offset="0%" stop-color="#FF8000" />
      <stop offset="100%" stop-color="#FFD000" />
    </linearGradient>
    <linearGradient gradientUnits="objectBoundingBox" x1="-13.745999" y1="-0.8672857" x2="22.695002" y2="2.510857" id="gradient_26">
      <stop offset="0%" stop-color="#FF8000" />
      <stop offset="100%" stop-color="#FFD000" />
    </linearGradient>
    <linearGradient gradientUnits="objectBoundingBox" x1="-15.731001" y1="-1.0135715" x2="20.711" y2="2.3645716" id="gradient_27">
      <stop offset="0%" stop-color="#FF8000" />
      <stop offset="100%" stop-color="#FFD000" />
    </linearGradient>
    <linearGradient gradientUnits="objectBoundingBox" x1="-17.715002" y1="-1.159857" x2="18.726" y2="2.2182856" id="gradient_28">
      <stop offset="0%" stop-color="#FF8000" />
      <stop offset="100%" stop-color="#FFD000" />
    </linearGradient>
    <linearGradient gradientUnits="objectBoundingBox" x1="-18.699" y1="-1.3061428" x2="17.742" y2="2.0719998" id="gradient_29">
      <stop offset="0%" stop-color="#FF8000" />
      <stop offset="100%" stop-color="#FFD000" />
    </linearGradient>
    <linearGradient gradientUnits="objectBoundingBox" x1="-20.684" y1="-1.4524286" x2="15.758001" y2="1.9257144" id="gradient_30">
      <stop offset="0%" stop-color="#FF8000" />
      <stop offset="100%" stop-color="#FFD000" />
    </linearGradient>
    <linearGradient gradientUnits="objectBoundingBox" x1="-22.668" y1="-1.5987142" x2="13.773001" y2="1.7794285" id="gradient_31">
      <stop offset="0%" stop-color="#FF8000" />
      <stop offset="100%" stop-color="#FFD000" />
    </linearGradient>
    <linearGradient gradientUnits="objectBoundingBox" x1="-24.653" y1="-1.7449998" x2="11.788001" y2="1.633143" id="gradient_32">
      <stop offset="0%" stop-color="#FF8000" />
      <stop offset="100%" stop-color="#FFD000" />
    </linearGradient>
    <linearGradient gradientUnits="objectBoundingBox" x1="-25.637001" y1="-2.0341427" x2="10.804" y2="1.3439999" id="gradient_33">
      <stop offset="0%" stop-color="#FF8000" />
      <stop offset="100%" stop-color="#FFD000" />
    </linearGradient>
    <linearGradient gradientUnits="objectBoundingBox" x1="-27.622" y1="-2.180286" x2="8.818999" y2="1.1977142" id="gradient_34">
      <stop offset="0%" stop-color="#FF8000" />
      <stop offset="100%" stop-color="#FFD000" />
    </linearGradient>
    <linearGradient gradientUnits="objectBoundingBox" x1="-29.605001" y1="-2.326857" x2="6.835999" y2="1.0512856" id="gradient_35">
      <stop offset="0%" stop-color="#FF8000" />
      <stop offset="100%" stop-color="#FFD000" />
    </linearGradient>
    <linearGradient gradientUnits="objectBoundingBox" x1="-31.591" y1="-2.472857" x2="4.8500013" y2="0.9052857" id="gradient_36">
      <stop offset="0%" stop-color="#FF8000" />
      <stop offset="100%" stop-color="#FFD000" />
    </linearGradient>
    <linearGradient gradientUnits="objectBoundingBox" x1="-33.576" y1="-2.6191428" x2="2.8650005" y2="0.75914305" id="gradient_37">
      <stop offset="0%" stop-color="#FF8000" />
      <stop offset="100%" stop-color="#FFD000" />
    </linearGradient>
    <linearGradient gradientUnits="objectBoundingBox" x1="-34.559998" y1="-2.7654288" x2="1.8820013" y2="0.61271435" id="gradient_38">
      <stop offset="0%" stop-color="#FF8000" />
      <stop offset="100%" stop-color="#FFD000" />
    </linearGradient>
    <linearGradient gradientUnits="objectBoundingBox" x1="-36.545002" y1="-2.9117143" x2="-0.102999575" y2="0.46642867" id="gradient_39">
      <stop offset="0%" stop-color="#FF8000" />
      <stop offset="100%" stop-color="#FFD000" />
    </linearGradient>
    <linearGradient gradientUnits="objectBoundingBox" x1="-38.528" y1="-3.0581427" x2="-2.0869985" y2="0.3200001" id="gradient_40">
      <stop offset="0%" stop-color="#FF8000" />
      <stop offset="100%" stop-color="#FFD000" />
    </linearGradient>
    <linearGradient gradientUnits="objectBoundingBox" x1="-40.513" y1="-3.2042854" x2="-4.071998" y2="0.17385726" id="gradient_41">
      <stop offset="0%" stop-color="#FF8000" />
      <stop offset="100%" stop-color="#FFD000" />
    </linearGradient>
    <linearGradient gradientUnits="objectBoundingBox" x1="-41.498" y1="-3.4934285" x2="-5.057" y2="-0.11528573" id="gradient_42">
      <stop offset="0%" stop-color="#FF8000" />
      <stop offset="100%" stop-color="#FFD000" />
    </linearGradient>
    <linearGradient gradientUnits="objectBoundingBox" x1="-43.482002" y1="-3.639714" x2="-7.041" y2="-0.26157135" id="gradient_43">
      <stop offset="0%" stop-color="#FF8000" />
      <stop offset="100%" stop-color="#FFD000" />
    </linearGradient>
    <linearGradient gradientUnits="objectBoundingBox" x1="-45.466" y1="-3.7859995" x2="-9.025" y2="-0.40785697" id="gradient_44">
      <stop offset="0%" stop-color="#FF8000" />
      <stop offset="100%" stop-color="#FFD000" />
    </linearGradient>
    <linearGradient gradientUnits="objectBoundingBox" x1="-0.17085601" y1="0.8590754" x2="0.6669318" y2="0.18890846" id="gradient_45">
      <stop offset="0%" stop-color="#97B5E1" />
      <stop offset="100%" stop-color="#ECF1FA" />
    </linearGradient>
    <linearGradient gradientUnits="objectBoundingBox" x1="1.0810488" y1="0.7875309" x2="-0.18867072" y2="0.040593978" id="gradient_46">
      <stop offset="0%" stop-color="#FFFFFF" />
      <stop offset="100%" stop-color="#C9D9F4" />
    </linearGradient>
    <linearGradient gradientUnits="objectBoundingBox" x1="1.1702858" y1="0.862752" x2="0.3211429" y2="0.20942494" id="gradient_47">
      <stop offset="0%" stop-color="#97B5E1" />
      <stop offset="100%" stop-color="#ECF1FA" />
    </linearGradient>
    <linearGradient gradientUnits="objectBoundingBox" x1="-0.09029166" y1="0.79965854" x2="1.1921667" y2="0.051030964" id="gradient_48">
      <stop offset="0%" stop-color="#FFFFFF" />
      <stop offset="100%" stop-color="#C9D9F4" />
    </linearGradient>
  </defs>
  <g id="rpg_build_3x">
    <path d="M100 0L100 0L100 100L0 100L0 0L100 0Z" id="rpg_build_3x" fill="none" stroke="none" />
    <g id="buildings" transform="translate(3.1624146 2.382308)">
      <g id="Group" transform="translate(0 33.36769)">
        <g id="Group" transform="translate(0 9.400002)" opacity="0.4">
          <path d="M89.1376 20.95C95.0376 24.35 95.0376 29.85 89.2376 33.25L57.5376 51.65C51.7376 55.05 42.2376 55.05 36.3376 51.65L4.43758 33.25C-1.46242 29.85 -1.46242 24.35 4.33758 20.95L36.0376 2.55C41.8376 -0.85 51.3376 -0.85 57.2376 2.55L89.1376 20.95L89.1376 20.95Z" id="Vector" fill="#00357C" fill-opacity="0.4" fill-rule="evenodd" stroke="none" />
        </g>
        <g id="Group">
          <path d="M93.6376 27.15L0.0375824 27.15L0.0375824 30.45C0.0375824 32.65 1.53757 34.85 4.43757 36.55L36.3376 54.95C42.2376 58.35 51.7376 58.35 57.5376 54.95L89.2376 36.55C92.1376 34.85 93.6376 32.65 93.6376 30.45L93.6376 27.15L93.6376 27.15Z" id="Vector" fill="url(#gradient_1)" fill-rule="evenodd" stroke="none" />
          <g id="Group">
            <path d="M89.1376 20.95C95.0376 24.35 95.0376 29.85 89.2376 33.25L57.5376 51.65C51.7376 55.05 42.2376 55.05 36.3376 51.65L4.43758 33.25C-1.46242 29.85 -1.46242 24.35 4.33758 20.95L36.0376 2.55C41.8376 -0.85 51.3376 -0.85 57.2376 2.55L89.1376 20.95L89.1376 20.95Z" id="Vector" fill="#F3F8FE" fill-rule="evenodd" stroke="none" />
          </g>
        </g>
      </g>
      <g id="Group" transform="translate(8.574997 38.34269)">
        <path d="M46.8852 2.05711C44.4391 0.681196 41.2694 0 38.1251 0C34.9811 0 31.8353 0.681104 29.4381 2.05822L29.4376 2.05851L3.63807 16.9582L3.63756 16.9585C1.24052 18.3357 -0.0132336 20.2061 0.00010547 22.1267C0.01344 24.0467 1.29226 25.9152 3.73757 27.2915L3.74003 27.2929L29.5376 42.1915L29.54 42.1929C31.9861 43.5688 35.1558 44.25 38.3001 44.25C41.4441 44.25 44.5899 43.5689 46.9871 42.1918L46.988 42.1913L72.6871 27.2918L72.688 27.2913C75.0848 25.9141 76.3384 24.0438 76.3251 22.1233C76.3117 20.2035 75.0331 18.335 72.588 16.9587L72.5851 16.957L46.888 2.0587L46.8852 2.05711L46.8852 2.05711ZM29.6876 2.49149C31.9903 1.1688 35.0443 0.5 38.1251 0.5C41.2046 0.5 44.2836 1.16827 46.6372 2.49128L46.64 2.4929L72.3372 17.3913L72.34 17.3929C74.6931 18.7165 75.8134 20.4473 75.8251 22.1267C75.8367 23.806 74.7407 25.5354 72.438 26.8582L72.4372 26.8587L46.7381 41.7582L46.7372 41.7587C44.4345 43.0813 41.3807 43.75 38.3001 43.75C35.2205 43.75 32.1412 43.0817 29.7876 41.7585L29.7852 41.7571L3.98764 26.8585L3.98517 26.8571C1.63209 25.5335 0.511757 23.8027 0.500094 22.1233C0.488431 20.444 1.5845 18.7146 3.88713 17.3918L3.88762 17.3915L29.6871 2.49178L29.6876 2.49149L29.6876 2.49149Z" id="Vector" fill="#0CFFFC" fill-rule="evenodd" stroke="none" />
      </g>
      <g id="Group" transform="translate(14.637573 16.092691)">
        <path d="M63.5 18.125L0.899994 18.125L0.899994 42.525C0.899994 44.025 1.89999 45.525 3.89999 46.625L25.2 58.925C29.1 61.225 35.5 61.225 39.4 58.925L60.6 46.625C62.5 45.525 63.5 44.025 63.5 42.525L63.5 18.125L63.5 18.125Z" id="Vector" fill="url(#gradient_2)" fill-rule="evenodd" stroke="none" />
        <path d="M60.4 14.025C64.3 16.325 64.3 19.925 60.5 22.225L39.3 34.525C35.4 36.825 29.1 36.825 25.1 34.525L3.80003 22.225C-0.0999695 19.925 -0.0999695 16.325 3.80003 14.025L25 1.725C28.9 -0.575 35.2 -0.575 39.1 1.725L60.4 14.025L60.4 14.025Z" id="Vector" fill="#BCD0F1" fill-rule="evenodd" stroke="none" />
        <g id="Group" transform="translate(0.8750303 0.12499988)">
          <g id="Group">
            <path d="M31.225 0C28.625 0 26.125 0.599999 24.125 1.7L2.925 14C-0.975 16.3 -0.975 19.9 2.925 22.2L24.325 34.4C26.325 35.5 28.825 36.1 31.425 36.1C34.025 36.1 36.525 35.5 38.525 34.4L59.725 22.1C63.625 19.8 63.625 16.2 59.625 13.9L38.325 1.6C36.325 0.5 33.725 0 31.225 0L31.225 0ZM31.225 0.4L31.225 0.5C33.825 0.5 36.225 1.1 38.025 2.1L59.325 14.4C61.025 15.4 62.025 16.7 62.025 18.1C62.025 19.5 61.125 20.8 59.325 21.7L38.125 34C36.325 35.1 33.925 35.6 31.325 35.6C28.725 35.6 26.325 35 24.525 34L3.22499 21.7C1.52499 20.7 0.524976 19.4 0.524976 18C0.524976 16.6 1.42499 15.3 3.22499 14.3L24.425 2C26.225 0.9 28.625 0.4 31.225 0.4L31.225 0.4Z" id="Vector" fill="url(#gradient_3)" fill-rule="evenodd" stroke="none" />
          </g>
        </g>
        <g id="Group" transform="translate(5.100006 33.505302)">
          <path d="M17 9.4197C17.5 9.7197 17.8 10.3197 17.8 10.9197L17.8 15.5197C17.8 16.0197 17.4 16.3197 16.9 16.0197L0.799988 6.7197C0.299988 6.4197 0 5.8197 0 5.2197L0 0.619694C0 0.119694 0.399994 -0.180306 0.899994 0.119694L17 9.4197L17 9.4197Z" id="Vector" fill="#0CFFFC" fill-rule="evenodd" stroke="none" />
          <path d="M17.8 15.5197L1.70002 6.21969C1.20002 5.91969 0.899994 5.31969 0.899994 4.71969L0.899994 0.119693C0.499994 -0.0803065 0.100006 0.119693 0.100006 0.619694L0.100006 5.21969C0.100006 5.71969 0.499994 6.41969 0.899994 6.71969L17 16.0197C17.5 16.3197 17.9 16.1197 17.8 15.5197L17.8 15.5197Z" id="Vector" fill="#1964BA" fill-rule="evenodd" stroke="none" />
        </g>
        <g id="Group" transform="translate(4.919643 29.425001)">
          <g id="Group">
            <path d="M1.58036 2.4L2.28037 2C2.38037 1.9 2.48036 1.7 2.48036 1.5C2.48036 1 2.08037 0.399998 1.68037 0.0999985C1.48037 -1.52737e-06 1.28036 0 1.08036 0L0.380375 0.399998L1.58036 2.4L1.58036 2.4Z" id="Vector" fill="url(#gradient_4)" fill-rule="evenodd" stroke="none" />
            <g id="Group" transform="translate(0 0.15237236)">
              <path d="M1.61513 2.20687C1.90257 2.04199 1.89053 1.48113 1.58825 0.95416C1.28596 0.42719 0.807894 0.133666 0.520456 0.29855C0.233019 0.463433 0.245051 1.02429 0.547338 1.55126C0.849622 2.07823 1.32769 2.37175 1.61513 2.20687L1.61513 2.20687Z" id="Vector" fill="#2185F8" fill-rule="evenodd" stroke="none" />
            </g>
            <g id="Group" transform="translate(0.3725257 0.49932265)">
              <path d="M1.13032 1.46318C1.36986 1.32577 1.40809 0.942537 1.21572 0.607194C1.02336 0.27185 0.673244 0.111385 0.433709 0.24879C0.194174 0.386195 0.155942 0.769429 0.348306 1.10477C0.54067 1.44012 0.890786 1.60058 1.13032 1.46318L1.13032 1.46318Z" id="Vector" fill="#0CFFFC" fill-rule="evenodd" stroke="none" />
            </g>
          </g>
          <g id="Group" transform="translate(3.3081968 1.7999992)">
            <path d="M1.57218 2.4L2.27216 2C2.37216 1.9 2.47218 1.7 2.47218 1.5C2.47218 1 2.07216 0.399998 1.67216 0.0999985C1.47216 -1.52737e-06 1.27218 0 1.07218 0L0.372166 0.399998L1.57218 2.4L1.57218 2.4Z" id="Vector" fill="url(#gradient_5)" fill-rule="evenodd" stroke="none" />
            <g id="Group" transform="translate(0 0.23948449)">
              <path d="M1.61513 2.20686C1.90257 2.04197 1.89051 1.48113 1.58822 0.95416C1.28594 0.427194 0.807893 0.133651 0.520456 0.298535C0.233019 0.463418 0.245053 1.02428 0.547338 1.55125C0.849627 2.07822 1.32769 2.37174 1.61513 2.20686L1.61513 2.20686Z" id="Vector" fill="#2185F8" fill-rule="evenodd" stroke="none" />
            </g>
            <g id="Group" transform="translate(0.37249523 0.58643883)">
              <path d="M1.13034 1.46317C1.36986 1.32577 1.40809 0.942537 1.21572 0.607194C1.02336 0.27185 0.673251 0.111381 0.433725 0.248781C0.194201 0.38618 0.155942 0.769429 0.348306 1.10477C0.54067 1.44012 0.890812 1.60057 1.13034 1.46317L1.13034 1.46317Z" id="Vector" fill="#FFE200" fill-rule="evenodd" stroke="none" />
            </g>
          </g>
        </g>
        <path d="M23 44.425C23 43.925 22.6 43.225 22.2 42.925L6.10001 33.625C5.90001 33.525 5.70001 33.525 5.60001 33.525L0.300018 35.225C0.100018 35.325 0 35.525 0 35.825L0 41.125C0 41.725 0.4 42.525 1 42.825L18.8 53.525C19.2 53.725 19.6 53.525 19.7 53.325C20.5 52.325 22.9 49.425 22.9 49.425C22.9 49.425 23.1 49.325 23.1 48.925L23 44.425L23 44.425Z" id="Vector" fill="url(#gradient_6)" fill-rule="evenodd" stroke="none" />
      </g>
      <g id="Group" transform="translate(24.274715 20.109652)">
        <path d="M0 6.71608L35.3382 27.2801L35.4379 51.5085C35.4381 51.5522 35.461 51.5926 35.4984 51.6151L45.7984 57.8151L45.9274 57.6009L35.6876 51.4372L35.5879 27.2075C35.5877 27.1632 35.5641 27.1223 35.5258 27.1L0.12574 6.5L0 6.71608L0 6.71608Z" id="Vector" fill="#7AB6FB" fill-rule="evenodd" stroke="none" />
        <path d="M2.29985 5.416L37.5382 25.98L37.6379 50.2085C37.6381 50.2522 37.661 50.2926 37.6984 50.3151L47.9984 56.5151L48.1274 56.3009L37.8876 50.1372L37.7879 25.9075C37.7877 25.8632 37.7642 25.8224 37.7259 25.8L2.42586 5.20008L2.29985 5.416L2.29985 5.416Z" id="Vector" fill="#7AB6FB" fill-rule="evenodd" stroke="none" />
        <path d="M4.5 4.11608L39.8382 24.6801L39.9379 48.9085C39.9381 48.952 39.9608 48.9922 39.998 49.0148L50.198 55.2148L50.3278 55.0012L40.1876 48.8376L40.0879 24.6075C40.0877 24.5632 40.0641 24.5223 40.0258 24.5L4.62574 3.9L4.5 4.11608L4.5 4.11608Z" id="Vector" fill="#7AB6FB" fill-rule="evenodd" stroke="none" />
        <path d="M6.69998 2.81608L42.0381 23.38L42.1379 47.6085C42.1381 47.6522 42.161 47.6926 42.1984 47.7151L52.4985 53.9151L52.6273 53.7009L42.3876 47.5372L42.2879 23.3075C42.2877 23.2632 42.2641 23.2223 42.2257 23.2L6.82572 2.6L6.69998 2.81608L6.69998 2.81608Z" id="Vector" fill="#7AB6FB" fill-rule="evenodd" stroke="none" />
        <path d="M8.99987 1.516L44.2385 22.0802L44.4379 46.409C44.4383 46.4526 44.4613 46.4929 44.4987 46.5153L54.6987 52.6153L54.827 52.4007L44.6873 46.3368L44.4879 22.007C44.4875 21.9629 44.464 21.9223 44.4259 21.9L9.12587 1.30008L8.99987 1.516L8.99987 1.516Z" id="Vector" fill="#7AB6FB" fill-rule="evenodd" stroke="none" />
        <path d="M11.2 0.216078L46.5381 20.78L46.6379 45.1085C46.6381 45.1523 46.6612 45.1928 46.6987 45.2153L56.8988 51.3153L57.0271 51.1007L46.8876 45.0369L46.7879 20.7075C46.7877 20.6632 46.7641 20.6223 46.7257 20.6L11.3257 0L11.2 0.216078L11.2 0.216078Z" id="Vector" fill="#7AB6FB" fill-rule="evenodd" stroke="none" />
      </g>
      <g id="body_2_" transform="translate(25.14795 0)">
        <path d="M16.0896 21.0177C15.8896 20.7177 15.7896 20.4177 15.7896 20.1177L15.7896 0.717691C15.7896 0.117691 16.5896 -0.182309 16.9896 0.117691L41.0896 14.0177C41.5896 14.3177 41.9896 15.0177 41.9896 15.5177L41.9896 34.9177C41.9896 35.3177 41.5896 35.8177 41.1896 35.7177L16.0896 21.0177L16.0896 21.0177Z" id="路径_2135_2_" fill="#DCE7F2" fill-rule="evenodd" stroke="none" />
        <path d="M41.0896 35.9177L41.0896 36.7177C41.0896 36.9177 40.9896 37.0177 40.7896 37.1177L26.2896 45.5177C25.8896 45.7177 25.0896 45.7177 24.5896 45.4177L0.48961 31.5177C-0.0103896 31.2177 -0.210371 29.9177 0.289629 29.6177L41.0896 35.9177L41.0896 35.9177Z" id="路径_2136_2_" fill="#DCE7F2" fill-rule="evenodd" stroke="none" />
        <path d="M16.0896 21.1177C15.8896 20.8177 15.7896 20.5177 15.7896 20.2177L15.7896 0.817692C15.7896 0.217692 16.1896 0.0176917 16.6896 0.317692L40.7896 14.2177C41.2896 14.5177 41.6896 15.2177 41.6896 15.7177L41.6896 35.1177C41.6896 35.5177 41.3896 35.8177 41.0896 35.7177L16.0896 21.1177L16.0896 21.1177Z" id="路径_2137_2_" fill="url(#gradient_7)" fill-rule="evenodd" stroke="none" />
        <path d="M40.9896 35.1177L40.9896 16.2177C40.9896 16.1177 40.8896 16.0177 40.7896 15.9177L16.8896 2.21769C16.7896 2.11769 16.6896 2.21769 16.6896 2.31769L16.6896 21.1177C16.6896 21.2177 16.7896 21.3177 16.8896 21.4177L40.7896 35.2177C40.8896 35.3177 40.9896 35.2177 40.9896 35.1177L40.9896 35.1177Z" id="路径_2138_2_" fill="#1964BA" fill-rule="evenodd" stroke="none" />
        <path d="M9.58962 35.7177L0.589618 30.5177C0.0896174 30.2177 -0.0103885 29.8177 0.489612 29.5177L14.9896 21.1177C15.3896 20.9177 16.1896 20.9177 16.6896 21.2177L40.7896 35.1177C41.2896 35.4177 41.3896 35.8177 40.8896 36.1177L26.3896 44.5177C25.9896 44.7177 25.1896 44.7177 24.6896 44.4177L16.0896 39.4177L9.58962 35.7177L9.58962 35.7177Z" id="路径_2139_2_" fill="url(#gradient_8)" fill-rule="evenodd" stroke="none" />
        <path d="M10.1896 34.3177L18.0896 38.9177C18.2896 39.0177 18.5897 39.0177 18.7897 38.9177L22.3897 36.8177C22.5897 36.7177 22.5897 36.5177 22.4897 36.4177L14.5896 31.8177C14.3896 31.7177 14.0896 31.7177 13.8896 31.8177L10.2897 33.9177C9.98965 34.1177 9.98965 34.2177 10.1896 34.3177L10.1896 34.3177Z" id="路径_2140_2_" fill="#004680" fill-opacity="0.2" fill-rule="evenodd" stroke="none" />
        <path d="M11.3896 36.9177L15.4896 39.3177C15.5896 39.4177 15.7896 39.4177 15.8896 39.4177L15.9896 39.4177C15.9896 39.3177 15.8896 39.2177 15.7896 39.1177L10.1896 35.9177C10.0896 35.8177 9.88964 35.8177 9.78964 35.8177L9.68964 35.8177C9.68964 35.9177 9.78962 36.0177 9.88962 36.1177L10.0896 36.2177L10.8896 36.7177L11.0896 36.8177L11.3896 36.9177L11.3896 36.9177Z" id="路径_2141_2_" fill="url(#gradient_9)" fill-rule="evenodd" stroke="none" />
        <path d="M30.7897 39.9177L29.5897 39.2177C29.4897 39.2177 29.4897 39.1177 29.5897 39.1177L29.9896 38.9177C30.0896 38.9177 30.1897 38.9177 30.1897 38.9177L31.3896 39.6177C31.4896 39.6177 31.4896 39.7177 31.3896 39.7177L30.9896 39.9177C30.9896 39.9177 30.8897 39.9177 30.7897 39.9177L30.7897 39.9177ZM30.9896 38.1177L29.3896 37.2177C29.2896 37.2177 29.2896 37.1177 29.3896 37.1177L30.4896 36.5177C30.5896 36.5177 30.6897 36.5177 30.6897 36.5177L33.4896 38.1177C33.5896 38.1177 33.5896 38.2177 33.4896 38.2177L32.3896 38.8177C32.2896 38.8177 32.1897 38.8177 32.1897 38.8177L31.3896 38.3177M33.7897 37.9177L31.6897 36.7177C31.5897 36.7177 31.5897 36.6177 31.6897 36.6177L32.7897 36.0177C32.8897 36.0177 32.9896 36.0177 32.9896 36.0177L35.0897 37.2177C35.1897 37.2177 35.1897 37.3177 35.0897 37.3177L33.9896 37.9177C33.9896 38.0177 33.8897 38.0177 33.7897 37.9177L33.7897 37.9177ZM35.3896 37.0177L34.2897 36.4177C34.1897 36.4177 34.1897 36.3177 34.2897 36.3177L35.3896 35.7177C35.4896 35.7177 35.5897 35.7177 35.5897 35.7177L36.6897 36.3177C36.7897 36.3177 36.7897 36.4177 36.6897 36.4177L35.5897 37.0177C35.5897 37.0177 35.4896 37.0177 35.3896 37.0177L35.3896 37.0177ZM33.7897 36.1177L32.6897 35.5177C32.5897 35.5177 32.5897 35.4177 32.6897 35.4177L33.7897 34.8177C33.8897 34.8177 33.9896 34.8177 33.9896 34.8177L35.0897 35.4177C35.1897 35.4177 35.1897 35.5177 35.0897 35.5177L33.9896 36.1177C33.9896 36.1177 33.8897 36.1177 33.7897 36.1177L33.7897 36.1177ZM31.6897 34.8177L31.0897 34.5177C30.9897 34.5177 30.9897 34.4177 31.0897 34.4177L32.1897 33.8177C32.2897 33.8177 32.3896 33.8177 32.3896 33.8177L33.4896 34.4177C33.5896 34.4177 33.5896 34.5177 33.4896 34.5177L32.3896 35.1177C32.2896 35.1177 32.1897 35.1177 32.1897 35.1177M30.5897 34.2177L29.4896 33.6177C29.3896 33.6177 29.3896 33.5177 29.4896 33.5177L30.4896 32.9177C30.5896 32.9177 30.6897 32.9177 30.6897 32.9177L31.7897 33.5177C31.8897 33.5177 31.8897 33.6177 31.7897 33.6177L30.6897 34.2177C30.7897 34.2177 30.6897 34.2177 30.5897 34.2177L30.5897 34.2177ZM28.9896 33.3177L27.8896 32.7177C27.7896 32.7177 27.7896 32.6177 27.8896 32.6177L28.8896 32.0177C28.9896 32.0177 29.0897 32.0177 29.0897 32.0177L30.1897 32.6177C30.2897 32.6177 30.2897 32.7177 30.1897 32.7177L29.1897 33.3177C29.1897 33.3177 29.0896 33.3177 28.9896 33.3177L28.9896 33.3177ZM27.3896 32.4177L26.2897 31.8177C26.1897 31.8177 26.1897 31.7177 26.2897 31.7177L27.2897 31.1177C27.3897 31.1177 27.4896 31.1177 27.4896 31.1177L28.5897 31.7177C28.6897 31.7177 28.6897 31.8177 28.5897 31.8177L27.5897 32.4177C27.5897 32.4177 27.4896 32.4177 27.3896 32.4177L27.3896 32.4177ZM25.7897 31.4177L24.6897 30.8177C24.5897 30.8177 24.5897 30.7177 24.6897 30.7177L25.6897 30.1177C25.7897 30.1177 25.8896 30.1177 25.8896 30.1177L26.9896 30.7177C27.0896 30.7177 27.0896 30.8177 26.9896 30.8177L25.9896 31.4177C25.9896 31.5177 25.8897 31.5177 25.7897 31.4177L25.7897 31.4177ZM24.1897 30.5177L23.0897 29.9177C22.9896 29.9177 22.9896 29.8177 23.0897 29.8177L24.0897 29.2177C24.1897 29.2177 24.2897 29.2177 24.2897 29.2177L25.3896 29.8177C25.4896 29.8177 25.4896 29.9177 25.3896 29.9177L24.3896 30.5177C24.3896 30.6177 24.2897 30.6177 24.1897 30.5177L24.1897 30.5177ZM22.5897 29.6177L21.4896 29.0177C21.3896 29.0177 21.3896 28.9177 21.4896 28.9177L22.4896 28.3177C22.5896 28.3177 22.6897 28.3177 22.6897 28.3177L23.7897 28.9177C23.8897 28.9177 23.8897 29.0177 23.7897 29.0177L22.7897 29.6177C22.7897 29.6177 22.6897 29.6177 22.5897 29.6177L22.5897 29.6177ZM21.2897 28.7177C21.1897 28.7177 21.0897 28.7177 21.0897 28.7177L19.9896 28.1177C19.8896 28.1177 19.8896 28.0177 19.9896 28.0177L20.9896 27.4177C21.0896 27.4177 21.1897 27.4177 21.1897 27.4177L22.2897 28.0177C22.3897 28.0177 22.3897 28.1177 22.2897 28.1177L21.2897 28.7177L21.2897 28.7177ZM19.6897 27.8177C19.5897 27.8177 19.4896 27.8177 19.4896 27.8177L18.3896 27.2177C18.2896 27.2177 18.2896 27.1177 18.3896 27.1177L19.3896 26.5177C19.4896 26.5177 19.5897 26.5177 19.5897 26.5177L20.6897 27.1177C20.7897 27.1177 20.7897 27.2177 20.6897 27.2177L19.6897 27.8177L19.6897 27.8177ZM18.0896 26.9177C17.9896 26.9177 17.8896 26.9177 17.8896 26.9177L16.8896 26.3177C16.7896 26.3177 16.7896 26.2177 16.8896 26.2177L17.8896 25.6177C17.9896 25.6177 18.0896 25.6177 18.0896 25.6177L19.1897 26.2177C19.2897 26.2177 19.2897 26.3177 19.1897 26.3177L18.0896 26.9177L18.0896 26.9177ZM16.4896 26.0177C16.3896 26.0177 16.2896 26.0177 16.2896 26.0177L15.2896 25.4177C15.2896 25.4177 15.1897 25.3177 15.2896 25.3177L16.2896 24.7177C16.3897 24.7177 16.4896 24.7177 16.4896 24.7177L17.4896 25.3177C17.5896 25.3177 17.5896 25.4177 17.4896 25.4177L16.4896 26.0177L16.4896 26.0177ZM14.9896 25.0177C14.8896 25.0177 14.7896 25.0177 14.7896 25.0177L13.1897 24.1177C13.1897 24.1177 13.0897 24.0177 13.1897 24.0177L14.1897 23.4177C14.2896 23.4177 14.3896 23.4177 14.3896 23.4177L15.9896 24.3177C16.0896 24.3177 16.0896 24.4177 15.9896 24.4177L14.9896 25.0177L14.9896 25.0177ZM36.9896 36.1177L35.8896 35.5177C35.7896 35.5177 35.7896 35.4177 35.8896 35.4177L36.4896 35.1177C36.5896 35.1177 36.6897 35.1177 36.6897 35.1177L37.7897 35.7177C37.8897 35.7177 37.8897 35.8177 37.7897 35.8177L37.1897 36.1177C37.1897 36.1177 37.0896 36.1177 36.9896 36.1177L36.9896 36.1177ZM35.3896 35.1177L34.2897 34.5177C34.1897 34.5177 34.1897 34.4177 34.2897 34.4177L34.8896 34.1177C34.9896 34.1177 35.0897 34.1177 35.0897 34.1177L36.1897 34.7177C36.2897 34.7177 36.2897 34.8177 36.1897 34.8177L35.5897 35.1177C35.5897 35.2177 35.4896 35.2177 35.3896 35.1177L35.3896 35.1177ZM33.7897 34.2177L32.6897 33.6177C32.5897 33.6177 32.5897 33.5177 32.6897 33.5177L33.2897 33.2177C33.3897 33.2177 33.4896 33.2177 33.4896 33.2177L34.5897 33.8177C34.6897 33.8177 34.6897 33.9177 34.5897 33.9177L33.9896 34.2177C33.9896 34.2177 33.8897 34.2177 33.7897 34.2177L33.7897 34.2177ZM32.1897 33.3177L31.0897 32.7177C30.9897 32.7177 30.9897 32.6177 31.0897 32.6177L31.6897 32.3177C31.7897 32.3177 31.8896 32.3177 31.8896 32.3177L32.9896 32.9177C33.0896 32.9177 33.0896 33.0177 32.9896 33.0177L32.3896 33.3177C32.3896 33.3177 32.2897 33.3177 32.1897 33.3177L32.1897 33.3177ZM30.5897 32.4177L29.4896 31.8177C29.3896 31.8177 29.3896 31.7177 29.4896 31.7177L30.0897 31.4177C30.1897 31.4177 30.2897 31.4177 30.2897 31.4177L31.3896 32.0177C31.4896 32.0177 31.4896 32.1177 31.3896 32.1177L30.7897 32.4177C30.7897 32.4177 30.6897 32.4177 30.5897 32.4177L30.5897 32.4177ZM28.9896 31.4177L27.8896 30.8177C27.7896 30.8177 27.7896 30.7177 27.8896 30.7177L28.4896 30.4177C28.5896 30.4177 28.6897 30.4177 28.6897 30.4177L29.7897 31.0177C29.8897 31.0177 29.8897 31.1177 29.7897 31.1177L29.1897 31.4177C29.1897 31.5177 29.0896 31.5177 28.9896 31.4177L28.9896 31.4177ZM27.3896 30.5177L26.2897 29.9177C26.1897 29.9177 26.1897 29.8177 26.2897 29.8177L26.8896 29.5177C26.9896 29.5177 27.0897 29.5177 27.0897 29.5177L28.1897 30.1177C28.2897 30.1177 28.2897 30.2177 28.1897 30.2177L27.5897 30.5177C27.5897 30.6177 27.4896 30.6177 27.3896 30.5177L27.3896 30.5177ZM25.7897 29.6177L24.6897 29.0177C24.5897 29.0177 24.5897 28.9177 24.6897 28.9177L25.2897 28.6177C25.3897 28.6177 25.4896 28.6177 25.4896 28.6177L26.5897 29.2177C26.6897 29.2177 26.6897 29.3177 26.5897 29.3177L26.0897 29.6177C25.9897 29.6177 25.8897 29.6177 25.7897 29.6177L25.7897 29.6177ZM24.1897 28.7177L23.0897 28.1177C22.9896 28.1177 22.9896 28.0177 23.0897 28.0177L23.6897 27.7177C23.7897 27.7177 23.8896 27.7177 23.8896 27.7177L24.9896 28.3177C25.0896 28.3177 25.0896 28.4177 24.9896 28.4177L24.3896 28.7177C24.3896 28.7177 24.2897 28.7177 24.1897 28.7177L24.1897 28.7177ZM22.8896 27.8177C22.7896 27.8177 22.6897 27.8177 22.6897 27.8177L21.5897 27.2177C21.4896 27.2177 21.4896 27.1177 21.5897 27.1177L22.1897 26.8177C22.2897 26.8177 22.3896 26.8177 22.3896 26.8177L23.4896 27.4177C23.5896 27.4177 23.5896 27.5177 23.4896 27.5177L22.8896 27.8177L22.8896 27.8177ZM21.2897 26.9177C21.1897 26.9177 21.0897 26.9177 21.0897 26.9177L19.9896 26.3177C19.8896 26.3177 19.8896 26.2177 19.9896 26.2177L20.5897 25.9177C20.6897 25.9177 20.7897 25.9177 20.7897 25.9177L21.8896 26.5177C21.9896 26.5177 21.9896 26.6177 21.8896 26.6177L21.2897 26.9177L21.2897 26.9177ZM19.6897 25.9177C19.5897 25.9177 19.4896 25.9177 19.4896 25.9177L18.4896 25.3177C18.3896 25.3177 18.3896 25.2177 18.4896 25.2177L18.9896 24.9177C19.0896 24.9177 19.1897 24.9177 19.1897 24.9177L20.2897 25.5177C20.3897 25.5177 20.3897 25.6177 20.2897 25.6177L19.6897 25.9177L19.6897 25.9177ZM18.0896 25.0177C17.9896 25.0177 17.8896 25.0177 17.8896 25.0177L16.8896 24.4177C16.7896 24.4177 16.7896 24.3177 16.8896 24.3177L17.3896 24.0177C17.4896 24.0177 17.5896 24.0177 17.5896 24.0177L18.5897 24.6177C18.6897 24.6177 18.6897 24.7177 18.5897 24.7177L18.0896 25.0177L18.0896 25.0177ZM16.5896 24.1177C16.4896 24.1177 16.3896 24.1177 16.3896 24.1177L14.7896 23.2177C14.7896 23.2177 14.6897 23.1177 14.7896 23.1177L15.2896 22.8177C15.3897 22.8177 15.4896 22.8177 15.4896 22.8177L17.0896 23.7177C17.1896 23.7177 17.1896 23.8177 17.0896 23.8177L16.5896 24.1177L16.5896 24.1177ZM14.9896 25.6177C15.0896 25.6177 15.0896 25.7177 14.9896 25.7177L13.9896 26.3177C13.8896 26.3177 13.7896 26.3177 13.7896 26.3177L11.5896 25.0177C11.5896 25.0177 11.4896 24.9177 11.5896 24.9177L12.5896 24.3177C12.6896 24.3177 12.7896 24.3177 12.7896 24.3177L14.9896 25.6177L14.9896 25.6177ZM14.1897 27.0177C14.2896 27.0177 14.2896 27.1177 14.1897 27.1177L13.1897 27.7177C13.0897 27.7177 12.9896 27.7177 12.9896 27.7177L9.98963 26.0177C9.98963 26.0177 9.88963 25.9177 9.98963 25.9177L10.9896 25.3177C11.0896 25.3177 11.1897 25.3177 11.1897 25.3177L14.1897 27.0177L14.1897 27.0177ZM10.6897 26.7177C10.6897 26.8177 10.6897 26.8177 10.6897 26.7177C10.6897 26.8177 10.6897 26.8177 10.6897 26.8177L9.68965 27.4177C9.58965 27.4177 9.48963 27.4177 9.48963 27.4177L8.48963 26.8177C8.48963 26.8177 8.38964 26.7177 8.48963 26.7177L9.48963 26.1177C9.58963 26.1177 9.68965 26.1177 9.68965 26.1177L10.6897 26.7177L10.6897 26.7177ZM10.8896 27.0177C10.9896 27.0177 11.0896 27.0177 11.0896 27.0177L12.0896 27.6177C12.0896 27.6177 12.1896 27.7177 12.0896 27.7177L11.0896 28.3177C10.9896 28.3177 10.8896 28.3177 10.8896 28.3177L9.88963 27.7177C9.88963 27.7177 9.78963 27.6177 9.88963 27.6177L10.8896 27.0177L10.8896 27.0177ZM12.4896 28.0177C12.5896 28.0177 12.6897 28.0177 12.6897 28.0177L13.9896 28.8177C14.0896 28.8177 14.0896 28.9177 13.9896 28.9177L12.9896 29.5177C12.8896 29.5177 12.7896 29.5177 12.7896 29.5177L11.4896 28.7177C11.3896 28.7177 11.3896 28.6177 11.4896 28.6177L12.4896 28.0177L12.4896 28.0177ZM15.2896 27.2177L14.2896 26.6177C14.1897 26.6177 14.1897 26.5177 14.2896 26.5177L15.2896 25.9177C15.3897 25.9177 15.4896 25.9177 15.4896 25.9177L16.4896 26.5177C16.5896 26.5177 16.5896 26.6177 16.4896 26.6177L15.4896 27.2177C15.4896 27.3177 15.3897 27.3177 15.2896 27.2177L15.2896 27.2177ZM13.4896 27.9177L14.4896 27.3177C14.5896 27.3177 14.6897 27.3177 14.6897 27.3177L15.6897 27.9177C15.7896 27.9177 15.7896 28.0177 15.6897 28.0177L14.6897 28.6177C14.5897 28.6177 14.4896 28.6177 14.4896 28.6177L13.4896 28.0177C13.3896 28.0177 13.3896 27.9177 13.4896 27.9177L13.4896 27.9177ZM14.3896 29.0177C14.4896 29.0177 14.5896 29.0177 14.5896 29.0177L16.0896 29.9177C16.1896 29.9177 16.1896 30.0177 16.0896 30.0177L15.0896 30.6177C14.9896 30.6177 14.8896 30.6177 14.8896 30.6177L13.3896 29.7177C13.2896 29.7177 13.2896 29.6177 13.3896 29.6177L14.3896 29.0177L14.3896 29.0177ZM18.4896 27.7177C18.5896 27.7177 18.6897 27.7177 18.6897 27.7177L19.7897 28.3177C19.8897 28.3177 19.8897 28.4177 19.7897 28.4177L18.7897 29.0177C18.6897 29.0177 18.5897 29.0177 18.5897 29.0177L17.4896 28.4177C17.3896 28.4177 17.3896 28.3177 17.4896 28.3177L18.4896 27.7177L18.4896 27.7177ZM16.8896 28.1177L15.8896 27.5177C15.7896 27.5177 15.7896 27.4177 15.8896 27.4177L16.8896 26.8177C16.9896 26.8177 17.0896 26.8177 17.0896 26.8177L18.0896 27.4177C18.1896 27.4177 18.1896 27.5177 18.0896 27.5177L17.0896 28.1177C17.0896 28.2177 16.9896 28.2177 16.8896 28.1177L16.8896 28.1177ZM17.3896 28.9177L16.3896 29.5177C16.2896 29.5177 16.1897 29.5177 16.1897 29.5177L15.1897 28.9177C15.0897 28.9177 15.0897 28.8177 15.1897 28.8177L16.1897 28.2177C16.2896 28.2177 16.3896 28.2177 16.3896 28.2177L17.3896 28.8177L17.3896 28.9177L17.3896 28.9177ZM16.5896 29.7177L17.5896 29.1177C17.6896 29.1177 17.7896 29.1177 17.7896 29.1177L18.8896 29.7177C18.9896 29.7177 18.9896 29.8177 18.8896 29.8177L17.8896 30.4177C17.7896 30.4177 17.6897 30.4177 17.6897 30.4177L16.6897 29.8177C16.5896 29.8177 16.5896 29.7177 16.5896 29.7177L16.5896 29.7177ZM16.4896 30.2177C16.5896 30.2177 16.6897 30.2177 16.6897 30.2177L23.3896 34.1177C23.4896 34.1177 23.4896 34.2177 23.3896 34.2177L22.3896 34.8177C22.2896 34.8177 22.1897 34.8177 22.1897 34.8177L15.4896 30.9177C15.3896 30.9177 15.3896 30.8177 15.4896 30.8177L16.4896 30.2177L16.4896 30.2177ZM24.9896 31.4177L26.0897 32.0177C26.1897 32.0177 26.1897 32.1177 26.0897 32.1177L25.0897 32.7177C24.9897 32.7177 24.8896 32.7177 24.8896 32.7177L23.7897 32.1177C23.6897 32.1177 23.6897 32.0177 23.7897 32.0177L24.7897 31.4177C24.8897 31.3177 24.9896 31.3177 24.9896 31.4177L24.9896 31.4177ZM23.6897 32.6177L22.6897 33.2177C22.5897 33.2177 22.4896 33.2177 22.4896 33.2177L21.3896 32.6177C21.2896 32.6177 21.2896 32.5177 21.3896 32.5177L22.3896 31.9177C22.4896 31.9177 22.5897 31.9177 22.5897 31.9177L23.6897 32.5177C23.7897 32.5177 23.7897 32.6177 23.6897 32.6177L23.6897 32.6177ZM23.4896 30.4177L24.5897 31.0177C24.6897 31.0177 24.6897 31.1177 24.5897 31.1177L23.5897 31.7177C23.4896 31.7177 23.3896 31.7177 23.3896 31.7177L22.2897 31.1177C22.1897 31.1177 22.1897 31.0177 22.2897 31.0177L23.2897 30.4177C23.2897 30.4177 23.3896 30.4177 23.4896 30.4177L23.4896 30.4177ZM22.0897 31.7177L21.0897 32.3177C20.9896 32.3177 20.8896 32.3177 20.8896 32.3177L19.7897 31.7177C19.6897 31.7177 19.6897 31.6177 19.7897 31.6177L20.7897 31.0177C20.8897 31.0177 20.9896 31.0177 20.9896 31.0177L22.0897 31.6177C22.1897 31.6177 22.1897 31.6177 22.0897 31.7177L22.0897 31.7177ZM21.5897 29.5177C21.6897 29.5177 21.7897 29.5177 21.7897 29.5177L22.8896 30.1177C22.9896 30.1177 22.9896 30.2177 22.8896 30.2177L21.8896 30.8177C21.7896 30.8177 21.6897 30.8177 21.6897 30.8177L20.5897 30.2177C20.4896 30.2177 20.4896 30.1177 20.5897 30.1177L21.5897 29.5177L21.5897 29.5177ZM20.0897 30.0177L18.9896 29.4177C18.8896 29.4177 18.8896 29.3177 18.9896 29.3177L19.9896 28.7177C20.0896 28.7177 20.1897 28.7177 20.1897 28.7177L21.2897 29.3177C21.3897 29.3177 21.3897 29.4177 21.2897 29.4177L20.2897 30.0177C20.1897 30.0177 20.0897 30.0177 20.0897 30.0177L20.0897 30.0177ZM20.4896 30.8177L19.4896 31.4177C19.3896 31.4177 19.2897 31.4177 19.2897 31.4177L18.1897 30.8177C18.0896 30.8177 18.0896 30.7177 18.1897 30.7177L19.1897 30.1177C19.2897 30.1177 19.3896 30.1177 19.3896 30.1177L20.4896 30.7177C20.5896 30.7177 20.5896 30.7177 20.4896 30.8177L20.4896 30.8177ZM22.9896 33.4177L23.9896 32.8177C24.0896 32.8177 24.1897 32.8177 24.1897 32.8177L25.2897 33.4177C25.3897 33.4177 25.3897 33.5177 25.2897 33.5177L24.2897 34.1177C24.1897 34.1177 24.0897 34.1177 24.0897 34.1177L22.9896 33.5177C22.8896 33.5177 22.8896 33.4177 22.9896 33.4177L22.9896 33.4177ZM23.9896 34.4177L25.4896 35.3177C25.5896 35.3177 25.5896 35.4177 25.4896 35.4177L24.4896 36.0177C24.3896 36.0177 24.2897 36.0177 24.2897 36.0177L22.7897 35.1177C22.6897 35.1177 22.6897 35.0177 22.7897 35.0177L23.7897 34.4177C23.7897 34.4177 23.8896 34.4177 23.9896 34.4177L23.9896 34.4177ZM28.1897 33.2177L29.2897 33.8177C29.3897 33.8177 29.3897 33.9177 29.2897 33.9177L28.2897 34.5177C28.1897 34.5177 28.0897 34.5177 28.0897 34.5177L26.9896 33.9177C26.8896 33.9177 26.8896 33.8177 26.9896 33.8177L27.9896 33.2177C28.0896 33.2177 28.1897 33.2177 28.1897 33.2177L28.1897 33.2177ZM25.3896 33.0177C25.2896 33.0177 25.2896 32.9177 25.3896 32.9177L26.3896 32.3177C26.4896 32.3177 26.5897 32.3177 26.5897 32.3177L27.6897 32.9177C27.7897 32.9177 27.7897 33.0177 27.6897 33.0177L26.6897 33.6177C26.5897 33.6177 26.4896 33.6177 26.4896 33.6177L25.3896 33.0177L25.3896 33.0177ZM26.8896 34.4177L25.8896 35.0177C25.7896 35.0177 25.6897 35.0177 25.6897 35.0177L24.5897 34.4177C24.4897 34.4177 24.4897 34.3177 24.5897 34.3177L25.5897 33.7177C25.6897 33.7177 25.7897 33.7177 25.7897 33.7177L26.8896 34.3177C26.9896 34.3177 26.9896 34.4177 26.8896 34.4177L26.8896 34.4177ZM27.1897 34.6177C27.2897 34.6177 27.3896 34.6177 27.3896 34.6177L28.4896 35.2177C28.5896 35.2177 28.5896 35.3177 28.4896 35.3177L27.4896 35.9177C27.3896 35.9177 27.2897 35.9177 27.2897 35.9177L26.1897 35.3177C26.0897 35.3177 26.0897 35.2177 26.1897 35.2177L27.1897 34.6177L27.1897 34.6177ZM25.9896 35.6177L27.0897 36.3177C27.1897 36.3177 27.1897 36.4177 27.0897 36.4177L26.0897 37.0177C25.9897 37.0177 25.8896 37.0177 25.8896 37.0177L24.7897 36.3177C24.6897 36.3177 24.6897 36.2177 24.7897 36.2177L25.7897 35.6177C25.8897 35.6177 25.8896 35.6177 25.9896 35.6177L25.9896 35.6177ZM28.4896 34.9177C28.3896 34.9177 28.3896 34.8177 28.4896 34.8177L29.4896 34.2177C29.5896 34.2177 29.6897 34.2177 29.6897 34.2177L30.7897 34.8177C30.8897 34.8177 30.8897 34.9177 30.7897 34.9177L29.6897 35.5177C29.5897 35.5177 29.4896 35.5177 29.4896 35.5177L28.4896 34.9177L28.4896 34.9177ZM30.0897 35.7177L31.1897 35.1177C31.2897 35.1177 31.3896 35.1177 31.3896 35.1177L32.4896 35.7177C32.5896 35.7177 32.5896 35.8177 32.4896 35.8177L31.3896 36.4177C31.2896 36.4177 31.1897 36.4177 31.1897 36.4177L30.0897 35.8177L30.0897 35.7177L30.0897 35.7177ZM28.7897 36.9177L27.6897 36.3177C27.5897 36.3177 27.5897 36.2177 27.6897 36.2177L28.6897 35.6177C28.7897 35.6177 28.8896 35.6177 28.8896 35.6177L29.9896 36.2177C30.0896 36.2177 30.0896 36.3177 29.9896 36.3177L28.9896 36.9177C28.9896 36.9177 28.8897 36.9177 28.7897 36.9177L28.7897 36.9177ZM26.9896 37.0177L28.0897 37.7177C28.1897 37.7177 28.1897 37.8177 28.0897 37.8177L27.7897 38.0177C27.6897 38.0177 27.5897 38.0177 27.5897 38.0177L26.4896 37.3177C26.3896 37.3177 26.3896 37.2177 26.4896 37.2177L26.7897 37.0177C26.7897 37.0177 26.8896 37.0177 26.9896 37.0177L26.9896 37.0177ZM29.3896 37.5177L30.4896 38.2177C30.5896 38.2177 30.5896 38.3177 30.4896 38.3177L30.1897 38.5177C30.0897 38.5177 29.9896 38.5177 29.9896 38.5177L28.8896 37.8177C28.7896 37.8177 28.7896 37.7177 28.8896 37.7177L29.1897 37.5177C29.1897 37.5177 29.2896 37.5177 29.3896 37.5177L29.3896 37.5177ZM28.5897 38.0177L29.6897 38.7177C29.7897 38.7177 29.7897 38.8177 29.6897 38.8177L29.3896 39.0177C29.2896 39.0177 29.1897 39.0177 29.1897 39.0177L28.0897 38.3177C27.9897 38.3177 27.9897 38.2177 28.0897 38.2177L28.3896 38.0177C28.3896 37.9177 28.4897 37.9177 28.5897 38.0177L28.5897 38.0177Z" id="路径_2142_2_" fill="#004680" fill-opacity="0.2" fill-rule="evenodd" stroke="none" />
      </g>
      <g id="Group" transform="translate(37.837585 3.3176923)">
        <path d="M24.4 33.9L1.89999 21C1.49999 20.8 1.19998 20.3 1.19998 19.9L1.10001 1.3C1.10001 0.9 1.39999 0.8 1.79999 1L24.3 13.9C24.7 14.1 25 14.6 25 15L25.1 33.5C25.2 33.9 24.8 34.1 24.4 33.9L24.4 33.9Z" id="路径_4427_2_" fill="#FFFFFF" fill-opacity="0.3" fill-rule="evenodd" stroke="none" />
        <path d="M25.5 32.9L3 20C2.6 19.8 2.29999 19.3 2.29999 18.9L2.19998 0.4C2.19998 0 2.49999 -0.0999999 2.89999 0.1L25.4 13C25.8 13.2 26.1 13.7 26.1 14.1L26.2 32.6C26.3 33 25.9 33.1 25.5 32.9L25.5 32.9Z" id="路径_4428_2_" fill="#FFFFFF" fill-opacity="0.3" fill-rule="evenodd" stroke="none" />
        <g id="组_1857_2_" transform="translate(0 1.8289973)">
          <path d="M23.3 33L0.799988 20.1C0.399988 19.9 0.100006 19.4 0.100006 19L0 0.500001C0 0.1 0.299982 2.45869e-07 0.699982 0.2L23.2 13.1C23.6 13.3 23.9 13.8 23.9 14.2L24 32.7C24 33.1 23.7 33.2 23.3 33L23.3 33Z" id="路径_4429_2_" fill="#FFFFFF" fill-opacity="0.8" fill-rule="evenodd" stroke="none" />
          <path d="M0.699982 0.0999996C0.299982 -0.1 0 7.00355e-07 0 0.400001L0 2.4L24 16.2L24 14.1C24 13.8 23.8 13.4 23.4 13.1L14 7.7L0.699982 0.0999996L0.699982 0.0999996Z" id="Vector" fill="url(#gradient_10)" fill-rule="evenodd" stroke="none" />
          <path d="M1.29343 1.9645C1.51411 1.79851 1.55847 1.48503 1.39247 1.26435C1.22648 1.04367 0.912995 0.99935 0.692316 1.16534C0.471635 1.33134 0.427321 1.64478 0.593315 1.86547C0.759308 2.08615 1.07275 2.1305 1.29343 1.9645L1.29343 1.9645Z" id="椭圆_298_2_" fill="#FFFFFF" fill-rule="evenodd" stroke="none" />
          <path d="M2.2642 2.58212C2.48488 2.41613 2.52923 2.10265 2.36324 1.88197C2.19725 1.66129 1.88376 1.61697 1.66308 1.78296C1.4424 1.94895 1.39808 2.2624 1.56408 2.48308C1.73007 2.70377 2.04352 2.74811 2.2642 2.58212L2.2642 2.58212Z" id="椭圆_299_2_" fill="#FFFFFF" fill-rule="evenodd" stroke="none" />
          <path d="M3.29496 3.27956C3.51564 3.11357 3.55999 2.80009 3.394 2.57941C3.22801 2.35873 2.91452 2.31441 2.69384 2.4804C2.47316 2.64639 2.42885 2.95984 2.59484 3.18053C2.76083 3.40121 3.07428 3.44556 3.29496 3.27956L3.29496 3.27956Z" id="椭圆_300_2_" fill="#FFFFFF" fill-rule="evenodd" stroke="none" />
          <g id="组_1851_2_" transform="translate(1.1579895 5.5599957)">
            <g id="组_1849_2_">
              <path d="M0.100006 0.300003L3.69998 2.3C3.69998 2.3 3.79999 2.3 3.79999 2.2C3.79999 2.1 3.79998 2.1 3.69998 2L0.100006 0C0.100006 0 0 6.10203e-06 0 0.100006C0 0.200006 0.100006 0.200003 0.100006 0.300003L0.100006 0.300003Z" id="路径_4431_2_" fill="#CBCBCB" fill-rule="evenodd" stroke="none" />
              <path d="M0.100006 0.800003L3.69998 2.8C3.79998 2.8 3.79999 2.8 3.79999 2.7C3.79999 2.6 3.79998 2.6 3.69998 2.5L0.100006 0.5C6.10203e-06 0.5 0 0.500006 0 0.600006C0 0.700006 0.100006 0.800003 0.100006 0.800003L0.100006 0.800003Z" id="路径_4432_2_" fill="#CBCBCB" fill-rule="evenodd" stroke="none" />
              <path d="M0.100006 1.4L3.69998 3.40001C3.79998 3.40001 3.79999 3.40001 3.79999 3.30001C3.79999 3.20001 3.79998 3.20001 3.69998 3.10001L0.100006 1.10001C6.10203e-06 1.10001 0 1.10001 0 1.2C0 1.3 0.100006 1.4 0.100006 1.4L0.100006 1.4Z" id="路径_4433_2_" fill="#CBCBCB" fill-rule="evenodd" stroke="none" />
            </g>
            <g id="组_1850_2_" transform="translate(4.20401 1.8878635)">
              <path d="M1.39999 3.18114C1.99999 3.48113 2.49999 3.28113 2.49999 2.58113L2.49999 2.28114L2.79998 2.28114C2.79998 2.48114 2.89999 2.68114 2.89999 2.78114C2.89999 3.68114 2.3 4.08113 1.5 3.58113L1.39999 3.58113L1.39999 3.18114L1.39999 3.18114Z" id="路径_4434_2_" fill="#FFFFFF" fill-rule="evenodd" stroke="none" />
              <path d="M1.4 0.681137C0.999994 0.481137 0.7 0.481137 0.5 0.681137L0.199997 0.281143C0.499997 -0.0188578 0.899994 -0.118863 1.4 0.181137C2 0.581137 2.59999 1.28113 2.79999 2.08113L2.5 2.08113C2.3 1.68113 1.9 0.981137 1.4 0.681137L1.4 0.681137Z" id="路径_4435_2_" fill="url(#gradient_11)" fill-rule="evenodd" stroke="none" />
              <path d="M0 1.08113C0 0.781131 0.0999969 0.481134 0.199997 0.381134L0.5 0.781143C0.4 0.881143 0.299988 1.08113 0.299988 1.38113C0.299988 1.98113 0.699988 2.78113 1.29999 3.18113L1.29999 3.58113C0.599988 3.08113 0 1.98113 0 1.08113L0 1.08113Z" id="路径_4436_2_" fill="url(#gradient_12)" fill-rule="evenodd" stroke="none" />
            </g>
          </g>
          <g id="组_1852_2_" transform="translate(8.112658 17.020002)">
            <path d="M6.53032 1.59998L6.53032 1.29999L4.43033 0L4.43033 0.299988L6.53032 1.59998L6.53032 1.59998Z" id="路径_4437_2_" fill="#C7E3FC" fill-rule="evenodd" stroke="none" />
            <path d="M0.060634 0.921255C0.462047 0.820902 0.874626 0.724431 1.24686 0.712426C1.61884 0.700428 1.92718 0.773617 2.14194 0.988382C2.32618 1.17261 2.41854 1.35594 2.51852 1.5559L2.52264 1.56414L2.52792 1.57168C2.90113 2.10483 3.45831 2.39289 4.07983 2.52237C4.69984 2.65154 5.39117 2.62479 6.04933 2.52355L6.05087 2.52329C6.35342 2.47287 6.66197 2.40989 6.9707 2.34752C7.28026 2.28498 7.59042 2.22297 7.90007 2.17342C8.51883 2.07442 9.12717 2.02675 9.70658 2.12277C10.5853 2.31883 11.3607 2.8049 12.1744 3.21178C12.9828 3.61595 14.0214 3.93475 14.9698 3.61858L14.8908 3.38141C14.0393 3.66525 13.0779 3.384 12.2862 2.98817C11.501 2.59557 10.6774 2.0824 9.75745 1.87797L9.75749 1.8778L9.75088 1.8767C9.13125 1.77343 8.49069 1.82575 7.86058 1.92656C7.54523 1.97702 7.23038 2.04001 6.92119 2.10247C6.61126 2.16508 6.30739 2.22709 6.01003 2.27665L6.00977 2.27669C5.36841 2.37523 4.71033 2.39836 4.13082 2.27762C3.55541 2.15775 3.06476 1.89795 2.73795 1.43573C2.63909 1.23802 2.53148 1.02437 2.31872 0.811605C2.03349 0.52637 1.64182 0.449557 1.2388 0.462556C0.836014 0.475547 0.398587 0.579073 0 0.678719L0.060634 0.921255L0.060634 0.921255Z" id="路径_4438_2_" fill="url(#gradient_13)" fill-rule="evenodd" stroke="none" />
            <path d="M12.0303 4.79999L10.9303 4.09998L10.9303 11.5L12.0303 12.2L12.0303 4.79999L12.0303 4.79999Z" id="路径_4439_2_" fill="url(#gradient_14)" fill-rule="evenodd" stroke="none" />
            <path d="M3.03032 3.39999L1.93033 2.69998L1.93033 6.09997L3.03032 6.79999L3.03032 3.39999L3.03032 3.39999Z" id="路径_4440_2_" fill="url(#gradient_15)" fill-rule="evenodd" stroke="none" />
            <path d="M1.33032 3.59998L0.230329 2.89999L0.230329 5L1.33032 5.69998L1.33032 3.59998L1.33032 3.59998Z" id="路径_4441_2_" fill="url(#gradient_16)" fill-rule="evenodd" stroke="none" />
            <path d="M10.0303 5.5L8.93033 4.79999L8.93033 10.2L10.0303 10.9L10.0303 5.5L10.0303 5.5Z" id="路径_4442_2_" fill="url(#gradient_17)" fill-rule="evenodd" stroke="none" />
            <path d="M7.93033 5.19998L6.83032 4.5L6.83032 9L7.93033 9.69998L7.93033 5.19998L7.93033 5.19998Z" id="路径_4443_2_" fill="url(#gradient_18)" fill-rule="evenodd" stroke="none" />
            <path d="M5.63033 3.59998L4.53032 2.89999L4.53032 7.5L5.63033 8.19998L5.63033 3.59998L5.63033 3.59998Z" id="路径_4444_2_" fill="url(#gradient_19)" fill-rule="evenodd" stroke="none" />
          </g>
          <g id="组_1856_2_" transform="translate(1.0299988 10.545988)">
            <path d="M2.19998 2L0.199982 0.800003L0.199982 1.10001L2.19998 2.3L2.19998 2L2.19998 2Z" id="路径_4445_2_" fill="#CBCBCB" fill-rule="evenodd" stroke="none" />
            <path d="M2.19998 2.70001L0.199982 1.5L0.199982 1.8L2.19998 3L2.19998 2.70001L2.19998 2.70001Z" id="路径_4446_2_" fill="#CBCBCB" fill-rule="evenodd" stroke="none" />
            <path d="M2.19998 1.20001L0.199982 0L0.199982 0.300003L2.19998 1.5L2.19998 1.20001L2.19998 1.20001Z" id="路径_4447_2_" fill="#CBCBCB" fill-rule="evenodd" stroke="none" />
            <path d="M1.19998 2.77143L0.199982 2.20001L0.199982 2.62857L1.19998 3.20001L1.19998 2.77143L1.19998 2.77143Z" id="路径_4448_2_" fill="#CBCBCB" fill-rule="evenodd" stroke="none" />
            <path d="M4.02496 5.25556C3.3583 5.25556 3.02496 4.69305 3.02496 4.41181C3.02496 4.13056 3.3583 4.13056 4.02496 5.25556L4.02496 5.25556ZM4.09996 1.8L3.09996 4.3L3.09996 1.8C3.09996 1.8 3.09999 1.70001 3.59996 1.70001L4.09996 1.8L4.09996 1.8Z" id="路径_4449_2_" fill="#C9D1D6" fill-rule="evenodd" stroke="none" />
            <path d="M4.89998 2.90001C4.29998 2.50001 3.89998 2.80001 3.79998 3.40001C3.69998 4.00001 4.19998 4.90002 4.79998 5.20002C5.39998 5.60002 5.79998 5.30002 5.89998 4.70002C5.99998 4.10002 5.39998 3.30001 4.89998 2.90001L4.89998 2.90001ZM4.79998 5C4.39998 4.7 3.99996 4.10001 4.09996 3.60001C4.19996 3.10001 4.49998 2.90002 4.89998 3.20002C5.29998 3.50002 5.69996 4.10001 5.59996 4.60001C5.49996 5.10001 5.19998 5.3 4.79998 5L4.79998 5Z" id="路径_4450_2_" fill="#CBCBCB" fill-rule="evenodd" stroke="none" />
            <path d="M5.69999 6.90001L0.0999864 3.3C0.0999864 3.3 -1.36085e-05 3.20001 0.0999864 3.20001L0.199993 3.20001L5.8 6.70001C5.8 6.80001 5.79999 6.80001 5.69999 6.90001L5.69999 6.90001Z" id="路径_4451_2_" fill="#C9D1D6" fill-rule="evenodd" stroke="none" />
            <path d="M5.65552 4.6C5.65552 4.9 5.54442 5.1 5.32221 5.1C5.32221 5.1 5.2111 5.2 5.32221 5.3C5.32221 5.4 5.43333 5.5 5.54444 5.4C5.87776 5.3 5.98887 5.10001 6.09998 4.70001C6.09998 4.10001 5.76663 3.4 5.21109 3C5.09998 2.9 5.09998 3 5.09998 3C5.09998 3.1 5.09998 3.10001 5.21109 3.20001C5.43331 3.60001 5.65552 4.1 5.65552 4.6L5.65552 4.6Z" id="路径_4452_2_" fill="url(#gradient_20)" fill-rule="evenodd" stroke="none" />
            <g id="组_1854_2_" transform="translate(0 5.904999)">
              <g id="组_1853_2_">
                <path d="M1 1L0 0.857137L0 0L1 0.142863L1 1L1 1Z" id="路径_4453_2_" fill="url(#gradient_21)" fill-rule="evenodd" stroke="none" />
                <path d="M1.19998 1.10001L0.199982 0.95718L0.199982 0.100006L1.19998 0.242875L1.19998 1.10001L1.19998 1.10001Z" id="路径_4454_2_" fill="url(#gradient_22)" fill-rule="evenodd" stroke="none" />
                <path d="M1.39999 1.20001L0.399994 1.05714L0.399994 0.200012L1.39999 0.342838L1.39999 1.20001L1.39999 1.20001Z" id="路径_4455_2_" fill="url(#gradient_23)" fill-rule="evenodd" stroke="none" />
                <path d="M1.59998 1.39999L0.599976 1.25713L0.599976 0.399994L1.59998 0.542857L1.59998 1.39999L1.59998 1.39999Z" id="路径_4456_2_" fill="url(#gradient_24)" fill-rule="evenodd" stroke="none" />
                <path d="M1.69998 1.5L0.699982 1.35714L0.699982 0.5L1.69998 0.642863L1.69998 1.5L1.69998 1.5Z" id="路径_4457_2_" fill="url(#gradient_25)" fill-rule="evenodd" stroke="none" />
                <path d="M1.89999 1.60001L0.899994 1.45718L0.899994 0.600006L1.89999 0.742875L1.89999 1.60001L1.89999 1.60001Z" id="路径_4458_2_" fill="url(#gradient_26)" fill-rule="evenodd" stroke="none" />
                <path d="M2.09998 1.70001L1.09998 1.55714L1.09998 0.700012L2.09998 0.842838L2.09998 1.70001L2.09998 1.70001Z" id="路径_4459_2_" fill="url(#gradient_27)" fill-rule="evenodd" stroke="none" />
                <path d="M2.29999 1.79999L1.29999 1.65712L1.29999 0.799988L2.29999 0.942851L2.29999 1.79999L2.29999 1.79999Z" id="路径_4460_2_" fill="url(#gradient_28)" fill-rule="evenodd" stroke="none" />
                <path d="M2.39999 1.89999L1.39999 1.75713L1.39999 0.899994L2.39999 1.04286L2.39999 1.89999L2.39999 1.89999Z" id="路径_4461_2_" fill="url(#gradient_29)" fill-rule="evenodd" stroke="none" />
                <path d="M2.59998 2L1.59998 1.85714L1.59998 1L2.59998 1.14286L2.59998 2L2.59998 2Z" id="路径_4462_2_" fill="url(#gradient_30)" fill-rule="evenodd" stroke="none" />
                <path d="M2.79999 2.10001L1.79999 1.95718L1.79999 1.10001L2.79999 1.24288L2.79999 2.10001L2.79999 2.10001Z" id="路径_4463_2_" fill="url(#gradient_31)" fill-rule="evenodd" stroke="none" />
                <path d="M3 2.20001L2 2.05714L2 1.20001L3 1.34284L3 2.20001L3 2.20001Z" id="路径_4464_2_" fill="url(#gradient_32)" fill-rule="evenodd" stroke="none" />
                <path d="M3.09998 2.39999L2.09998 2.25713L2.09998 1.39999L3.09998 1.54286L3.09998 2.39999L3.09998 2.39999Z" id="路径_4465_2_" fill="url(#gradient_33)" fill-rule="evenodd" stroke="none" />
                <path d="M3.29999 2.5L2.29999 2.35714L2.29999 1.5L3.29999 1.64286L3.29999 2.5L3.29999 2.5Z" id="路径_4466_2_" fill="url(#gradient_34)" fill-rule="evenodd" stroke="none" />
                <path d="M3.5 2.60001L2.5 2.45718L2.5 1.60001L3.5 1.74288L3.5 2.60001L3.5 2.60001Z" id="路径_4467_2_" fill="url(#gradient_35)" fill-rule="evenodd" stroke="none" />
                <path d="M3.69998 2.70001L2.69998 2.55714L2.69998 1.70001L3.69998 1.84284L3.69998 2.70001L3.69998 2.70001Z" id="路径_4468_2_" fill="url(#gradient_36)" fill-rule="evenodd" stroke="none" />
                <path d="M3.89999 2.79999L2.89999 2.65712L2.89999 1.79999L3.89999 1.94285L3.89999 2.79999L3.89999 2.79999Z" id="路径_4469_2_" fill="url(#gradient_37)" fill-rule="evenodd" stroke="none" />
                <path d="M4 2.89999L3 2.75713L3 1.89999L4 2.04286L4 2.89999L4 2.89999Z" id="路径_4470_2_" fill="url(#gradient_38)" fill-rule="evenodd" stroke="none" />
                <path d="M4.19998 3L3.19998 2.85714L3.19998 2L4.19998 2.14286L4.19998 3L4.19998 3Z" id="路径_4471_2_" fill="url(#gradient_39)" fill-rule="evenodd" stroke="none" />
                <path d="M4.39999 3.10001L3.39999 2.95718L3.39999 2.10001L4.39999 2.24288L4.39999 3.10001L4.39999 3.10001Z" id="路径_4472_2_" fill="url(#gradient_40)" fill-rule="evenodd" stroke="none" />
                <path d="M4.59998 3.20001L3.59998 3.05714L3.59998 2.20001L4.59998 2.34284L4.59998 3.20001L4.59998 3.20001Z" id="路径_4473_2_" fill="url(#gradient_41)" fill-rule="evenodd" stroke="none" />
                <path d="M4.69998 3.39999L3.69998 3.25713L3.69998 2.39999L4.69998 2.54286L4.69998 3.39999L4.69998 3.39999Z" id="路径_4474_2_" fill="url(#gradient_42)" fill-rule="evenodd" stroke="none" />
                <path d="M4.89999 3.5L3.89999 3.35714L3.89999 2.5L4.89999 2.64286L4.89999 3.5L4.89999 3.5Z" id="路径_4475_2_" fill="url(#gradient_43)" fill-rule="evenodd" stroke="none" />
                <path d="M5.09998 3.60001L4.09998 3.45718L4.09998 2.60001L5.09998 2.74288L5.09998 3.60001L5.09998 3.60001Z" id="路径_4476_2_" fill="url(#gradient_44)" fill-rule="evenodd" stroke="none" />
                <path d="M5.29999 3.70001L4.29999 3.55714L4.29999 2.70001L5.29999 2.84284L5.29999 3.70001L5.29999 3.70001Z" id="路径_4477_2_" fill="#CBCBCB" fill-rule="evenodd" stroke="none" />
                <path d="M5.39999 3.79999L4.39999 3.65712L4.39999 2.79999L5.39999 2.94285L5.39999 3.79999L5.39999 3.79999Z" id="路径_4478_2_" fill="#CBCBCB" fill-rule="evenodd" stroke="none" />
                <path d="M5.59998 3.89999L4.59998 3.75713L4.59998 2.89999L5.59998 3.04286L5.59998 3.89999L5.59998 3.89999Z" id="路径_4479_2_" fill="#CBCBCB" fill-rule="evenodd" stroke="none" />
                <path d="M5.79999 4L4.79999 3.85714L4.79999 3L5.79999 3.14286L5.79999 4L5.79999 4Z" id="路径_4480_2_" fill="#CBCBCB" fill-rule="evenodd" stroke="none" />
                <path d="M6 4.10001L5 3.95718L5 3.10001L6 3.24288L6 4.10001L6 4.10001Z" id="路径_4481_2_" fill="#CBCBCB" fill-rule="evenodd" stroke="none" />
                <path d="M6.19998 4.20001L5.19998 4.05714L5.19998 3.20001L6.19998 3.34284L6.19998 4.20001L6.19998 4.20001Z" id="路径_4482_2_" fill="#CBCBCB" fill-rule="evenodd" stroke="none" />
                <path d="M6.29999 4.39999L5.29999 4.25713L5.29999 3.39999L6.29999 3.54286L6.29999 4.39999L6.29999 4.39999Z" id="路径_4483_2_" fill="#CBCBCB" fill-rule="evenodd" stroke="none" />
                <path d="M6.5 4.5L5.5 4.35714L5.5 3.5L6.5 3.64286L6.5 4.5L6.5 4.5Z" id="路径_4484_2_" fill="#CBCBCB" fill-rule="evenodd" stroke="none" />
              </g>
              <path d="M4.19998 4L4.09998 3.5L3.89999 3.79999L3.5 3.60001L3.5 4.39999L4.5 5L4.5 4.20001L4.19998 4L4.19998 4Z" id="路径_4485_2_" fill="#F9346C" fill-rule="evenodd" stroke="none" />
            </g>
            <path d="M2 5.40001L0.0999756 4.20001L0.0999756 4.70001L2 5.90001L2 5.40001L2 5.40001Z" id="路径_4486_2_" fill="#CBCBCB" fill-rule="evenodd" stroke="none" />
          </g>
        </g>
      </g>
      <g id="Group" transform="translate(5.037582 7.0783043)">
        <path d="M4.76837e-07 10.4394C4.76837e-07 11.2394 0.299997 11.8394 0.699997 12.0394L1.8 12.6394C1.8 12.6394 12.8 4.43939 12.8 3.03939C12.8 3.03939 12.8 2.53939 12.7 2.23939C12.9 2.13939 13.2 2.03939 13.2 2.03939C13 1.93939 12.4 1.53939 12.1 1.43939C11.7 1.33939 11 1.53939 10.8 1.63939C10.8 1.33939 10.7 1.03939 10.6 0.839388L11.1 0.739387L10.1 0.139388C9.69999 -0.0606121 9.2 -0.0606126 8.7 0.239387C8.4 0.439387 8.19998 0.639388 7.99998 0.839388C7.99998 0.839388 7.5 0.539388 7.2 0.339388C6.9 0.139388 6.6 0.139388 6.3 0.139388L5.8 0.139388C5.5 0.239388 5.19999 0.339388 4.89999 0.539388C3.69999 1.23939 2.6 2.63939 2 4.33939C1.6 5.33939 1.29999 6.63939 1.39999 7.33939C0.199994 8.53939 4.76837e-07 9.33939 4.76837e-07 10.4394L4.76837e-07 10.4394Z" id="路径_1684_28_" fill="url(#gradient_45)" fill-rule="evenodd" stroke="none" />
        <path d="M1.2 11.1394C1.2 12.5394 2.1 13.2394 3.2 12.6394C3.2 12.6394 3.30001 12.6394 3.30001 12.5394L12 7.43939C12 7.43939 12.1 7.43939 12.1 7.33939C13.2 6.73939 14 5.03939 14 3.63939C14 2.23939 13.1 1.53939 12 2.13939L11.9 2.13939C11.8 0.639387 10.9 0.0393875 9.7 0.739388C9.4 0.939388 9.10001 1.23939 8.80001 1.53939C8.20001 0.639387 7.1 0.439388 5.9 1.13939C4 2.23939 2.4 5.23939 2.5 7.83939C1.7 8.73939 1.2 10.0394 1.2 11.1394L1.2 11.1394Z" id="路径_1685_28_" fill="#F3F8FE" fill-rule="evenodd" stroke="none" />
        <path d="M12 7.33939C13.1 6.73939 13.9 5.03939 13.9 3.63939C13.9 2.23939 13 1.53939 11.9 2.13939L11.8 2.13939C11.7 0.639387 10.8 0.0393875 9.59999 0.739388C9.29999 0.939388 9 1.23939 8.7 1.53939C8.1 0.639387 7.00001 0.439388 5.8 1.13939L5.7 1.23939L10.3 8.33939L11.8 7.43939C11.9 7.43939 12 7.43939 12 7.33939L12 7.33939Z" id="Vector" fill="url(#gradient_46)" fill-rule="evenodd" stroke="none" />
      </g>
      <g id="Group" transform="translate(79.03757 15.052006)">
        <path d="M8.30002 6.36568C8.30002 6.86568 8.10003 7.16569 7.90003 7.26569L7.30002 7.66569C7.30002 7.66569 0.800018 2.86568 0.800018 1.96568C0.800018 1.96568 0.800024 1.66568 0.900024 1.46568C0.800024 1.46568 0.600006 1.36568 0.600006 1.36568C0.700006 1.26568 1.10001 1.06568 1.20001 0.965685C1.40001 0.865685 1.9 0.965685 2 1.06569C2 0.865685 2.00001 0.765685 2.10001 0.565685L1.80002 0.465685L2.40003 0.0656853C2.60003 -0.0343147 2.90002 -0.0343143 3.30002 0.165686C3.50002 0.265686 3.60002 0.365685 3.70002 0.565685C3.70002 0.565685 4.00002 0.365686 4.20002 0.265686C4.40002 0.165686 4.60002 0.165686 4.80002 0.165686L5.10001 0.165686C5.30001 0.165686 5.50001 0.265685 5.60001 0.365685C6.30001 0.765684 7.00002 1.66569 7.30002 2.56569C7.50002 3.16569 7.70001 3.86568 7.60001 4.36568C8.10001 5.26568 8.30002 5.66568 8.30002 6.36568L8.30002 6.36568Z" id="路径_1684_27_" fill="url(#gradient_47)" fill-rule="evenodd" stroke="none" />
        <path d="M7.60001 6.76568C7.60001 7.56568 7.10002 7.96568 6.40002 7.66568L6.30002 7.66568L1.20001 4.66568L1.10001 4.66568C0.500006 4.26568 0 3.26568 0 2.46568C0 1.66568 0.500012 1.26569 1.20001 1.56568C1.20001 0.665685 1.8 0.265685 2.5 0.665685C2.7 0.765685 2.9 0.965685 3 1.06569C3.4 0.565685 4.00001 0.365684 4.70001 0.865684C5.80001 1.56568 6.80001 3.36568 6.70001 4.86568C7.30001 5.36568 7.60001 6.06568 7.60001 6.76568L7.60001 6.76568Z" id="路径_1685_27_" fill="#F3F8FE" fill-rule="evenodd" stroke="none" />
        <path d="M1.20002 4.56568C0.600012 4.16568 0.100006 3.16568 0.100006 2.36568C0.100006 1.56568 0.600018 1.16569 1.30002 1.46568C1.30002 0.565685 1.90001 0.165685 2.60001 0.565685C2.80001 0.665685 3.00001 0.865685 3.10001 0.965685C3.50001 0.465685 4.10002 0.265686 4.80002 0.765686L4.90003 0.865684L2.20002 5.06568L1.20002 4.56568L1.20002 4.56568Z" id="Vector" fill="url(#gradient_48)" fill-rule="evenodd" stroke="none" />
      </g>
    </g>
  </g>
</svg>